<svg width="36" height="37" viewBox="0 0 36 37" fill="none" xmlns="http://www.w3.org/2000/svg">
<path d="M8.85459 17.799C13.6864 15.6496 16.9084 14.2326 18.5205 13.548C23.1235 11.5932 24.0799 11.2536 24.7033 11.2423C24.8404 11.2399 25.147 11.2746 25.3456 11.4392C25.5133 11.5781 25.5594 11.7658 25.5815 11.8975C25.6035 12.0292 25.631 12.3292 25.6092 12.5637C25.3598 15.2396 24.2805 21.7333 23.7314 24.7304C23.499 25.9986 23.0415 26.4238 22.5986 26.4654C21.6361 26.5558 20.9052 25.8159 19.973 25.192C18.5142 24.2157 17.6901 23.6079 16.2741 22.6551C14.6377 21.5541 15.6985 20.9489 16.6311 19.9599C16.8752 19.7011 21.116 15.7626 21.1981 15.4054C21.2084 15.3607 21.2179 15.1941 21.121 15.1062C21.0241 15.0182 20.881 15.0483 20.7778 15.0722C20.6315 15.1061 18.3011 16.6788 13.7866 19.7903C13.1251 20.2541 12.5259 20.48 11.9891 20.4682C11.3973 20.4551 10.2589 20.1265 9.41267 19.8457C8.37468 19.5012 7.54971 19.319 7.62155 18.734C7.65896 18.4292 8.06998 18.1176 8.85459 17.799Z" fill="#29A9EB"/>
</svg>
