<svg width="36" height="37" viewBox="0 0 36 37" fill="none" xmlns="http://www.w3.org/2000/svg">
<path d="M25.4507 10.6104C23.6694 8.77668 21.2071 7.78125 18.6923 7.78125C13.3484 7.78125 9.05239 12.1297 9.10478 17.4212C9.10478 19.0977 9.5763 20.7218 10.3622 22.1887L9 27.1659L14.0819 25.8561C15.4965 26.642 17.0682 27.0087 18.6399 27.0087C23.9314 27.0087 28.2274 22.6603 28.2274 17.3688C28.2274 14.8016 27.232 12.3916 25.4507 10.6104ZM18.6923 25.3846C17.2778 25.3846 15.8632 25.0178 14.6582 24.2844L14.3439 24.1272L11.3052 24.9131L12.0911 21.9268L11.8815 21.6124C9.5763 17.8927 10.6765 12.9679 14.4486 10.6627C18.2208 8.35755 23.0931 9.45776 25.3983 13.2299C27.7035 17.002 26.6033 21.8744 22.8312 24.1796C21.6262 24.9654 20.1593 25.3846 18.6923 25.3846ZM23.3027 19.5692L22.7264 19.3072C22.7264 19.3072 21.8882 18.9405 21.3642 18.6785C21.3119 18.6785 21.2595 18.6262 21.2071 18.6262C21.0499 18.6262 20.9451 18.6785 20.8403 18.7309C20.8403 18.7309 20.7879 18.7833 20.0545 19.6216C20.0021 19.7264 19.8973 19.7788 19.7925 19.7788H19.7401C19.6877 19.7788 19.583 19.7264 19.5306 19.674L19.2686 19.5692C18.6923 19.3072 18.1684 18.9929 17.7493 18.5738C17.6445 18.469 17.4873 18.3642 17.3825 18.2594C17.0158 17.8927 16.6491 17.4736 16.3871 17.002L16.3347 16.8973C16.2823 16.8449 16.2823 16.7925 16.2299 16.6877C16.2299 16.5829 16.2299 16.4781 16.2823 16.4257C16.2823 16.4257 16.4919 16.1638 16.6491 16.0066C16.7538 15.9018 16.8062 15.7447 16.911 15.6399C17.0158 15.4827 17.0682 15.2731 17.0158 15.116C16.9634 14.854 16.3347 13.4395 16.1775 13.1251C16.0728 12.9679 15.968 12.9156 15.8108 12.8632H15.6536C15.5489 12.8632 15.3917 12.8632 15.2345 12.8632C15.1297 12.8632 15.0249 12.9156 14.9202 12.9156L14.8678 12.9679C14.763 13.0203 14.6582 13.1251 14.5534 13.1775C14.4486 13.2823 14.3963 13.3871 14.2915 13.4919C13.9247 13.9634 13.7152 14.5397 13.7152 15.116C13.7152 15.5351 13.82 15.9542 13.9771 16.321L14.0295 16.4781C14.501 17.4736 15.1297 18.3642 15.968 19.1501L16.1775 19.3596C16.3347 19.5168 16.4919 19.6216 16.5967 19.7788C17.6969 20.7218 18.9543 21.4029 20.3688 21.7696C20.526 21.822 20.7356 21.822 20.8927 21.8744C21.0499 21.8744 21.2595 21.8744 21.4166 21.8744C21.6786 21.8744 21.9929 21.7696 22.2025 21.6648C22.3597 21.56 22.4644 21.56 22.5692 21.4553L22.674 21.3505C22.7788 21.2457 22.8836 21.1933 22.9884 21.0885C23.0931 20.9837 23.1979 20.879 23.2503 20.7742C23.3551 20.5646 23.4075 20.3027 23.4599 20.0407C23.4599 19.9359 23.4599 19.7788 23.4599 19.674C23.4599 19.674 23.4075 19.6216 23.3027 19.5692Z" fill="white"/>
</svg>
