<svg width="24" height="25" viewBox="0 0 24 25" fill="none" xmlns="http://www.w3.org/2000/svg">
<rect y="0.984375" width="24" height="24" rx="12" fill="#EE8208"/>
<path d="M12.0008 7.40446C12.9436 7.40446 13.7105 8.17136 13.7105 9.11417C13.7105 10.0562 12.9434 10.8231 12.0008 10.8231C11.0585 10.8231 10.2914 10.0562 10.2914 9.11417C10.2912 8.17116 11.0587 7.40446 12.0008 7.40446ZM12.0008 13.242C14.2781 13.242 16.1302 11.3906 16.1302 9.11417C16.1302 6.8366 14.2783 4.98438 12.0008 4.98438C9.72358 4.98438 7.87136 6.83679 7.87136 9.11417C7.87136 11.3906 9.72358 13.242 12.0008 13.242ZM13.6713 16.6102C14.5208 16.4168 15.3315 16.0811 16.0691 15.6174C16.3406 15.4466 16.5332 15.1748 16.6044 14.862C16.6756 14.5492 16.6196 14.2209 16.4488 13.9494C16.3643 13.8148 16.2541 13.6982 16.1245 13.6062C15.9949 13.5143 15.8484 13.4487 15.6935 13.4134C15.5386 13.3781 15.3782 13.3737 15.2215 13.4004C15.0649 13.4271 14.915 13.4844 14.7806 13.5691C13.0888 14.6327 10.9115 14.6319 9.22114 13.5691C9.08669 13.4844 8.93686 13.4271 8.78022 13.4003C8.62358 13.3736 8.46321 13.378 8.30828 13.4134C8.15335 13.4487 8.00691 13.5142 7.87733 13.6062C7.74776 13.6982 7.63759 13.8148 7.55313 13.9494C7.38224 14.2209 7.32618 14.5491 7.39727 14.8619C7.46837 15.1747 7.66079 15.4465 7.93224 15.6174C8.66978 16.0809 9.48028 16.4166 10.3296 16.6102L8.02118 18.919C7.79433 19.146 7.66691 19.4537 7.66697 19.7746C7.66703 20.0955 7.79455 20.4032 8.02148 20.63C8.24841 20.8569 8.55616 20.9843 8.87704 20.9842C9.19791 20.9842 9.50562 20.8567 9.73247 20.6297L12.0004 18.3614L14.2696 20.6299C14.3818 20.7423 14.5151 20.8314 14.6618 20.8922C14.8085 20.9531 14.9657 20.9844 15.1245 20.9844C15.2833 20.9844 15.4405 20.9531 15.5872 20.8922C15.7339 20.8314 15.8671 20.7423 15.9793 20.6299C16.0919 20.5177 16.1812 20.3844 16.2421 20.2377C16.303 20.0909 16.3344 19.9336 16.3344 19.7747C16.3344 19.6158 16.303 19.4584 16.2421 19.3117C16.1812 19.1649 16.0919 19.0316 15.9793 18.9194L13.6713 16.6102Z" fill="white"/>
</svg>
