<svg width="32" height="32" viewBox="0 0 32 32" fill="none" xmlns="http://www.w3.org/2000/svg">
<g clip-path="url(#clip0_19457_7600)">
<rect width="32" height="32" rx="16" fill="#9146FF"/>
<path d="M24.2424 0H7.75758C3.47318 0 0 3.47318 0 7.75758V24.2424C0 28.5268 3.47318 32 7.75758 32H24.2424C28.5268 32 32 28.5268 32 24.2424V7.75758C32 3.47318 28.5268 0 24.2424 0Z" fill="black"/>
<path d="M32 0H0V32H32V0Z" fill="#100943"/>
<path d="M32 16C40.8366 16 48 8.83656 48 7.62939e-06C48 -8.83656 40.8366 -16 32 -16C23.1634 -16 16 -8.83656 16 7.62939e-06C16 8.83656 23.1634 16 32 16Z" fill="#ED143B"/>
<path d="M19.766 15.2695H10.3121V11.5284H19.766C20.3183 11.5284 20.7022 11.6247 20.8949 11.7928C21.0876 11.9608 21.207 12.2726 21.207 12.728V14.0713C21.207 14.5511 21.0876 14.8629 20.8949 15.031C20.7022 15.1991 20.3183 15.2709 19.766 15.2709V15.2695ZM20.4146 8.00143H6.30273V24H10.3121V18.795H17.7009L21.207 24H25.6967L21.8311 18.7706C23.2563 18.5594 23.8962 18.1227 24.4239 17.4029C24.9517 16.6831 25.2164 15.5324 25.2164 13.9966V12.797C25.2164 11.8861 25.1199 11.1664 24.9517 10.6147C24.7835 10.063 24.4959 9.5832 24.0875 9.15219C23.656 8.74419 23.1757 8.45685 22.599 8.26434C22.0224 8.09627 21.3019 8 20.4146 8V8.00143Z" fill="white"/>
</g>
<defs>
<clipPath id="clip0_19457_7600">
<rect width="32" height="32" rx="16" fill="white"/>
</clipPath>
</defs>
</svg>
