<svg width="24" height="25" viewBox="0 0 24 25" fill="none" xmlns="http://www.w3.org/2000/svg">
<rect y="0.984375" width="24" height="24" rx="12" fill="#419FD9"/>
<rect y="0.984375" width="24" height="24" rx="12" fill="url(#paint0_linear_17182_40874)"/>
<path d="M5.39368 12.7198C8.88334 11.1675 11.2103 10.1441 12.3746 9.64965C15.699 8.23788 16.3897 7.99264 16.84 7.98445C16.939 7.98276 17.1604 8.00782 17.3038 8.12664C17.4249 8.22697 17.4583 8.3625 17.4742 8.45763C17.4901 8.55275 17.51 8.76945 17.4942 8.93877C17.3141 10.8714 16.5346 15.5613 16.138 17.7259C15.9702 18.6418 15.6398 18.9489 15.3199 18.9789C14.6248 19.0442 14.0969 18.5099 13.4236 18.0592C12.3701 17.3541 11.7749 16.9151 10.7522 16.2271C9.57034 15.4319 10.3365 14.9948 11.01 14.2805C11.1863 14.0936 14.2492 11.2491 14.3084 10.9911C14.3159 10.9588 14.3227 10.8385 14.2527 10.775C14.1828 10.7115 14.0794 10.7332 14.0049 10.7505C13.8992 10.775 12.2162 11.9108 8.95566 14.158C8.47792 14.493 8.04521 14.6561 7.6575 14.6476C7.23009 14.6382 6.40793 14.4009 5.79673 14.198C5.04708 13.9492 4.45127 13.8177 4.50315 13.3951C4.53017 13.175 4.82702 12.9499 5.39368 12.7198Z" fill="white"/>
<defs>
<linearGradient id="paint0_linear_17182_40874" x1="12" y1="0.984375" x2="12" y2="24.8063" gradientUnits="userSpaceOnUse">
<stop stop-color="#2AABEE"/>
<stop offset="1" stop-color="#229ED9"/>
</linearGradient>
</defs>
</svg>
