<svg width="24" height="25" viewBox="0 0 24 25" fill="none" xmlns="http://www.w3.org/2000/svg">
<rect y="0.984375" width="24" height="24" rx="12" fill="#675DA9"/>
<path d="M17.8731 7.07665C17.4761 6.71171 15.8692 5.54329 12.287 5.52728C12.287 5.52728 8.0647 5.27119 6.00635 7.15988C4.86033 8.3059 4.45698 9.98011 4.41537 12.0609C4.37375 14.1384 4.31933 18.0343 8.0743 19.0906H8.07751L8.0743 20.7008C8.0743 20.7008 8.0519 21.3539 8.48085 21.4851C8.99944 21.6452 9.30676 21.149 9.80294 20.6144C10.075 20.3199 10.4496 19.8909 10.7345 19.5612C13.3018 19.7757 15.2769 19.2827 15.501 19.2091C16.0196 19.0394 18.9551 18.6649 19.4321 14.7691C19.925 10.7612 19.192 8.22267 17.8731 7.07665ZM18.3084 14.4874C17.9051 17.7397 15.5266 17.9446 15.0881 18.0855C14.9024 18.1463 13.1674 18.5785 10.9842 18.4344C10.9842 18.4344 9.35797 20.3967 8.85219 20.9057C8.77216 20.9857 8.67933 21.0177 8.6185 21.0017C8.53207 20.9793 8.50646 20.8769 8.50966 20.7264C8.50966 20.5088 8.52247 18.0471 8.52247 18.0471C8.51927 18.0471 8.51927 18.0471 8.52247 18.0471C5.34371 17.1667 5.52937 13.8503 5.56459 12.1153C5.5998 10.3803 5.92632 8.95573 6.89627 7.99858C8.63451 6.42361 12.223 6.65729 12.223 6.65729C15.2513 6.6701 16.7015 7.58243 17.0376 7.88654C18.1548 8.84689 18.7246 11.1357 18.3084 14.4874Z" fill="white"/>
<path d="M13.7636 12.1742C13.658 12.1742 13.5683 12.0909 13.5619 11.9821C13.5267 11.2938 13.2034 10.9577 12.544 10.9225C12.4319 10.9161 12.3455 10.8201 12.3519 10.708C12.3583 10.596 12.4543 10.5096 12.5664 10.516C13.4371 10.564 13.9237 11.0634 13.9685 11.9597C13.9749 12.0717 13.8885 12.1678 13.7764 12.171C13.77 12.1742 13.7668 12.1742 13.7636 12.1742Z" fill="white"/>
<path d="M14.8038 12.5196H14.8006C14.6886 12.5164 14.599 12.4235 14.6022 12.3115C14.6182 11.62 14.4197 11.0598 13.9971 10.5989C13.5778 10.1379 12.9984 9.88821 12.2333 9.83379C12.1213 9.82419 12.038 9.72815 12.0476 9.61611C12.0572 9.50407 12.1533 9.42084 12.2653 9.43044C13.1296 9.49447 13.8115 9.79538 14.2981 10.3268C14.7878 10.8614 15.0247 11.5304 15.0087 12.3211C15.0055 12.4331 14.9127 12.5196 14.8038 12.5196Z" fill="white"/>
<path d="M15.865 12.9367C15.753 12.9367 15.6634 12.847 15.6634 12.735C15.6538 11.4961 15.2984 10.5518 14.575 9.84434C13.8611 9.14648 12.9552 8.79115 11.8892 8.78155C11.7771 8.78155 11.6875 8.68871 11.6875 8.57667C11.6875 8.46463 11.7803 8.375 11.8892 8.375C13.064 8.3846 14.0628 8.77835 14.8535 9.55303C15.6473 10.3277 16.0539 11.3969 16.0667 12.7286C16.0699 12.8438 15.9803 12.9367 15.865 12.9367C15.8682 12.9367 15.8682 12.9367 15.865 12.9367Z" fill="white"/>
<path d="M12.5934 14.6808C12.5934 14.6808 12.8783 14.7064 13.0319 14.5175L13.3296 14.143C13.4737 13.9573 13.8226 13.8389 14.1619 14.0277C14.3508 14.1334 14.6933 14.3446 14.9046 14.5015C15.1319 14.668 15.5929 15.0521 15.5961 15.0553C15.817 15.241 15.8682 15.5131 15.7177 15.8044C15.7177 15.8044 15.7177 15.8076 15.7177 15.8108C15.5641 16.0829 15.356 16.339 15.0967 16.5759C15.0935 16.5759 15.0935 16.5791 15.0903 16.5791C14.8758 16.7583 14.6645 16.8608 14.4597 16.8832C14.434 16.8896 14.4052 16.8896 14.3668 16.8896C14.2772 16.8896 14.1876 16.8768 14.0979 16.848L14.0915 16.8384C13.7714 16.7487 13.24 16.5246 12.3565 16.0349C11.7803 15.7179 11.3033 15.3946 10.8968 15.0713C10.6823 14.9016 10.4646 14.7128 10.2405 14.4887C10.2341 14.4823 10.2245 14.4727 10.2181 14.4663C10.2117 14.4599 10.2021 14.4503 10.1957 14.4439C10.1893 14.4375 10.1797 14.4279 10.1733 14.4215C10.1669 14.4151 10.1573 14.4055 10.1509 14.3991C9.93 14.175 9.73793 13.9573 9.56827 13.7428C9.24495 13.3395 8.92163 12.8593 8.60471 12.2831C8.11493 11.3964 7.89085 10.865 7.80122 10.5481L7.79162 10.5417C7.7628 10.452 7.75 10.3624 7.75 10.2728C7.75 10.2343 7.75 10.2055 7.7564 10.1799C7.78201 9.97184 7.88445 9.76377 8.06051 9.54929C8.06051 9.54609 8.06371 9.54609 8.06371 9.54289C8.3006 9.28039 8.55669 9.07552 8.82879 8.92186C8.82879 8.92186 8.832 8.92186 8.8352 8.92186C9.1233 8.77141 9.3954 8.82262 9.58427 9.04351C9.58427 9.04351 9.97161 9.50767 10.1381 9.73496C10.2949 9.94944 10.5062 10.2888 10.6118 10.4776C10.8007 10.817 10.6823 11.1659 10.4966 11.3099L10.1221 11.6076C9.9332 11.7613 9.95881 12.0462 9.95881 12.0462C9.95881 12.0462 10.5126 14.1526 12.5934 14.6808Z" fill="white"/>
</svg>
