<svg width="32" height="32" viewBox="0 0 32 32" fill="none" xmlns="http://www.w3.org/2000/svg">
<g clip-path="url(#clip0_19842_1805)">
<g clip-path="url(#clip1_19842_1805)">
<path d="M32 16C32 24.836 24.836 32 16 32C7.164 32 0 24.836 0 16C0 7.164 7.164 0 16 0C24.836 0 32 7.164 32 16Z" fill="#0077FF"/>
<path fill-rule="evenodd" clip-rule="evenodd" d="M18.6693 31.779C26.2359 30.5097 32.0026 23.9283 32.0026 16.0003C32.0026 8.07235 26.2359 1.49101 18.6693 0.22168C11.1026 1.49101 5.33594 8.07235 5.33594 16.0003C5.33594 23.9283 11.1026 30.5097 18.6693 31.779Z" fill="#FF2B42"/>
<path d="M22.6986 13.232C24.3186 14.1653 25.1253 14.632 25.3973 15.2413C25.5144 15.5042 25.5749 15.7888 25.5749 16.0766C25.5749 16.3645 25.5144 16.6491 25.3973 16.912C25.1253 17.5226 24.3146 17.9866 22.6986 18.9213L18.2666 21.4813C16.6479 22.4146 15.8413 22.8826 15.1759 22.812C14.8898 22.782 14.6131 22.6922 14.3639 22.5484C14.1147 22.4046 13.8985 22.21 13.7293 21.9773C13.3359 21.436 13.3359 20.5013 13.3359 18.636V13.516C13.3359 11.648 13.3359 10.7133 13.7293 10.176C13.8983 9.94302 14.1145 9.7482 14.3637 9.60418C14.613 9.46016 14.8897 9.37014 15.1759 9.33998C15.8386 9.26931 16.6479 9.73731 18.2666 10.672L22.6986 13.232Z" fill="white"/>
</g>
</g>
<defs>
<clipPath id="clip0_19842_1805">
<rect width="32" height="32" fill="white"/>
</clipPath>
<clipPath id="clip1_19842_1805">
<rect width="32" height="32" fill="white"/>
</clipPath>
</defs>
</svg>
