<svg width="24" height="25" viewBox="0 0 24 25" fill="none" xmlns="http://www.w3.org/2000/svg">
<rect y="0.984375" width="24" height="24" rx="12" fill="#0DC143"/>
<path d="M17.3733 7.59012C16.0868 6.26579 14.3084 5.54688 12.4922 5.54688C8.63273 5.54688 5.53003 8.68742 5.56786 12.509C5.56786 13.7198 5.9084 14.8928 6.47597 15.9523L5.49219 19.5469L9.16246 18.6009C10.1841 19.1685 11.3192 19.4334 12.4543 19.4334C16.276 19.4334 19.3787 16.2928 19.3787 12.4712C19.3787 10.6171 18.6598 8.87661 17.3733 7.59012ZM12.4922 18.2604C11.4706 18.2604 10.4489 17.9955 9.57867 17.4658L9.35165 17.3523L7.15705 17.9198L7.72462 15.7631L7.57327 15.5361C5.9084 12.8496 6.703 9.29282 9.42732 7.62796C12.1516 5.96309 15.6706 6.75769 17.3354 9.48201C19.0003 12.2063 18.2057 15.7253 15.4814 17.3901C14.6111 17.9577 13.5516 18.2604 12.4922 18.2604ZM15.8219 14.0604L15.4057 13.8712C15.4057 13.8712 14.8003 13.6063 14.4219 13.4171C14.3841 13.4171 14.3462 13.3793 14.3084 13.3793C14.1949 13.3793 14.1192 13.4171 14.0435 13.455C14.0435 13.455 14.0057 13.4928 13.476 14.0982C13.4381 14.1739 13.3625 14.2117 13.2868 14.2117H13.2489C13.2111 14.2117 13.1354 14.1739 13.0976 14.1361L12.9084 14.0604C12.4922 13.8712 12.1138 13.6442 11.8111 13.3415C11.7354 13.2658 11.6219 13.1901 11.5462 13.1144C11.2814 12.8496 11.0165 12.5469 10.8273 12.2063L10.7895 12.1307C10.7516 12.0928 10.7516 12.055 10.7138 11.9793C10.7138 11.9036 10.7138 11.828 10.7516 11.7901C10.7516 11.7901 10.903 11.6009 11.0165 11.4874C11.0922 11.4117 11.13 11.2982 11.2057 11.2226C11.2814 11.109 11.3192 10.9577 11.2814 10.8442C11.2435 10.655 10.7895 9.63336 10.676 9.40633C10.6003 9.29282 10.5246 9.25498 10.4111 9.21715H10.2976C10.2219 9.21715 10.1084 9.21715 9.99489 9.21715C9.91921 9.21715 9.84354 9.25498 9.76786 9.25498L9.73003 9.29282C9.65435 9.33066 9.57867 9.40633 9.503 9.44417C9.42732 9.51985 9.38948 9.59552 9.31381 9.6712C9.04894 10.0117 8.89759 10.428 8.89759 10.8442C8.89759 11.1469 8.97327 11.4496 9.08678 11.7144L9.12462 11.828C9.46516 12.5469 9.91921 13.1901 10.5246 13.7577L10.676 13.909C10.7895 14.0226 10.903 14.0982 10.9787 14.2117C11.7733 14.8928 12.6814 15.3847 13.703 15.6496C13.8165 15.6874 13.9679 15.6874 14.0814 15.7253C14.1949 15.7253 14.3462 15.7253 14.4598 15.7253C14.6489 15.7253 14.876 15.6496 15.0273 15.5739C15.1408 15.4982 15.2165 15.4982 15.2922 15.4226L15.3679 15.3469C15.4435 15.2712 15.5192 15.2334 15.5949 15.1577C15.6706 15.082 15.7462 15.0063 15.7841 14.9307C15.8598 14.7793 15.8976 14.5901 15.9354 14.4009C15.9354 14.3253 15.9354 14.2117 15.9354 14.1361C15.9354 14.1361 15.8976 14.0982 15.8219 14.0604Z" fill="white"/>
</svg>
