<svg width="32" height="32" viewBox="0 0 32 32" fill="none" xmlns="http://www.w3.org/2000/svg">
<g clip-path="url(#clip0_19642_19632)">
<path d="M16 0.371094C24.6318 0.371094 31.6289 7.36822 31.6289 16C31.6289 24.6318 24.6318 31.6289 16 31.6289C7.36822 31.6289 0.371094 24.6318 0.371094 16C0.371094 7.36822 7.36822 0.371094 16 0.371094Z" fill="white" stroke="#E2E6ED" stroke-width="0.741567"/>
<path d="M16.0004 4.49707C15.0774 4.49661 14.1744 4.63054 13.2912 4.89843C12.4081 5.16585 11.5828 5.55597 10.8153 6.06879C10.048 6.58161 9.37143 7.19419 8.7859 7.90791C8.20038 8.62118 7.731 9.40422 7.37776 10.2566C7.02464 11.1094 6.80277 11.9945 6.71239 12.913C6.62188 13.8318 6.66672 14.7432 6.84679 15.6484C7.02698 16.5537 7.33456 17.4131 7.76975 18.227C8.20483 19.041 8.74879 19.7739 9.40152 20.4263C11.0895 22.1146 15.0672 24.5574 15.3006 27.1234C15.3373 27.5102 15.6136 27.8231 16.0004 27.8231C16.3871 27.8231 16.6633 27.5102 16.7001 27.1234C16.9334 24.5574 20.9111 22.1146 22.5991 20.4263C23.2518 19.7739 23.7958 19.041 24.2309 18.227C24.6661 17.4131 24.9737 16.5537 25.1539 15.6484C25.3339 14.7432 25.3788 13.8318 25.2882 12.913C25.1979 11.9945 24.976 11.1094 24.6229 10.2566C24.2696 9.40422 23.8002 8.62118 23.2148 7.90791C22.6292 7.19419 21.9528 6.58161 21.1854 6.06879C20.4179 5.55597 19.5926 5.16585 18.7094 4.89843C17.8263 4.63054 16.9232 4.49661 16.0004 4.49707Z" fill="#FF4433"/>
<path d="M16 17.0928C16.4331 17.0928 16.8497 17.0099 17.2498 16.8441C17.6498 16.6783 18.003 16.4427 18.3092 16.1365C18.6154 15.8301 18.8514 15.4771 19.0171 15.0767C19.1829 14.6767 19.2657 14.2603 19.2657 13.8272C19.2657 13.3939 19.1829 12.9776 19.0171 12.5776C18.8514 12.1773 18.6154 11.8241 18.3092 11.5179C18.003 11.212 17.6498 10.976 17.2498 10.8102C16.8497 10.6444 16.4331 10.5615 16 10.5615C15.567 10.5615 15.1503 10.6444 14.7503 10.8102C14.3502 10.976 13.9971 11.212 13.6908 11.5179C13.3847 11.8241 13.1487 12.1773 12.983 12.5776C12.8172 12.9776 12.7344 13.3939 12.7344 13.8272C12.7344 14.2603 12.8172 14.6767 12.983 15.0767C13.1487 15.4771 13.3847 15.8301 13.6908 16.1365C13.9971 16.4427 14.3502 16.6783 14.7503 16.8441C15.1503 17.0099 15.567 17.0928 16 17.0928Z" fill="white"/>
</g>
<defs>
<clipPath id="clip0_19642_19632">
<rect width="32" height="32" fill="white"/>
</clipPath>
</defs>
</svg>
