<svg width="60" height="60" viewBox="0 0 60 60" fill="none" xmlns="http://www.w3.org/2000/svg">
<rect width="60" height="60" rx="10" fill="white"/>
<path d="M20.8125 30.8595C19.962 28.875 19.5 26.76 19.5 24.7725C19.5 19.3755 24.201 15 30 15C35.799 15 40.5 19.3755 40.5 24.7725C40.5 30.1275 37.149 36.375 31.92 38.61C31.3126 38.8674 30.6597 39.0001 30 39.0001C29.3403 39.0001 28.6874 38.8674 28.08 38.61C26.4105 37.896 24.9315 36.7725 23.6925 35.4" stroke="#3A64F8" stroke-width="2.5" stroke-linecap="round"/>
<path d="M33 25.5C33 26.2956 32.6839 27.0587 32.1213 27.6213C31.5587 28.1839 30.7956 28.5 30 28.5C29.2044 28.5 28.4413 28.1839 27.8787 27.6213C27.3161 27.0587 27 26.2956 27 25.5C27 24.7044 27.3161 23.9413 27.8787 23.3787C28.4413 22.8161 29.2044 22.5 30 22.5C30.7956 22.5 31.5587 22.8161 32.1213 23.3787C32.6839 23.9413 33 24.7044 33 25.5Z" stroke="#3A64F8" stroke-width="2.5"/>
<path d="M43.44 35.25C44.439 36.153 45 37.173 45 38.25C45 39.6375 44.07 40.9275 42.474 42M16.56 35.25C15.561 36.153 15 37.173 15 38.25C15 41.9775 21.7155 45 30 45C32.4795 45 34.818 44.73 36.879 44.25" stroke="#3A64F8" stroke-width="2.5" stroke-linecap="round"/>
</svg>
