<svg width="60" height="60" viewBox="0 0 60 60" fill="none" xmlns="http://www.w3.org/2000/svg">
<rect width="60" height="60" rx="10" fill="white"/>
<path d="M45 45H15" stroke="#3A64F8" stroke-width="2.5" stroke-linecap="round"/>
<path d="M43.4999 45V21C43.4999 18.171 43.4999 16.758 42.6209 15.879C41.7419 15 40.3289 15 37.4999 15H34.4999C31.6709 15 30.2579 15 29.3789 15.879C28.6709 16.5855 28.5329 17.64 28.5059 19.5" stroke="#3A64F8" stroke-width="2.5"/>
<path d="M34.5 45V25.5C34.5 22.671 34.5 21.258 33.621 20.379C32.742 19.5 31.329 19.5 28.5 19.5H22.5C19.671 19.5 18.258 19.5 17.379 20.379C16.5 21.258 16.5 22.671 16.5 25.5V45" stroke="#3A64F8" stroke-width="2.5"/>
<path d="M25.5 45V40.5" stroke="#3A64F8" stroke-width="2.5" stroke-linecap="round"/>
</svg>
