<svg width="32" height="32" viewBox="0 0 32 32" fill="none" xmlns="http://www.w3.org/2000/svg">
<rect width="32" height="32" rx="16" fill="#19AA1E"/>
<path d="M27.333 16.333C27.333 22.4081 22.4081 27.333 16.333 27.333C10.2579 27.333 5.33301 22.4081 5.33301 16.333C5.33301 10.2579 10.2579 5.33301 16.333 5.33301C22.4081 5.33301 27.333 10.2579 27.333 16.333Z" fill="white"/>
<path d="M17.0009 23.6185H15.6982C15.6636 23.0245 15.5287 21.6709 15.2655 21.0086C14.9364 20.1807 14.2359 18.5036 11.1683 18.5036C10.6196 17.3999 9.75902 14.6868 10.7068 12.6642C11.8915 10.1359 14.1755 9.07335 16.3496 9.07335C18.5236 9.07335 20.8076 10.1359 21.9923 12.6642C22.9401 14.6868 22.0795 17.3999 21.5308 18.5036C18.4632 18.5036 17.7627 20.1807 17.4336 21.0086C17.1704 21.6709 17.0355 23.0245 17.0009 23.6185Z" fill="#19AA1E"/>
</svg>
