<svg width="44" height="32" viewBox="0 0 44 32" fill="none" xmlns="http://www.w3.org/2000/svg">
<g clip-path="url(#clip0_17190_35029)">
<mask id="mask0_17190_35029" style="mask-type:alpha" maskUnits="userSpaceOnUse" x="0" y="0" width="44" height="32">
<path d="M39.824 0.335938H4.34579C2.0406 0.335938 0.171875 2.20466 0.171875 4.50985V27.4664C0.171875 29.7716 2.0406 31.6403 4.34579 31.6403H39.824C42.1292 31.6403 43.998 29.7716 43.998 27.4664V4.50985C43.998 2.20466 42.1292 0.335938 39.824 0.335938Z" fill="white"/>
</mask>
<g mask="url(#mask0_17190_35029)">
<path d="M39.824 0.335938H4.34579C2.0406 0.335938 0.171875 2.20466 0.171875 4.50985V27.4664C0.171875 29.7716 2.0406 31.6403 4.34579 31.6403H39.824C42.1292 31.6403 43.998 29.7716 43.998 27.4664V4.50985C43.998 2.20466 42.1292 0.335938 39.824 0.335938Z" fill="#002EA3"/>
<path fill-rule="evenodd" clip-rule="evenodd" d="M0.171875 21.2031H43.998V31.6379H0.171875V21.2031Z" fill="#F4A900"/>
<path fill-rule="evenodd" clip-rule="evenodd" d="M0.171875 0.335938H43.998V10.7707H0.171875V0.335938Z" fill="#DC0000"/>
<path d="M39.8274 1.38281H4.34918C2.62029 1.38281 1.21875 2.78436 1.21875 4.51325V27.4698C1.21875 29.1987 2.62029 30.6002 4.34918 30.6002H39.8274C41.5563 30.6002 42.9579 29.1987 42.9579 27.4698V4.51325C42.9579 2.78436 41.5563 1.38281 39.8274 1.38281Z" stroke="black" stroke-opacity="0.1" stroke-width="0.695652"/>
</g>
</g>
<defs>
<clipPath id="clip0_17190_35029">
<rect width="43.8261" height="31.3043" fill="white" transform="translate(0.171875 0.335938)"/>
</clipPath>
</defs>
</svg>
