<svg width="32" height="33" viewBox="0 0 32 33" fill="none" xmlns="http://www.w3.org/2000/svg">
<g clip-path="url(#clip0_17190_34927)">
<path fill-rule="evenodd" clip-rule="evenodd" d="M2.24936 3.23379C0.0672322 5.41593 0.00195136 8.88822 0 15.7042C6.10815 15.7042 9.92178 13.0818 13.267 10.7816C15.8803 8.9846 18.2077 7.38418 21.12 7.38418C25.4545 7.38418 29.2392 10.449 31.246 12.074C31.5289 12.3032 31.7766 12.5037 31.9855 12.663C31.9222 7.80338 31.5813 5.06454 29.7505 3.23379C27.5011 0.984376 23.8807 0.984376 16.6399 0.984375L15.3599 0.984375C8.11915 0.984377 4.49877 0.984377 2.24936 3.23379ZM14.4192 32.9842C14.7258 32.9844 15.0393 32.9844 15.36 32.9844H16.6399C16.9605 32.9844 17.2741 32.9844 17.5807 32.9842H14.4192Z" fill="#0077FF"/>
<path fill-rule="evenodd" clip-rule="evenodd" d="M6.11217e-05 15.7028C6.10821 15.7028 9.92185 13.0804 13.267 10.7802C15.8803 8.98323 18.2078 7.38281 21.12 7.38281C25.4545 7.38281 29.2392 10.4476 31.246 12.0727C31.529 12.3018 31.7767 12.5024 31.9856 12.6616C32 13.773 32 14.9953 32 16.343V17.623C32 24.8638 32 28.4842 29.7506 30.7336C27.6007 32.8834 24.1986 32.9786 17.5805 32.9828H14.4194C7.80137 32.9786 4.39925 32.8834 2.24942 30.7336C-9.15527e-07 28.4842 -6.39317e-07 24.8638 6.82493e-10 17.623L3.24932e-07 16.343C3.24932e-07 16.1264 3.21669e-07 15.913 6.11217e-05 15.7028Z" fill="#F45FFF"/>
<path d="M24.7969 17.2992C24.7969 16.5083 25.446 15.8672 26.2369 15.8672C27.0278 15.8672 27.6769 16.5083 27.6769 17.2992V23.0752C27.6769 23.866 27.0278 24.5072 26.2369 24.5072C25.446 24.5072 24.7969 23.866 24.7969 23.0752V17.2992Z" fill="white"/>
<path d="M19.6797 13.6195C19.6797 12.8286 20.3288 12.1875 21.1197 12.1875C21.9106 12.1875 22.5597 12.8286 22.5597 13.6195V26.7555C22.5597 27.5464 21.9106 28.1875 21.1197 28.1875C20.3288 28.1875 19.6797 27.5464 19.6797 26.7555V13.6195Z" fill="white"/>
<path d="M14.5625 17.2992C14.5625 16.5083 15.2116 15.8672 16.0025 15.8672C16.7934 15.8672 17.4425 16.5083 17.4425 17.2992V23.0752C17.4425 23.866 16.7934 24.5072 16.0025 24.5072C15.2116 24.5072 14.5625 23.866 14.5625 23.0752V17.2992Z" fill="white"/>
<path d="M9.4375 19.3773C9.4375 18.5864 10.0867 17.9453 10.8775 17.9453C11.6684 17.9453 12.3175 18.5864 12.3175 19.3773V20.9933C12.3175 21.7842 11.6684 22.4253 10.8775 22.4253C10.0867 22.4253 9.4375 21.7842 9.4375 20.9933V19.3773Z" fill="white"/>
<path d="M4.32031 19.3773C4.32031 18.5864 4.96946 17.9453 5.76031 17.9453C6.55119 17.9453 7.20031 18.5864 7.20031 19.3773V20.9933C7.20031 21.7842 6.55119 22.4253 5.76031 22.4253C4.96946 22.4253 4.32031 21.7842 4.32031 20.9933V19.3773Z" fill="white"/>
</g>
<defs>
<clipPath id="clip0_17190_34927">
<rect y="0.984375" width="32" height="32" rx="16" fill="white"/>
</clipPath>
</defs>
</svg>
