<svg width="32" height="32" viewBox="0 0 32 32" fill="none" xmlns="http://www.w3.org/2000/svg">
<g clip-path="url(#clip0_19642_19607)">
<path d="M16 0.371094C24.6318 0.371094 31.6289 7.36822 31.6289 16C31.6289 24.6318 24.6318 31.6289 16 31.6289C7.36822 31.6289 0.371094 24.6318 0.371094 16C0.371094 7.36822 7.36822 0.371094 16 0.371094Z" fill="white" stroke="#E2E6ED" stroke-width="0.741567"/>
<g clip-path="url(#clip1_19642_19607)">
<path d="M18.4852 5.70993C17.7335 5.47007 16.9135 5.33301 16.0764 5.33301C13.6676 5.33301 11.498 6.42951 10.0459 8.15992L13.7701 11.2952L18.4852 5.70993Z" fill="#1A73E8"/>
<path d="M10.0481 8.16016C8.90355 9.53078 8.20312 11.3126 8.20312 13.2315C8.20312 14.722 8.49355 15.9213 8.98897 17.0007L13.7724 11.2955L10.0481 8.16016Z" fill="#EA4335"/>
<path d="M16.0958 10.2159C17.77 10.2159 19.1196 11.5694 19.1196 13.2484C19.1196 13.9851 18.8463 14.6704 18.4021 15.2015C18.4021 15.2015 20.7767 12.3575 23.1001 9.5991C22.1434 7.74876 20.4863 6.34387 18.4875 5.70996L13.7725 11.2952C14.3362 10.6442 15.1562 10.2159 16.0958 10.2159Z" fill="#4285F4"/>
<path d="M16.0931 16.2634C14.4189 16.2634 13.0693 14.9099 13.0693 13.2309C13.0693 12.4942 13.3255 11.8089 13.7697 11.2949L8.98633 17.0001C9.80634 18.8162 11.173 20.2896 12.5739 22.1228L18.3994 15.1841C17.8356 15.8522 17.0156 16.2634 16.0931 16.2634Z" fill="#FBBC04"/>
<path d="M18.2972 24.0416C20.9281 19.9126 23.986 18.0451 23.986 13.2479C23.986 11.9287 23.6614 10.6951 23.0977 9.59863L12.5742 22.1227C13.0184 22.7052 13.4796 23.3734 13.9238 24.0587C15.5297 26.543 15.0855 28.0164 16.1105 28.0164C17.1355 28.0164 16.6914 26.5258 18.2972 24.0416Z" fill="#34A853"/>
</g>
</g>
<defs>
<clipPath id="clip0_19642_19607">
<rect width="32" height="32" fill="white"/>
</clipPath>
<clipPath id="clip1_19642_19607">
<rect width="15.7681" height="22.6667" fill="white" transform="translate(8.20312 5.33301)"/>
</clipPath>
</defs>
</svg>
