<svg width="32" height="32" viewBox="0 0 32 32" fill="none" xmlns="http://www.w3.org/2000/svg">
<g clip-path="url(#clip0_19642_19466)">
<g clip-path="url(#clip1_19642_19466)">
<path d="M16 32C24.836 32 32 24.836 32 16C32 7.164 24.836 0 16 0C7.164 0 0 7.164 0 16C0 24.836 7.164 32 16 32Z" fill="url(#paint0_linear_19642_19466)"/>
<path fill-rule="evenodd" clip-rule="evenodd" d="M23.1872 5.33301L22.3339 5.47967L12.6805 7.35967C12.4614 7.39716 12.2552 7.48883 12.0805 7.62634C11.9022 7.77899 11.7879 7.99322 11.7605 8.22634C11.7477 8.33262 11.7477 8.44006 11.7605 8.54634V20.1997C11.7927 20.4754 11.7162 20.7528 11.5472 20.973C11.3644 21.1744 11.1117 21.2984 10.8405 21.3197L10.2139 21.4397C9.60888 21.545 9.0119 21.692 8.42719 21.8797C8.03355 22.0199 7.67442 22.2427 7.37385 22.533C7.11898 22.7847 6.92333 23.09 6.8011 23.4267C6.67887 23.7634 6.63312 24.1231 6.66719 24.4797C6.72852 25.0783 7.01385 25.6303 7.46719 26.0263C7.80052 26.3223 8.20452 26.525 8.64052 26.613C9.21785 26.7023 9.80719 26.6743 10.3739 26.533C10.7699 26.4597 11.1525 26.325 11.5072 26.133C11.8539 25.933 12.1539 25.6597 12.3872 25.333C12.6157 25.0075 12.7787 24.6407 12.8672 24.253C12.9419 23.8752 12.9774 23.493 12.9739 23.1063V12.9863C12.9739 12.4397 13.1339 12.293 13.5872 12.1997L21.9739 10.5597C22.4939 10.4663 22.7339 10.5597 22.7339 11.133V18.053C22.7659 18.3248 22.6997 18.5991 22.5472 18.8263C22.3573 19.0181 22.1084 19.1402 21.8405 19.173L21.2139 19.293C20.6053 19.3805 20.0068 19.5278 19.4272 19.733C19.0272 19.8623 18.6672 20.0863 18.3739 20.3863C18.1386 20.6167 17.9542 20.8937 17.8324 21.1996C17.7106 21.5055 17.6542 21.8335 17.6667 22.1625C17.6793 22.4916 17.7606 22.8143 17.9053 23.11C18.05 23.4057 18.2551 23.6679 18.5072 23.8797C18.8325 24.177 19.2339 24.3757 19.6672 24.453C20.2485 24.5423 20.8432 24.5143 21.4139 24.373C21.8072 24.3023 22.1845 24.1663 22.5339 23.973C22.8846 23.7778 23.1892 23.5096 23.4272 23.1863C23.6539 22.861 23.8112 22.493 23.8939 22.1063C23.9708 21.7292 24.0022 21.3443 23.9872 20.9597V6.15967C24.0005 5.62634 23.7072 5.33301 23.1872 5.33301Z" fill="white"/>
</g>
</g>
<defs>
<linearGradient id="paint0_linear_19642_19466" x1="0" y1="16" x2="32" y2="16" gradientUnits="userSpaceOnUse">
<stop stop-color="#FA233B"/>
<stop offset="1" stop-color="#FB5C74"/>
</linearGradient>
<clipPath id="clip0_19642_19466">
<rect width="32" height="32" rx="16" fill="white"/>
</clipPath>
<clipPath id="clip1_19642_19466">
<rect width="32" height="32" fill="white"/>
</clipPath>
</defs>
</svg>
