<svg width="45" height="33" viewBox="0 0 45 33" fill="none" xmlns="http://www.w3.org/2000/svg">
<g clip-path="url(#clip0_17190_35004)">
<mask id="mask0_17190_35004" style="mask-type:alpha" maskUnits="userSpaceOnUse" x="0" y="0" width="45" height="33">
<path d="M40.2816 0.984375H4.24017C1.89839 0.984375 0 2.89463 0 5.25104V28.7177C0 31.0741 1.89839 32.9844 4.24017 32.9844H40.2816C42.6234 32.9844 44.5217 31.0741 44.5217 28.7177V5.25104C44.5217 2.89463 42.6234 0.984375 40.2816 0.984375Z" fill="white"/>
</mask>
<g mask="url(#mask0_17190_35004)">
<path d="M40.2816 0.984375H4.24017C1.89839 0.984375 0 2.89463 0 5.25104V28.7177C0 31.0741 1.89839 32.9844 4.24017 32.9844H40.2816C42.6234 32.9844 44.5217 31.0741 44.5217 28.7177V5.25104C44.5217 2.89463 42.6234 0.984375 40.2816 0.984375Z" fill="#EB0624"/>
<path fill-rule="evenodd" clip-rule="evenodd" d="M21.6378 21.2242C21.8435 21.2456 22.0513 21.2563 22.2611 21.2563C22.4732 21.2563 22.6788 21.2456 22.8844 21.2242L22.2611 19.6562L21.6378 21.2242ZM18.763 20.0616C17.6542 19.1784 16.9609 17.8899 16.9609 16.4563C16.9609 14.7645 17.9277 13.2776 19.3863 12.4243L21.2011 16.9896L18.763 20.0616ZM25.136 12.4243C26.5946 13.2776 27.5614 14.7645 27.5614 16.4563C27.5614 17.892 26.866 19.1805 25.7593 20.0616L23.3212 16.9896L25.136 12.4243ZM24.924 12.3048C24.1395 11.8909 23.2321 11.6562 22.2611 11.6562C21.2901 11.6562 20.3806 11.8909 19.5983 12.3048L22.2611 15.6541L24.924 12.3048Z" fill="#FFF100"/>
<path fill-rule="evenodd" clip-rule="evenodd" d="M22.2669 26.5828C27.5353 26.5828 31.8073 22.2841 31.8073 16.9828C31.8073 11.6815 27.5353 7.38281 22.2669 7.38281C16.9985 7.38281 12.7266 11.6815 12.7266 16.9828C12.7266 22.2841 16.9985 26.5828 22.2669 26.5828ZM22.2669 24.4495C26.3651 24.4495 29.6872 21.1065 29.6872 16.9828C29.6872 12.8591 26.3651 9.51615 22.2669 9.51615C18.1688 9.51615 14.8466 12.8591 14.8466 16.9828C14.8466 21.1065 18.1688 24.4495 22.2669 24.4495Z" fill="#FFF100"/>
<path d="M40.284 2.04688H4.24262C2.48629 2.04688 1.0625 3.47956 1.0625 5.24688V28.7135C1.0625 30.4809 2.48629 31.9135 4.24262 31.9135H40.284C42.0404 31.9135 43.4642 30.4809 43.4642 28.7135V5.24688C43.4642 3.47956 42.0404 2.04688 40.284 2.04688Z" stroke="black" stroke-opacity="0.1" stroke-width="0.695652"/>
</g>
</g>
<defs>
<clipPath id="clip0_17190_35004">
<rect width="44.5217" height="32" fill="white" transform="translate(0 0.984375)"/>
</clipPath>
</defs>
</svg>
