<svg width="44" height="32" viewBox="0 0 44 32" fill="none" xmlns="http://www.w3.org/2000/svg">
<g clip-path="url(#clip0_19457_7653)">
<mask id="mask0_19457_7653" style="mask-type:alpha" maskUnits="userSpaceOnUse" x="0" y="0" width="44" height="32">
<path d="M39.8095 0H4.19048C1.87614 0 0 1.91025 0 4.26667V27.7333C0 30.0898 1.87614 32 4.19048 32H39.8095C42.1239 32 44 30.0898 44 27.7333V4.26667C44 1.91025 42.1239 0 39.8095 0Z" fill="white"/>
</mask>
<g mask="url(#mask0_19457_7653)">
<path d="M39.8095 0H4.19048C1.87614 0 0 1.91025 0 4.26667V27.7333C0 30.0898 1.87614 32 4.19048 32H39.8095C42.1239 32 44 30.0898 44 27.7333V4.26667C44 1.91025 42.1239 0 39.8095 0Z" fill="#00AFCC"/>
<path fill-rule="evenodd" clip-rule="evenodd" d="M4.19043 5.3226C4.19043 4.7402 4.67652 4.2666 5.23805 4.2666C5.81633 4.2666 6.28567 4.7274 6.28567 5.3226V9.6106C6.28567 10.193 5.79957 10.6666 5.23805 10.6666C4.65976 10.6666 4.19043 10.2058 4.19043 9.6106V5.3226ZM6.28567 9.58927C6.28567 9.00687 6.77176 8.53327 7.33329 8.53327C7.91157 8.53327 8.38091 8.99407 8.38091 9.58927V13.8773C8.38091 14.4597 7.89481 14.9333 7.33329 14.9333C6.755 14.9333 6.28567 14.4725 6.28567 13.8773V9.58927ZM6.28567 18.1226C6.28567 17.5402 6.77176 17.0666 7.33329 17.0666C7.91157 17.0666 8.38091 17.5274 8.38091 18.1226V22.4106C8.38091 22.993 7.89481 23.4666 7.33329 23.4666C6.755 23.4666 6.28567 23.0058 6.28567 22.4106V18.1226ZM4.19043 22.3893C4.19043 21.8069 4.67652 21.3333 5.23805 21.3333C5.81633 21.3333 6.28567 21.7941 6.28567 22.3893V26.6773C6.28567 27.2597 5.79957 27.7333 5.23805 27.7333C4.65976 27.7333 4.19043 27.2725 4.19043 26.6773V22.3893ZM4.19043 13.8666C4.19043 13.2778 4.67652 12.7999 5.23805 12.7999C5.81633 12.7999 6.28567 13.2949 6.28567 13.8666C6.28567 14.4554 5.79957 14.9333 5.23805 14.9333C4.65976 14.9333 4.19043 14.4383 4.19043 13.8666ZM6.28567 5.33327C6.28567 4.74447 6.77176 4.2666 7.33329 4.2666C7.91157 4.2666 8.38091 4.76153 8.38091 5.33327C8.38091 5.92207 7.89481 6.39994 7.33329 6.39994C6.755 6.39994 6.28567 5.905 6.28567 5.33327ZM4.19043 15.9999C4.19043 15.4111 4.67652 14.9333 5.23805 14.9333C5.81633 14.9333 6.28567 15.4282 6.28567 15.9999C6.28567 16.5887 5.79957 17.0666 5.23805 17.0666C4.65976 17.0666 4.19043 16.5717 4.19043 15.9999ZM6.28567 26.6666C6.28567 26.0778 6.77176 25.5999 7.33329 25.5999C7.91157 25.5999 8.38091 26.0949 8.38091 26.6666C8.38091 27.2554 7.89481 27.7333 7.33329 27.7333C6.755 27.7333 6.28567 27.2383 6.28567 26.6666ZM4.19043 18.1333C4.19043 17.5445 4.67652 17.0666 5.23805 17.0666C5.81633 17.0666 6.28567 17.5615 6.28567 18.1333C6.28567 18.7221 5.79957 19.1999 5.23805 19.1999C4.65976 19.1999 4.19043 18.705 4.19043 18.1333Z" fill="#DAC21D"/>
<path d="M24.0955 19.1999C26.9884 19.1999 29.3336 16.8121 29.3336 13.8665C29.3336 10.921 26.9884 8.5332 24.0955 8.5332C21.2026 8.5332 18.8574 10.921 18.8574 13.8665C18.8574 16.8121 21.2026 19.1999 24.0955 19.1999Z" fill="#FFC600"/>
<path fill-rule="evenodd" clip-rule="evenodd" d="M16.7617 14.9336L18.857 19.2003L24.0951 21.3336L29.3331 19.2003L31.4284 14.9336V21.3336L24.0951 23.4669L16.7617 21.3336V14.9336Z" fill="#FFC600"/>
<path d="M39.8098 1.06641H4.19071C2.45496 1.06641 1.04785 2.4991 1.04785 4.26641V27.7331C1.04785 29.5004 2.45496 30.9331 4.19071 30.9331H39.8098C41.5455 30.9331 42.9526 29.5004 42.9526 27.7331V4.26641C42.9526 2.4991 41.5455 1.06641 39.8098 1.06641Z" stroke="black" stroke-opacity="0.1"/>
</g>
</g>
<defs>
<clipPath id="clip0_19457_7653">
<rect width="44" height="32" fill="white"/>
</clipPath>
</defs>
</svg>
