<svg width="32" height="32" viewBox="0 0 32 32" fill="none" xmlns="http://www.w3.org/2000/svg">
<g clip-path="url(#clip0_19642_19214)">
<mask id="mask0_19642_19214" style="mask-type:luminance" maskUnits="userSpaceOnUse" x="0" y="0" width="32" height="32">
<path d="M32 16C32 7.16344 24.8366 0 16 0C7.16344 0 0 7.16344 0 16C0 24.8366 7.16344 32 16 32C24.8366 32 32 24.8366 32 16Z" fill="white"/>
</mask>
<g mask="url(#mask0_19642_19214)">
<g filter="url(#filter0_i_19642_19214)">
<path d="M16 31.999C24.8366 31.999 32 24.8356 32 15.999C32 7.16247 24.8366 -0.000976562 16 -0.000976562C7.16344 -0.000976562 0 7.16247 0 15.999C0 24.8356 7.16344 31.999 16 31.999Z" fill="#2942F5"/>
</g>
<g filter="url(#filter1_f_19642_19214)">
<path d="M33.7754 46.2224C42.6119 46.2224 49.7754 37.4668 49.7754 26.6664C49.7754 15.8659 42.6119 7.11035 33.7754 7.11035C24.9388 7.11035 17.7754 15.8659 17.7754 26.6664C17.7754 37.4668 24.9388 46.2224 33.7754 46.2224Z" fill="#A757DC"/>
</g>
<g filter="url(#filter2_f_19642_19214)">
<path d="M23.113 12.4447C28.0224 12.4447 32.0023 8.46479 32.0023 3.55535C32.0023 -1.35409 28.0224 -5.33398 23.113 -5.33398C18.2035 -5.33398 14.2236 -1.35409 14.2236 3.55535C14.2236 8.46479 18.2035 12.4447 23.113 12.4447Z" fill="#863BE2"/>
</g>
<g filter="url(#filter3_f_19642_19214)">
<path d="M4.44368 47.9977C12.7891 47.9977 19.5543 41.2324 19.5543 32.887C19.5543 24.5416 12.7891 17.7764 4.44368 17.7764C-3.90172 17.7764 -10.667 24.5416 -10.667 32.887C-10.667 41.2324 -3.90172 47.9977 4.44368 47.9977Z" fill="#44C5FD"/>
</g>
<path fill-rule="evenodd" clip-rule="evenodd" d="M16.229 26.605C14.1357 26.605 13.1623 26.2983 11.4717 25.0717C10.401 26.4517 7.01434 27.5317 6.86634 25.685C6.86634 24.2983 6.55967 23.1263 6.21301 21.8477C5.80234 20.2717 5.33301 18.517 5.33301 15.973C5.33301 9.90234 10.2943 5.33301 16.173 5.33301C22.057 5.33301 26.6663 10.1263 26.6663 16.0303C26.6863 21.8437 22.0157 26.5743 16.229 26.605ZM16.3157 10.5823C13.453 10.4343 11.2223 12.4237 10.7277 15.545C10.3197 18.1277 11.0437 21.2743 11.6597 21.4383C11.9557 21.5103 12.6997 20.905 13.1623 20.441C13.9278 20.9723 14.8202 21.2915 15.749 21.3663C17.1781 21.4329 18.5762 20.9358 19.6424 19.982C20.7087 19.0282 21.3579 17.694 21.4503 16.2663C21.5088 14.8358 21.0037 13.4394 20.0435 12.3773C19.0834 11.3151 17.7449 10.6721 16.3157 10.5863V10.5823Z" fill="white"/>
</g>
</g>
<defs>
<filter id="filter0_i_19642_19214" x="0" y="-0.000976562" width="32" height="32" filterUnits="userSpaceOnUse" color-interpolation-filters="sRGB">
<feFlood flood-opacity="0" result="BackgroundImageFix"/>
<feBlend mode="normal" in="SourceGraphic" in2="BackgroundImageFix" result="shape"/>
<feColorMatrix in="SourceAlpha" type="matrix" values="0 0 0 0 0 0 0 0 0 0 0 0 0 0 0 0 0 0 127 0" result="hardAlpha"/>
<feOffset/>
<feGaussianBlur stdDeviation="3.95552"/>
<feComposite in2="hardAlpha" operator="arithmetic" k2="-1" k3="1"/>
<feColorMatrix type="matrix" values="0 0 0 0 1 0 0 0 0 1 0 0 0 0 1 0 0 0 0.04 0"/>
<feBlend mode="normal" in2="shape" result="effect1_innerShadow_19642_19214"/>
</filter>
<filter id="filter1_f_19642_19214" x="5.91031" y="-4.75473" width="55.7302" height="62.8425" filterUnits="userSpaceOnUse" color-interpolation-filters="sRGB">
<feFlood flood-opacity="0" result="BackgroundImageFix"/>
<feBlend mode="normal" in="SourceGraphic" in2="BackgroundImageFix" result="shape"/>
<feGaussianBlur stdDeviation="5.93254" result="effect1_foregroundBlur_19642_19214"/>
</filter>
<filter id="filter2_f_19642_19214" x="-1.59549" y="-21.1531" width="49.4166" height="49.4166" filterUnits="userSpaceOnUse" color-interpolation-filters="sRGB">
<feFlood flood-opacity="0" result="BackgroundImageFix"/>
<feBlend mode="normal" in="SourceGraphic" in2="BackgroundImageFix" result="shape"/>
<feGaussianBlur stdDeviation="7.90956" result="effect1_foregroundBlur_19642_19214"/>
</filter>
<filter id="filter3_f_19642_19214" x="-26.4861" y="1.95725" width="61.8599" height="61.8599" filterUnits="userSpaceOnUse" color-interpolation-filters="sRGB">
<feFlood flood-opacity="0" result="BackgroundImageFix"/>
<feBlend mode="normal" in="SourceGraphic" in2="BackgroundImageFix" result="shape"/>
<feGaussianBlur stdDeviation="7.90956" result="effect1_foregroundBlur_19642_19214"/>
</filter>
<clipPath id="clip0_19642_19214">
<rect width="32" height="32" fill="white"/>
</clipPath>
</defs>
</svg>
