<svg width="32" height="33" viewBox="0 0 32 33" fill="none" xmlns="http://www.w3.org/2000/svg">
<rect y="0.984375" width="32" height="32" rx="16" fill="#EE8208"/>
<path d="M15.9984 9.54709C17.2555 9.54709 18.278 10.5696 18.278 11.8267C18.278 13.0827 17.2552 14.1053 15.9984 14.1053C14.7421 14.1053 13.7193 13.0827 13.7193 11.8267C13.7191 10.5694 14.7424 9.54709 15.9984 9.54709ZM15.9984 17.3305C19.0349 17.3305 21.5043 14.8619 21.5043 11.8267C21.5043 8.78994 19.0352 6.32031 15.9984 6.32031C12.9622 6.32031 10.4925 8.7902 10.4925 11.8267C10.4925 14.8619 12.9622 17.3305 15.9984 17.3305ZM18.2258 21.8214C19.3585 21.5635 20.4394 21.1159 21.4228 20.4977C21.7849 20.2699 22.0416 19.9076 22.1366 19.4905C22.2315 19.0734 22.1569 18.6357 21.9291 18.2737C21.8164 18.0942 21.6695 17.9387 21.4967 17.8161C21.3239 17.6935 21.1287 17.6061 20.9221 17.559C20.7155 17.512 20.5017 17.506 20.2928 17.5417C20.0839 17.5773 19.8841 17.6537 19.7048 17.7666C17.4492 19.1847 14.546 19.1837 12.2923 17.7666C12.113 17.6537 11.9132 17.5772 11.7044 17.5416C11.4955 17.506 11.2817 17.5119 11.0751 17.559C10.8685 17.6061 10.6733 17.6934 10.5005 17.8161C10.3277 17.9387 10.1808 18.0942 10.0682 18.2737C9.84039 18.6356 9.76564 19.0733 9.86043 19.4903C9.95522 19.9074 10.2118 20.2698 10.5737 20.4977C11.5571 21.1157 12.6378 21.5632 13.7702 21.8214L10.6923 24.8998C10.3898 25.2024 10.2199 25.6128 10.22 26.0406C10.2201 26.4684 10.3901 26.8787 10.6927 27.1812C10.9953 27.4836 11.4056 27.6535 11.8334 27.6534C12.2613 27.6534 12.6716 27.4833 12.974 27.1808L15.9979 24.1564L19.0236 27.181C19.1732 27.3309 19.3508 27.4497 19.5464 27.5308C19.742 27.6119 19.9517 27.6536 20.1634 27.6536C20.3751 27.6536 20.5848 27.6119 20.7803 27.5308C20.9759 27.4497 21.1536 27.3309 21.3032 27.181C21.4532 27.0314 21.5723 26.8537 21.6535 26.658C21.7347 26.4624 21.7765 26.2526 21.7765 26.0407C21.7765 25.8288 21.7347 25.619 21.6535 25.4234C21.5723 25.2277 21.4532 25.05 21.3032 24.9004L18.2258 21.8214Z" fill="white"/>
</svg>
