<svg width="32" height="32" viewBox="0 0 32 32" fill="none" xmlns="http://www.w3.org/2000/svg">
<path d="M16 32C24.8366 32 32 24.8366 32 16C32 7.16344 24.8366 0 16 0C7.16344 0 0 7.16344 0 16C0 24.8366 7.16344 32 16 32Z" fill="#FFFC00"/>
<path d="M16.1712 6.66699C16.9832 6.66699 19.7379 6.89366 21.0365 9.80299C21.4712 10.7817 21.3672 12.443 21.2819 13.7803L21.2792 13.8297L21.2552 14.2483C21.3565 14.3004 21.4694 14.3256 21.5832 14.3217C21.8299 14.3083 22.1245 14.223 22.4312 14.075C22.5493 14.0155 22.6803 13.9861 22.8125 13.9897C22.9619 13.9897 23.1059 14.0137 23.2299 14.063C23.5992 14.1857 23.8325 14.4563 23.8325 14.751C23.845 15.119 23.513 15.4385 22.8365 15.7097C22.7632 15.7323 22.6659 15.771 22.5539 15.807C22.1859 15.9177 21.6205 16.1017 21.4605 16.471C21.3872 16.655 21.4112 16.9017 21.5592 17.183L21.5725 17.1963C21.6205 17.307 22.8232 20.047 25.5032 20.4897C25.6011 20.5063 25.6898 20.5576 25.7529 20.6343C25.8161 20.7109 25.8496 20.8077 25.8472 20.907C25.8472 20.9683 25.8348 21.0297 25.8099 21.091C25.6139 21.5577 24.7659 21.9017 23.2285 22.135C23.1805 22.2097 23.1299 22.4417 23.0952 22.6017C23.0712 22.7474 23.0343 22.8985 22.9845 23.055C22.9219 23.2777 22.7632 23.3883 22.5285 23.3883H22.5045C22.3939 23.3883 22.2472 23.3617 22.0632 23.327C21.4735 23.2011 20.8656 23.1844 20.2699 23.2777C19.7765 23.363 19.3485 23.6577 18.8565 24.003C18.1552 24.4937 17.3579 25.059 16.1525 25.059C16.1032 25.059 16.0552 25.047 16.0059 25.047H15.8832C14.6779 25.047 13.8912 24.4937 13.1925 23.991C12.7005 23.6457 12.2845 23.351 11.7925 23.2657C11.5401 23.227 11.2852 23.2065 11.0299 23.2043C10.5872 23.2043 10.2432 23.2777 9.98721 23.327C9.81388 23.3617 9.66588 23.387 9.54321 23.387C9.23655 23.387 9.11388 23.203 9.06588 23.043C9.01521 22.8857 8.99121 22.723 8.95388 22.5763C8.91655 22.4297 8.86854 22.1723 8.81788 22.1097C7.24454 21.9283 6.39788 21.583 6.20188 21.1043C6.17575 21.0458 6.16039 20.983 6.15654 20.919C6.15275 20.8194 6.18569 20.7218 6.24911 20.6449C6.31254 20.5679 6.40201 20.517 6.50054 20.5017C9.18054 20.059 10.3819 17.319 10.4325 17.203L10.4459 17.179C10.5925 16.8963 10.6285 16.6497 10.5432 16.467C10.3832 16.1097 9.81788 15.927 9.44988 15.803C9.35271 15.7778 9.25774 15.7448 9.16588 15.7043C8.25788 15.3483 8.13521 14.9417 8.18454 14.6603C8.25788 14.267 8.73654 14.0097 9.14188 14.0097C9.26188 14.0097 9.36454 14.0337 9.45654 14.071C9.80188 14.2297 10.1045 14.3163 10.3632 14.3163C10.4954 14.3198 10.6264 14.2905 10.7445 14.231L10.7059 13.7643C10.6259 12.4297 10.5219 10.7683 10.9592 9.79499C12.2205 6.90166 14.9672 6.67899 15.7779 6.67899L16.1219 6.66699H16.1712Z" fill="white" stroke="#6B6B6B" stroke-width="1.48313"/>
</svg>
