<svg width="32" height="33" viewBox="0 0 32 33" fill="none" xmlns="http://www.w3.org/2000/svg">
<rect y="0.984375" width="32" height="32" rx="16" fill="#419FD9"/>
<rect y="0.984375" width="32" height="32" rx="16" fill="url(#paint0_linear_17190_34900)"/>
<path d="M7.19158 16.6343C11.8444 14.5645 14.9471 13.2 16.4995 12.5407C20.932 10.6583 21.853 10.3313 22.4533 10.3204C22.5853 10.3182 22.8806 10.3516 23.0718 10.51C23.2333 10.6438 23.2777 10.8245 23.2989 10.9513C23.3202 11.0782 23.3467 11.3671 23.3256 11.5928C23.0854 14.1697 22.0461 20.4229 21.5174 23.309C21.2936 24.5302 20.8531 24.9396 20.4266 24.9797C19.4997 25.0668 18.7959 24.3543 17.8982 23.7535C16.4934 22.8133 15.6998 22.228 14.3363 21.3106C12.7605 20.2503 13.782 19.6675 14.6801 18.7152C14.9151 18.4659 18.9989 14.6733 19.0779 14.3293C19.0878 14.2863 19.097 14.1259 19.0037 14.0412C18.9103 13.9565 18.7726 13.9854 18.6732 14.0085C18.5323 14.0411 16.2882 15.5556 11.9409 18.5518C11.3039 18.9984 10.7269 19.216 10.21 19.2046C9.64013 19.192 8.54391 18.8756 7.72898 18.6051C6.72944 18.2734 5.93502 18.098 6.0042 17.5346C6.04023 17.2412 6.43602 16.9411 7.19158 16.6343Z" fill="white"/>
<defs>
<linearGradient id="paint0_linear_17190_34900" x1="16" y1="0.984375" x2="16" y2="32.7469" gradientUnits="userSpaceOnUse">
<stop stop-color="#2AABEE"/>
<stop offset="1" stop-color="#229ED9"/>
</linearGradient>
</defs>
</svg>
