<svg width="32" height="32" viewBox="0 0 32 32" fill="none" xmlns="http://www.w3.org/2000/svg">
<rect width="32" height="32" rx="16" fill="black"/>
<g clip-path="url(#clip0_19642_19324)">
<path d="M16 32C24.836 32 32 24.836 32 16C32 7.164 24.836 0 16 0C7.164 0 0 7.164 0 16C0 24.836 7.164 32 16 32Z" fill="black"/>
<path fill-rule="evenodd" clip-rule="evenodd" d="M17.08 20.3785C17.0504 21.1538 16.722 21.8875 16.1635 22.4261C15.6051 22.9647 14.8599 23.2663 14.084 23.2678C13.6083 23.2672 13.1396 23.1535 12.7165 22.936C12.2934 22.7185 11.9281 22.4036 11.6507 22.0171C12.0995 22.251 12.6 22.3677 13.1059 22.3563C13.6118 22.3449 14.1066 22.2058 14.5444 21.952C14.9822 21.6982 15.3487 21.3379 15.61 20.9045C15.8712 20.4711 16.0187 19.9788 16.0387 19.4731L16.0454 5.16113H19.616C19.616 5.46513 19.644 5.76735 19.7 6.0678H17.0867L17.08 20.3785ZM24.584 10.9251V10.1291C23.6232 10.1303 22.6829 9.85086 21.8787 9.32513C22.5842 10.1371 23.5325 10.6985 24.584 10.9251ZM13.9294 12.8505V13.6971C12.2143 13.7392 10.5836 14.4496 9.38476 15.6768C8.18595 16.904 7.51395 18.5509 7.51204 20.2665C7.50963 21.9281 8.14042 23.5282 9.27604 24.7411C8.41043 24.1356 7.70352 23.3303 7.21519 22.3936C6.72685 21.4568 6.47148 20.4162 6.4707 19.3598C6.47282 17.6171 7.16605 15.9464 8.39833 14.7141C9.63061 13.4818 11.3013 12.7886 13.044 12.7865C13.34 12.7874 13.6351 12.8087 13.9294 12.8505Z" fill="#25F4EE"/>
<path fill-rule="evenodd" clip-rule="evenodd" d="M20.6577 6.06641C20.6577 7.26641 21.091 8.42241 21.879 9.32507C21.3142 8.95798 20.8299 8.47997 20.4553 7.92004C20.0808 7.36011 19.824 6.72993 19.7004 6.06774L20.6577 6.06641ZM10.923 17.2384C11.4851 16.6756 12.2477 16.3591 13.043 16.3584C13.3453 16.3584 13.6408 16.4046 13.9297 16.4971V13.6971L13.991 13.6944L14.0844 13.6931C14.3813 13.6931 14.6768 13.7144 14.971 13.7571V17.4024C14.6843 17.311 14.3853 17.2642 14.0844 17.2637C13.2885 17.2648 12.5255 17.5815 11.9628 18.1445C11.4001 18.7074 11.0837 19.4705 11.083 20.2664C11.083 20.8944 11.283 21.5064 11.651 22.0171C11.1658 21.7632 10.7593 21.3814 10.4756 20.9129C10.1919 20.4445 10.0419 19.9074 10.0417 19.3597C10.043 18.5637 10.3604 17.7997 10.9217 17.2384H10.923ZM24.5844 13.6997V10.9251C24.9213 10.9962 25.2679 11.0326 25.6244 11.0344V14.6077C23.8419 14.6088 22.1044 14.049 20.6577 13.0077V20.2664C20.6556 22.009 19.9623 23.6796 18.73 24.9116C17.4977 26.1437 15.827 26.8366 14.0844 26.8384C13.1818 26.8384 12.2889 26.6521 11.4616 26.2912C10.6343 25.9303 9.89038 25.4026 9.27637 24.7411C10.379 25.5171 11.6947 25.933 13.043 25.9317C14.7858 25.93 16.4568 25.2369 17.6891 24.0045C18.9215 22.7722 19.6146 21.1012 19.6164 19.3584V12.1024C21.0637 13.143 22.8018 13.7018 24.5844 13.6997Z" fill="#FE2C55"/>
<path fill-rule="evenodd" clip-rule="evenodd" d="M19.6161 19.3604V12.103C21.0634 13.1436 22.8015 13.7025 24.5841 13.7004V10.9257C23.5326 10.6991 22.5829 10.1377 21.8774 9.32569C21.3128 8.95847 20.8287 8.4804 20.4545 7.92048C20.0802 7.36055 19.8235 6.73044 19.7001 6.06836H17.0867L17.0801 20.379C17.0514 21.1546 16.7233 21.889 16.1646 22.4278C15.606 22.9666 14.8602 23.2679 14.0841 23.2684C13.6084 23.2678 13.1396 23.154 12.7165 22.9366C12.2934 22.7191 11.9281 22.4042 11.6507 22.0177C11.1655 21.7638 10.759 21.382 10.4753 20.9136C10.1916 20.4451 10.0416 19.908 10.0414 19.3604C10.0421 18.5645 10.3585 17.8013 10.9212 17.2384C11.4838 16.6755 12.2468 16.3588 13.0427 16.3577C13.3521 16.3577 13.6481 16.4084 13.9294 16.4977V13.6977C12.2142 13.7398 10.5833 14.4501 9.38432 15.6772C8.1853 16.9044 7.51301 18.5513 7.51074 20.267C7.51074 21.995 8.18274 23.567 9.27607 24.7417C10.3787 25.5178 11.6944 25.9337 13.0427 25.9324C14.7856 25.9306 16.4565 25.2375 17.6888 24.0051C18.9212 22.7728 19.6143 21.1018 19.6161 19.359V19.3604Z" fill="white"/>
</g>
<defs>
<clipPath id="clip0_19642_19324">
<rect width="32" height="32" fill="white"/>
</clipPath>
</defs>
</svg>
