<svg width="45" height="32" viewBox="0 0 45 32" fill="none" xmlns="http://www.w3.org/2000/svg">
<g clip-path="url(#clip0_17190_35036)">
<mask id="mask0_17190_35036" style="mask-type:alpha" maskUnits="userSpaceOnUse" x="0" y="0" width="45" height="32">
<path d="M40.2816 0.335938H4.24017C1.89839 0.335938 0 2.20466 0 4.50985V27.4664C0 29.7716 1.89839 31.6403 4.24017 31.6403H40.2816C42.6234 31.6403 44.5217 29.7716 44.5217 27.4664V4.50985C44.5217 2.20466 42.6234 0.335938 40.2816 0.335938Z" fill="white"/>
</mask>
<g mask="url(#mask0_17190_35036)">
<path d="M40.2816 0.335938H4.24017C1.89839 0.335938 0 2.20466 0 4.50985V27.4664C0 29.7716 1.89839 31.6403 4.24017 31.6403H40.2816C42.6234 31.6403 44.5217 29.7716 44.5217 27.4664V4.50985C44.5217 2.20466 42.6234 0.335938 40.2816 0.335938Z" fill="white"/>
<path fill-rule="evenodd" clip-rule="evenodd" d="M0 21.2031H44.5217V31.6379H0V21.2031Z" fill="#007100"/>
<path fill-rule="evenodd" clip-rule="evenodd" d="M25.3748 15.3637C25.4172 15.5662 25.4384 15.7749 25.4384 15.9898C25.4384 17.7178 24.0137 19.1202 22.2582 19.1202C20.5028 19.1202 19.0781 17.7178 19.0781 15.9898C19.0781 15.7749 19.0993 15.5662 19.1417 15.3637C19.4385 16.3154 20.7191 17.0333 22.2582 17.0333C23.7974 17.0333 25.078 16.3154 25.3748 15.3637ZM22.2582 14.9463C22.8434 14.9463 23.3183 14.4789 23.3183 13.9029C23.3183 13.3269 22.8434 12.8594 22.2582 12.8594C21.6731 12.8594 21.1982 13.3269 21.1982 13.9029C21.1982 14.4789 21.6731 14.9463 22.2582 14.9463Z" fill="#F9CA00"/>
<path fill-rule="evenodd" clip-rule="evenodd" d="M0 0.335938H44.5217V10.7707H0V0.335938Z" fill="#D20200"/>
<path d="M40.284 1.38281H4.24262C2.48629 1.38281 1.0625 2.78436 1.0625 4.51325V27.4698C1.0625 29.1987 2.48629 30.6002 4.24262 30.6002H40.284C42.0404 30.6002 43.4642 29.1987 43.4642 27.4698V4.51325C43.4642 2.78436 42.0404 1.38281 40.284 1.38281Z" stroke="black" stroke-opacity="0.1" stroke-width="0.695652"/>
</g>
</g>
<defs>
<clipPath id="clip0_17190_35036">
<rect width="44.5217" height="31.3043" fill="white" transform="translate(0 0.335938)"/>
</clipPath>
</defs>
</svg>
