<svg width="45" height="32" viewBox="0 0 45 32" fill="none" xmlns="http://www.w3.org/2000/svg">
<g clip-path="url(#clip0_17190_35011)">
<mask id="mask0_17190_35011" style="mask-type:alpha" maskUnits="userSpaceOnUse" x="0" y="0" width="45" height="32">
<path d="M40.1756 0.335938H4.69735C2.39216 0.335938 0.523438 2.20466 0.523438 4.50985V27.4664C0.523438 29.7716 2.39216 31.6403 4.69735 31.6403H40.1756C42.4808 31.6403 44.3495 29.7716 44.3495 27.4664V4.50985C44.3495 2.20466 42.4808 0.335938 40.1756 0.335938Z" fill="white"/>
</mask>
<g mask="url(#mask0_17190_35011)">
<path d="M40.1756 0.335938H4.69735C2.39216 0.335938 0.523438 2.20466 0.523438 4.50985V27.4664C0.523438 29.7716 2.39216 31.6403 4.69735 31.6403H40.1756C42.4808 31.6403 44.3495 29.7716 44.3495 27.4664V4.50985C44.3495 2.20466 42.4808 0.335938 40.1756 0.335938Z" fill="#2DB771"/>
<path fill-rule="evenodd" clip-rule="evenodd" d="M4.69531 0.335938H6.78227V31.6403H4.69531V0.335938ZM8.86923 0.335938H10.9562V31.6403H8.86923V0.335938ZM13.0431 0.335938H15.1301V31.6403H13.0431V0.335938Z" fill="#D4B339"/>
<path fill-rule="evenodd" clip-rule="evenodd" d="M10.9562 0.335938L15.1301 3.46637L10.9562 6.59681V0.335938ZM10.9562 6.59681L15.1301 9.72724L10.9562 12.8577V6.59681ZM10.9562 12.8577L15.1301 15.9881L10.9562 19.1185V12.8577ZM10.9562 19.1185L15.1301 22.249L10.9562 25.3794V19.1185ZM10.9562 25.3794L15.1301 28.5098L10.9562 31.6403V25.3794ZM8.86923 0.335938L4.69531 3.46637L8.86923 6.59681V0.335938ZM8.86923 6.59681L4.69531 9.72724L8.86923 12.8577V6.59681ZM8.86923 12.8577L4.69531 15.9881L8.86923 19.1185V12.8577ZM8.86923 19.1185L4.69531 22.249L8.86923 25.3794V19.1185ZM8.86923 25.3794L4.69531 28.5098L8.86923 31.6403V25.3794ZM8.86923 0.335938H10.9562V4.50985H8.86923V0.335938ZM8.86923 27.4664H10.9562V31.6403H8.86923V27.4664ZM8.86923 10.7707H10.9562V14.9446H8.86923V10.7707ZM8.86923 6.59681H10.9562V8.68376H8.86923V6.59681ZM8.86923 23.2925H10.9562V25.3794H8.86923V23.2925ZM8.86923 17.0316H10.9562V21.2055H8.86923V17.0316Z" fill="#AE6A3E"/>
<path fill-rule="evenodd" clip-rule="evenodd" d="M23.9711 6.62297C24.1527 6.6021 24.3363 6.59375 24.5221 6.59375C27.4021 6.59375 29.7395 8.93114 29.7395 11.8111C29.7395 14.6911 27.4021 17.0285 24.5221 17.0285C21.6421 17.0285 19.3047 14.6911 19.3047 11.8111C19.3047 11.6233 19.3151 11.4418 19.3339 11.2602C19.576 13.3346 21.3374 14.9416 23.4786 14.9416C25.7847 14.9416 27.6525 13.0738 27.6525 10.7677C27.6525 8.62853 26.0456 6.86505 23.9711 6.62297ZM21.3916 8.68071H23.4786V10.7677H21.3916V8.68071Z" fill="white"/>
<path fill-rule="evenodd" clip-rule="evenodd" d="M17.2188 8.68173H19.3057V10.7687H17.2188V8.68173ZM21.3927 4.50781H23.4796V6.59477H21.3927V4.50781Z" fill="#9EE2C0"/>
<path d="M40.179 1.38281H4.70075C2.97186 1.38281 1.57031 2.78436 1.57031 4.51325V27.4698C1.57031 29.1987 2.97186 30.6002 4.70075 30.6002H40.179C41.9079 30.6002 43.3094 29.1987 43.3094 27.4698V4.51325C43.3094 2.78436 41.9079 1.38281 40.179 1.38281Z" stroke="black" stroke-opacity="0.1" stroke-width="0.695652"/>
</g>
</g>
<defs>
<clipPath id="clip0_17190_35011">
<rect width="43.8261" height="31.3043" fill="white" transform="translate(0.523438 0.335938)"/>
</clipPath>
</defs>
</svg>
