<svg width="32" height="33" viewBox="0 0 32 33" fill="none" xmlns="http://www.w3.org/2000/svg">
<g clip-path="url(#clip0_17190_34980)">
<path d="M27.2 0.984375H4.8C2.14903 0.984375 0 3.13341 0 5.78438V28.1844C0 30.8353 2.14903 32.9844 4.8 32.9844H27.2C29.851 32.9844 32 30.8353 32 28.1844V5.78438C32 3.13341 29.851 0.984375 27.2 0.984375Z" fill="#6441A4"/>
<path d="M10.0611 9.98438L9 12.5611V23.0519H12.7621V24.9844H14.8842L16.8617 23.0519H19.9003L24 19.1408V9.98438H10.0611ZM22.6013 18.4966L20.2862 20.7052H16.5241L14.4984 22.6377V20.7052H11.3633V11.3187H22.6013V18.4966ZM20.2862 13.8954V17.8065H18.8392V13.8954H20.2862ZM16.5241 13.8954V17.8065H15.1254V13.8954H16.5241Z" fill="white"/>
</g>
<defs>
<clipPath id="clip0_17190_34980">
<rect y="0.984375" width="32" height="32" rx="16" fill="white"/>
</clipPath>
</defs>
</svg>
