<svg width="45" height="33" viewBox="0 0 45 33" fill="none" xmlns="http://www.w3.org/2000/svg">
<g clip-path="url(#clip0_17190_35020)">
<mask id="mask0_17190_35020" style="mask-type:alpha" maskUnits="userSpaceOnUse" x="0" y="0" width="45" height="33">
<path d="M40.0037 0.984375H4.52548C2.22029 0.984375 0.351562 2.89463 0.351562 5.25104V28.7177C0.351562 31.0741 2.22029 32.9844 4.52548 32.9844H40.0037C42.3089 32.9844 44.1777 31.0741 44.1777 28.7177V5.25104C44.1777 2.89463 42.3089 0.984375 40.0037 0.984375Z" fill="white"/>
</mask>
<g mask="url(#mask0_17190_35020)">
<path d="M40.0037 0.984375H4.52548C2.22029 0.984375 0.351562 2.89463 0.351562 5.25104V28.7177C0.351562 31.0741 2.22029 32.9844 4.52548 32.9844H40.0037C42.3089 32.9844 44.1777 31.0741 44.1777 28.7177V5.25104C44.1777 2.89463 42.3089 0.984375 40.0037 0.984375Z" fill="#D4112A"/>
<path fill-rule="evenodd" clip-rule="evenodd" d="M0.351562 24.4531H44.1777V32.9865H0.351562V24.4531Z" fill="#20BD42"/>
<path fill-rule="evenodd" clip-rule="evenodd" d="M0.351562 0.984375H44.1777V9.51771H0.351562V0.984375Z" fill="#02A3BD"/>
<path fill-rule="evenodd" clip-rule="evenodd" d="M0.351562 11.6505H44.1777V22.3172H0.351562V11.6505ZM10.7863 9.33585C10.4608 9.45319 10.1081 9.51719 9.74287 9.51719C8.01487 9.51719 6.61243 8.08359 6.61243 6.31719C6.61243 4.55079 8.01487 3.11719 9.74287 3.11719C10.1081 3.11719 10.4608 3.18119 10.7863 3.29852C9.56965 3.73799 8.69939 4.92412 8.69939 6.31719C8.69939 7.71025 9.56965 8.89852 10.7863 9.33585Z" fill="white"/>
<path fill-rule="evenodd" clip-rule="evenodd" d="M12.875 5.25052H14.962V7.38385H12.875V5.25052ZM14.962 3.11719H17.0489V5.25052H14.962V3.11719ZM17.0489 5.25052H19.1359V7.38385H17.0489V5.25052ZM19.1359 3.11719H21.2228V5.25052H19.1359V3.11719ZM21.2228 5.25052H23.3098V7.38385H21.2228V5.25052ZM19.1359 7.38385H21.2228V9.51719H19.1359V7.38385ZM14.962 7.38385H17.0489V9.51719H14.962V7.38385Z" fill="#78CDDB"/>
<path d="M40.0071 2.04688H4.52887C2.79998 2.04688 1.39844 3.47956 1.39844 5.24688V28.7135C1.39844 30.4809 2.79998 31.9135 4.52887 31.9135H40.0071C41.736 31.9135 43.1376 30.4809 43.1376 28.7135V5.24688C43.1376 3.47956 41.736 2.04688 40.0071 2.04688Z" stroke="black" stroke-opacity="0.1" stroke-width="0.695652"/>
</g>
</g>
<defs>
<clipPath id="clip0_17190_35020">
<rect width="43.8261" height="32" fill="white" transform="translate(0.351562 0.984375)"/>
</clipPath>
</defs>
</svg>
