<svg width="32" height="33" viewBox="0 0 32 33" fill="none" xmlns="http://www.w3.org/2000/svg">
<rect y="0.984375" width="32" height="32" rx="16" fill="#675DA9"/>
<path d="M23.8386 9.1048C23.3093 8.61822 21.1667 7.06032 16.3905 7.03898C16.3905 7.03898 10.7607 6.69752 8.01628 9.21577C6.48825 10.7438 5.95045 12.9761 5.89497 15.7504C5.83948 18.5205 5.76692 23.7149 10.7736 25.1235H10.7778L10.7736 27.2704C10.7736 27.2704 10.7437 28.1411 11.3156 28.3161C12.0071 28.5295 12.4168 27.8679 13.0784 27.1551C13.4412 26.7625 13.9406 26.1905 14.3204 25.7509C17.7436 26.0369 20.3771 25.3796 20.6758 25.2814C21.3673 25.0552 25.2813 24.5558 25.9172 19.3614C26.5745 14.0175 25.5971 10.6328 23.8386 9.1048ZM24.4191 18.9857C23.8813 23.3223 20.71 23.5954 20.1252 23.7832C19.8777 23.8643 17.5643 24.4405 14.6534 24.2485C14.6534 24.2485 12.4851 26.8649 11.8107 27.5435C11.704 27.6503 11.5802 27.6929 11.4992 27.6716C11.3839 27.6417 11.3498 27.5051 11.354 27.3045C11.354 27.0143 11.3711 23.732 11.3711 23.732C11.3668 23.732 11.3668 23.732 11.3711 23.732C7.13275 22.5583 7.38031 18.1364 7.42726 15.823C7.47421 13.5096 7.90957 11.6102 9.20284 10.334C11.5205 8.23408 16.3052 8.54566 16.3052 8.54566C20.3429 8.56273 22.2764 9.77918 22.7246 10.1847C24.2142 11.4651 24.9739 14.5169 24.4191 18.9857Z" fill="white"/>
<path d="M18.3593 15.9067C18.2184 15.9067 18.0989 15.7957 18.0904 15.6506C18.0434 14.7329 17.6124 14.2848 16.7331 14.2378C16.5837 14.2293 16.4685 14.1012 16.477 13.9519C16.4855 13.8025 16.6136 13.6872 16.763 13.6958C17.9239 13.7598 18.5727 14.4256 18.6325 15.6207C18.641 15.7701 18.5258 15.8982 18.3764 15.9024C18.3678 15.9067 18.3636 15.9067 18.3593 15.9067Z" fill="white"/>
<path d="M19.7385 16.3698H19.7342C19.5848 16.3656 19.4653 16.2418 19.4696 16.0924C19.4909 15.1705 19.2263 14.4235 18.6629 13.8089C18.1037 13.1943 17.3312 12.8614 16.3111 12.7888C16.1617 12.776 16.0507 12.648 16.0635 12.4986C16.0763 12.3492 16.2044 12.2382 16.3537 12.251C17.5062 12.3364 18.4153 12.7376 19.0641 13.4461C19.7171 14.1589 20.033 15.051 20.0116 16.1052C20.0073 16.2546 19.8836 16.3698 19.7385 16.3698Z" fill="white"/>
<path d="M21.156 16.9182C21.0066 16.9182 20.8871 16.7987 20.8871 16.6493C20.8743 14.9975 20.4005 13.7383 19.4359 12.7951C18.4841 11.8646 17.2762 11.3908 15.8548 11.378C15.7054 11.378 15.5859 11.2542 15.5859 11.1048C15.5859 10.9554 15.7097 10.8359 15.8548 10.8359C17.4213 10.8487 18.753 11.3737 19.8072 12.4066C20.8657 13.4396 21.4078 14.8651 21.4249 16.6407C21.4291 16.7944 21.3096 16.9182 21.156 16.9182C21.1602 16.9182 21.1602 16.9182 21.156 16.9182Z" fill="white"/>
<path d="M16.7938 19.2462C16.7938 19.2462 17.1736 19.2804 17.3785 19.0286L17.7755 18.5292C17.9675 18.2816 18.4328 18.1237 18.8852 18.3755C19.137 18.5164 19.5937 18.7981 19.8754 19.0072C20.1785 19.2292 20.7931 19.7413 20.7974 19.7456C21.0919 19.9932 21.1602 20.356 20.9596 20.7444C20.9596 20.7444 20.9596 20.7486 20.9596 20.7529C20.7547 21.1157 20.4772 21.4572 20.1315 21.773C20.1273 21.773 20.1273 21.7773 20.123 21.7773C19.837 22.0163 19.5553 22.1529 19.2821 22.1828C19.248 22.1913 19.2096 22.1913 19.1584 22.1913C19.0389 22.1913 18.9193 22.1742 18.7998 22.1358L18.7913 22.123C18.3645 22.0035 17.6559 21.7047 16.4779 21.0517C15.7096 20.6291 15.0737 20.198 14.5316 19.767C14.2456 19.5407 13.9554 19.2889 13.6566 18.9901C13.6481 18.9816 13.6353 18.9688 13.6267 18.9603C13.6182 18.9517 13.6054 18.9389 13.5969 18.9304C13.5883 18.9218 13.5755 18.909 13.567 18.9005C13.5584 18.892 13.5456 18.8792 13.5371 18.8706C13.2426 18.5719 12.9865 18.2816 12.7603 17.9956C12.3292 17.4578 11.8981 16.8176 11.4756 16.0493C10.8225 14.867 10.5237 14.1585 10.4042 13.7359L10.3914 13.7274C10.353 13.6079 10.3359 13.4884 10.3359 13.3689C10.3359 13.3177 10.3359 13.2792 10.3445 13.2451C10.3786 12.9677 10.5152 12.6902 10.75 12.4043C10.75 12.4 10.7542 12.4 10.7542 12.3957C11.0701 12.0457 11.4115 11.7726 11.7743 11.5677C11.7743 11.5677 11.7786 11.5677 11.7829 11.5677C12.167 11.3671 12.5298 11.4354 12.7816 11.7299C12.7816 11.7299 13.2981 12.3488 13.52 12.6518C13.7292 12.9378 14.0109 13.3902 14.1517 13.642C14.4036 14.0945 14.2456 14.5597 13.9981 14.7518L13.4987 15.1487C13.2469 15.3536 13.281 15.7335 13.281 15.7335C13.281 15.7335 14.0194 18.542 16.7938 19.2462Z" fill="white"/>
</svg>
