<svg width="32" height="32" viewBox="0 0 32 32" fill="none" xmlns="http://www.w3.org/2000/svg">
<g clip-path="url(#clip0_19642_19530)">
<rect width="32" height="32" rx="16" fill="#9146FF"/>
<g clip-path="url(#clip1_19642_19530)">
<mask id="mask0_19642_19530" style="mask-type:luminance" maskUnits="userSpaceOnUse" x="0" y="0" width="32" height="32">
<path d="M32 16C32 7.16344 24.8366 0 16 0C7.16344 0 0 7.16344 0 16C0 24.8366 7.16344 32 16 32C24.8366 32 32 24.8366 32 16Z" fill="white"/>
</mask>
<g mask="url(#mask0_19642_19530)">
<mask id="mask1_19642_19530" style="mask-type:luminance" maskUnits="userSpaceOnUse" x="0" y="0" width="32" height="32">
<path d="M32 16C32 7.16344 24.8366 0 16 0C7.16344 0 0 7.16344 0 16C0 24.8366 7.16344 32 16 32C24.8366 32 32 24.8366 32 16Z" fill="white"/>
</mask>
<g mask="url(#mask1_19642_19530)">
<path d="M0 15.3586C0 8.11766 0 4.49879 2.2496 2.24939C4.4992 0 8.1184 0 15.36 0H16.64C23.8816 0 27.5008 0 29.7504 2.24939C32 4.49879 32 8.11766 32 15.3586V16.6385C32 23.8794 32 27.4983 29.7504 29.7477C27.5008 31.9971 23.8816 31.9971 16.64 31.9971H15.36C8.1184 31.9971 4.4992 31.9971 2.2496 29.7477C0 27.4983 0 23.8794 0 16.6385V15.3586Z" fill="#0077FF"/>
<path d="M27.9329 22.334C29.7761 15.4546 30.6977 12.0181 29.1009 9.29838C27.6673 6.857 24.7009 5.85549 19.0465 4.31644C13.3825 2.82217 10.3105 2.20783 7.84651 3.6061C5.10411 5.15796 4.18251 8.60084 2.33931 15.4802L2.00011 16.7505C1.15211 19.915 0.499313 22.3532 0.195312 24.3274C0.441713 26.82 0.995313 28.4998 2.24971 29.7509C4.49931 32.0003 8.11851 32.0003 15.3601 32.0003H16.6401C20.2817 32.0003 23.0049 32.0003 25.1009 31.7155C25.9361 29.7861 26.6433 27.1527 27.5937 23.6075L27.9329 22.3372V22.334Z" fill="#D357FF"/>
<path fill-rule="evenodd" clip-rule="evenodd" d="M11.7468 6.499C12.5756 6.44781 13.2892 7.07815 13.3404 7.90687L13.6444 12.8664C13.6956 13.6951 13.0652 14.4087 12.2364 14.4599C11.4076 14.5111 10.694 13.8807 10.6428 13.052L10.3388 8.09246C10.2876 7.26373 10.918 6.5502 11.7468 6.499Z" fill="white"/>
<path fill-rule="evenodd" clip-rule="evenodd" d="M19.1474 6.86669C19.9506 7.07787 20.4274 7.90339 20.2162 8.70652L18.8338 13.922C18.6226 14.7252 17.797 15.2019 16.9938 14.9907C16.1906 14.7796 15.7138 13.954 15.925 13.1509L17.3074 7.93219C17.5186 7.12907 18.3442 6.65231 19.1474 6.86349V6.86669Z" fill="white"/>
<path fill-rule="evenodd" clip-rule="evenodd" d="M22.5713 16.5039C22.1425 15.7904 21.2209 15.56 20.5073 15.9888C19.7937 16.4176 19.5633 17.3391 19.9921 18.0526C20.3153 18.5902 20.5777 19.5821 20.5777 20.318C20.5777 22.9322 18.4561 25.0536 15.8417 25.0536C13.2273 25.0536 11.1057 22.9322 11.1057 20.318C11.1057 19.3165 11.6561 18.8365 12.1873 18.7693C12.5649 18.7213 12.8145 18.8045 13.0001 18.9229C13.2049 19.0509 13.3937 19.2685 13.5377 19.5501C13.9089 20.2924 14.8113 20.5932 15.5569 20.222C16.2993 19.8508 16.6001 18.9485 16.2289 18.203C15.5441 16.8367 14.0529 15.5024 11.8161 15.784C9.46726 16.0784 8.09766 18.1326 8.09766 20.3148C8.09766 24.5928 11.5633 28.0581 15.8417 28.0581C20.1201 28.0581 23.5857 24.5928 23.5857 20.3148C23.5857 19.1021 23.2081 17.5631 22.5713 16.5007V16.5039Z" fill="white"/>
</g>
</g>
</g>
</g>
<defs>
<clipPath id="clip0_19642_19530">
<rect width="32" height="32" rx="16" fill="white"/>
</clipPath>
<clipPath id="clip1_19642_19530">
<rect width="32" height="32" fill="white"/>
</clipPath>
</defs>
</svg>
