<svg width="32" height="32" viewBox="0 0 32 32" fill="none" xmlns="http://www.w3.org/2000/svg">
<g clip-path="url(#clip0_19642_19507)">
<path d="M32 16C32 24.836 24.836 32 16 32C7.164 32 0 24.836 0 16C0 7.164 7.164 0 16 0C24.836 0 32 7.164 32 16Z" fill="#0077FF"/>
<path fill-rule="evenodd" clip-rule="evenodd" d="M18.6663 31.779C26.233 30.5097 31.9997 23.9283 31.9997 16.0003C31.9997 8.07235 26.233 1.49101 18.6663 0.22168C11.0997 1.49101 5.33301 8.07235 5.33301 16.0003C5.33301 23.9283 11.0997 30.5097 18.6663 31.779Z" fill="#FF2B42"/>
<path d="M22.6957 13.232C24.3157 14.1653 25.1223 14.632 25.3943 15.2413C25.5114 15.5042 25.5719 15.7888 25.5719 16.0766C25.5719 16.3645 25.5114 16.6491 25.3943 16.912C25.1223 17.5226 24.3117 17.9866 22.6957 18.9213L18.2637 21.4813C16.645 22.4146 15.8383 22.8826 15.173 22.812C14.8869 22.782 14.6102 22.6922 14.361 22.5484C14.1118 22.4046 13.8955 22.21 13.7263 21.9773C13.333 21.436 13.333 20.5013 13.333 18.636V13.516C13.333 11.648 13.333 10.7133 13.7263 10.176C13.8954 9.94302 14.1116 9.7482 14.3608 9.60418C14.61 9.46016 14.8867 9.37014 15.173 9.33998C15.8357 9.26931 16.645 9.73731 18.2637 10.672L22.6957 13.232Z" fill="white"/>
</g>
<defs>
<clipPath id="clip0_19642_19507">
<rect width="32" height="32" fill="white"/>
</clipPath>
</defs>
</svg>
