<svg width="32" height="33" viewBox="0 0 32 33" fill="none" xmlns="http://www.w3.org/2000/svg">
<rect y="0.984375" width="32" height="32" rx="16" fill="#0DC143"/>
<path d="M23.1618 9.79464C21.4464 8.02887 19.0753 7.07031 16.6536 7.07031C11.5077 7.07031 7.37076 11.2577 7.42121 16.3532C7.42121 17.9676 7.87527 19.5316 8.63202 20.9442L7.32031 25.737L12.214 24.4757C13.5762 25.2325 15.0897 25.5856 16.6032 25.5856C21.6987 25.5856 25.8356 21.3982 25.8356 16.3027C25.8356 13.8307 24.8771 11.51 23.1618 9.79464ZM16.6536 24.0217C15.2915 24.0217 13.9293 23.6685 12.769 22.9622L12.4663 22.8109L9.54013 23.5676L10.2969 20.6919L10.0951 20.3892C7.87527 16.8073 8.93473 12.0649 12.5672 9.84509C16.1996 7.62527 20.8915 8.68473 23.1113 12.3172C25.3311 15.9496 24.2717 20.6415 20.6392 22.8613C19.4789 23.6181 18.0663 24.0217 16.6536 24.0217ZM21.0933 18.4217L20.5383 18.1694C20.5383 18.1694 19.7311 17.8163 19.2266 17.564C19.1762 17.564 19.1257 17.5136 19.0753 17.5136C18.9239 17.5136 18.823 17.564 18.7221 17.6145C18.7221 17.6145 18.6717 17.6649 17.9654 18.4721C17.9149 18.573 17.814 18.6235 17.7131 18.6235H17.6627C17.6122 18.6235 17.5113 18.573 17.4609 18.5226L17.2086 18.4217C16.6536 18.1694 16.1491 17.8667 15.7455 17.4631C15.6446 17.3622 15.4933 17.2613 15.3924 17.1604C15.0392 16.8073 14.6861 16.4036 14.4338 15.9496L14.3834 15.8487C14.3329 15.7982 14.3329 15.7478 14.2825 15.6469C14.2825 15.546 14.2825 15.4451 14.3329 15.3946C14.3329 15.3946 14.5347 15.1424 14.6861 14.991C14.787 14.8901 14.8374 14.7388 14.9383 14.6379C15.0392 14.4865 15.0897 14.2847 15.0392 14.1334C14.9888 13.8811 14.3834 12.519 14.232 12.2163C14.1311 12.0649 14.0302 12.0145 13.8789 11.964H13.7275C13.6266 11.964 13.4753 11.964 13.3239 11.964C13.223 11.964 13.1221 12.0145 13.0212 12.0145L12.9708 12.0649C12.8699 12.1154 12.769 12.2163 12.6681 12.2667C12.5672 12.3676 12.5167 12.4685 12.4158 12.5694C12.0627 13.0235 11.8609 13.5784 11.8609 14.1334C11.8609 14.537 11.9618 14.9406 12.1131 15.2937L12.1636 15.4451C12.6176 16.4036 13.223 17.2613 14.0302 18.0181L14.232 18.2199C14.3834 18.3712 14.5347 18.4721 14.6356 18.6235C15.6951 19.5316 16.9059 20.1874 18.2681 20.5406C18.4194 20.591 18.6212 20.591 18.7726 20.6415C18.9239 20.6415 19.1257 20.6415 19.2771 20.6415C19.5293 20.6415 19.832 20.5406 20.0338 20.4397C20.1852 20.3388 20.2861 20.3388 20.387 20.2379L20.4879 20.137C20.5888 20.0361 20.6897 19.9856 20.7906 19.8847C20.8915 19.7838 20.9924 19.6829 21.0428 19.582C21.1437 19.3802 21.1942 19.128 21.2446 18.8757C21.2446 18.7748 21.2446 18.6235 21.2446 18.5226C21.2446 18.5226 21.1942 18.4721 21.0933 18.4217Z" fill="white"/>
</svg>
