<svg width="33" height="33" viewBox="0 0 33 33" fill="none" xmlns="http://www.w3.org/2000/svg">
<g clip-path="url(#clip0_17190_34958)">
<path d="M0.0546875 16.9844C0.0546875 9.94038 0.0546875 6.41771 2.01402 4.05704C2.34989 3.65229 2.7226 3.27958 3.12735 2.94371C5.48802 0.984375 9.01069 0.984375 16.0547 0.984375C23.0987 0.984375 26.6214 0.984375 28.982 2.94371C29.3868 3.2796 29.7595 3.65231 30.0954 4.05704C32.0547 6.41771 32.0547 9.94038 32.0547 16.9844C32.0547 24.0284 32.0547 27.551 30.0954 29.9117C29.7594 30.3164 29.3867 30.6891 28.982 31.025C26.6214 32.9844 23.0987 32.9844 16.0547 32.9844C9.01069 32.9844 5.48802 32.9844 3.12735 31.025C2.72262 30.6892 2.34991 30.3164 2.01402 29.9117C0.0546875 27.551 0.0546875 24.0284 0.0546875 16.9844Z" fill="#FFE033"/>
<path d="M24.5532 23.3485C22.6305 25.0459 20.1225 26.0699 17.3852 26.0699C11.6439 26.0699 7.34185 21.6232 7.34185 16.5405C7.34185 11.7605 11.1525 7.85852 15.8779 7.85852C20.3365 7.85852 23.5539 11.3159 23.5539 15.0585C23.5539 18.5679 20.7859 21.4139 17.3852 21.4139C14.2739 21.4139 12.0779 19.0565 12.0779 16.5405C12.0779 14.2819 13.8245 12.5139 15.8792 12.5139C17.6979 12.5139 18.8192 13.8399 18.8192 15.0585C18.8192 16.1172 18.0752 16.7559 17.3859 16.7559C17.1412 16.7559 17.0479 16.7045 16.9499 16.6439C17.1725 16.3572 17.2832 15.9859 17.2265 15.5979C17.2008 15.4203 17.1404 15.2496 17.0486 15.0955C16.9569 14.9414 16.8357 14.8069 16.6919 14.6996C16.5481 14.5924 16.3846 14.5145 16.2107 14.4705C16.0368 14.4265 15.856 14.4172 15.6785 14.4432C15.0399 14.5385 14.6345 14.9725 14.4339 15.2945C14.2033 15.669 14.0827 16.1008 14.0859 16.5405C14.0859 18.3365 15.7592 19.4972 17.3859 19.4972C19.7599 19.4992 21.5459 17.4252 21.5459 15.0585C21.5459 12.1625 19.0359 9.77319 15.8792 9.77319C12.2125 9.77319 9.35119 12.8772 9.35119 16.5399C9.35119 20.6919 12.8905 24.1532 17.3865 24.1532C22.3572 24.1532 26.2819 20.0145 26.2819 15.0572C26.2819 9.72785 21.7699 5.11719 15.8792 5.11719C9.61252 5.11719 4.61719 10.2839 4.61719 16.5405C4.61719 23.2205 10.2252 28.8112 17.3865 28.8112C20.8125 28.8112 23.9552 27.5245 26.3532 25.4085L24.5532 23.3485Z" fill="black"/>
</g>
<defs>
<clipPath id="clip0_17190_34958">
<rect x="0.0546875" y="0.984375" width="32" height="32" rx="16" fill="white"/>
</clipPath>
</defs>
</svg>
