<svg width="32" height="33" viewBox="0 0 32 33" fill="none" xmlns="http://www.w3.org/2000/svg">
<g clip-path="url(#clip0_17190_34943)">
<path d="M16 2.98438C9.3724 2.98438 4 8.35677 4 14.9844C4 18.297 5.3422 21.2964 7.513 23.4678C9.6844 25.6404 14.8 28.7844 15.1 32.0844C15.145 32.5792 15.5032 32.9844 16 32.9844C16.4968 32.9844 16.855 32.5792 16.9 32.0844C17.2 28.7844 22.3156 25.6404 24.487 23.4678C26.6578 21.2964 28 18.297 28 14.9844C28 8.35677 22.6276 2.98438 16 2.98438Z" fill="#FF4433"/>
<path d="M15.9969 19.1813C18.3165 19.1813 20.1968 17.3008 20.1968 14.9813C20.1968 12.6617 18.3165 10.7812 15.9969 10.7812C13.6773 10.7812 11.7969 12.6617 11.7969 14.9813C11.7969 17.3008 13.6773 19.1813 15.9969 19.1813Z" fill="white"/>
</g>
<defs>
<clipPath id="clip0_17190_34943">
<rect width="32" height="32" fill="white" transform="translate(0 0.984375)"/>
</clipPath>
</defs>
</svg>
