<svg width="36" height="31" viewBox="0 0 36 31" fill="none" xmlns="http://www.w3.org/2000/svg">
<path d="M19.0547 30.9844C10.7797 30.9844 4.05469 24.2854 4.05469 16.0114C4.05469 7.73638 10.7797 0.984375 19.0547 0.984375C27.3287 0.984375 34.0547 7.73638 34.0547 16.0114C34.0547 24.2854 27.3287 30.9844 19.0547 30.9844Z" fill="#FF5226"/>
<path d="M16.734 3.01562L0 29.1256H7.671L17.338 14.0756L17.102 13.9686L14.422 24.7386L20.096 25.7386L25.928 18.4086L25.612 18.2516L23.642 26.5776L36.005 24.2216L33.483 20.0676L29.027 21.0876L29.553 21.6926L31.628 12.9976L26.794 9.76562L20.464 17.7256L20.779 17.8836L23.379 7.45362L16.734 3.01562Z" fill="#FFDD00"/>
<path d="M16.734 3.01562L0 29.1256H7.671L17.338 14.0756L17.102 13.9686L14.422 24.7386L20.096 25.7386L25.928 18.4086L25.612 18.2516L23.642 26.5776L28.612 25.6306L31.628 12.9976L26.794 9.76562L20.464 17.7256L20.779 17.8836L23.379 7.45362L16.734 3.01562Z" fill="#FFDD00"/>
</svg>
