<svg width="33" height="33" viewBox="0 0 33 33" fill="none" xmlns="http://www.w3.org/2000/svg">
<path d="M31.7517 13.1816L31.6269 12.5611L26.35 11.6392L29.4163 7.49075L29.0598 7.10072L24.5494 9.2636L25.1199 3.51956L24.6564 3.25363L21.911 7.8985L18.8269 0.984375H18.2921L19.023 7.66803L11.2681 1.46305L10.6084 1.65806L16.5807 9.15723L4.76116 5.2215L4.22632 5.82426L14.7801 11.8342L0.215127 13.0398L0.0546875 13.9439L15.1901 15.5927L2.56843 26.0348L3.10327 26.7617L18.1316 18.5887L15.1545 32.9844H16.0637L21.8218 19.4398L25.3338 30.0414L25.9578 29.5627L24.5137 18.7838L29.9868 24.9887L30.3433 24.4215L26.1539 16.7274L32.0013 18.8901L32.0547 18.2343L26.8135 14.3694L31.7517 13.1816Z" fill="#FFBC0D"/>
</svg>
