<svg width="32" height="33" viewBox="0 0 32 33" fill="none" xmlns="http://www.w3.org/2000/svg">
<rect y="0.984375" width="32" height="32" rx="16" fill="#FF0000"/>
<path d="M16 9.98438C16.0188 9.98438 22.2625 9.9854 23.8252 10.4131C24.6819 10.6437 25.3573 11.3191 25.5879 12.1758C26.0162 13.7409 26 17.0029 26 17.0029C26 17.0472 25.9969 20.2592 25.5879 21.8135C25.3571 22.6699 24.6817 23.3456 23.8252 23.5762C22.2622 23.9874 16.0188 23.9873 16 23.9873C16 23.9873 9.75675 23.9878 8.1748 23.5596C7.31827 23.329 6.64285 22.6534 6.41211 21.7969C6.00266 20.2574 6.00001 17.0242 6 16.9863C6 16.9863 6.00031 13.7409 6.41211 12.1758C6.64275 11.3191 7.33461 10.6271 8.1748 10.3965C9.74006 9.98465 16 9.98438 16 9.98438ZM14.0049 19.9863L19.2109 16.9883L14.0049 13.9893V19.9863Z" fill="white"/>
</svg>
