<svg width="32" height="32" viewBox="0 0 32 32" fill="none" xmlns="http://www.w3.org/2000/svg">
<g clip-path="url(#clip0_19457_7537)">
<rect width="32" height="32" rx="16" fill="#F4F4F4"/>
<path fill-rule="evenodd" clip-rule="evenodd" d="M14.493 24.438C14.5492 24.708 14.5774 24.8431 14.4924 24.938C14.4075 25.0328 14.2658 25.0203 13.9825 24.9952C12.3968 24.8547 11.51 24.5656 10.8164 24.2797C9.66264 23.8043 8.74599 22.8923 8.26809 21.7444C7.98071 21.0544 7.68997 20.1721 7.54878 18.5946C7.52356 18.3128 7.51095 18.1719 7.60629 18.0874C7.70165 18.0029 7.83739 18.0309 8.10888 18.0868C11.3097 18.7458 13.8306 21.2537 14.493 24.438ZM17.558 25.0533C17.3377 25.0635 17.2276 25.0686 17.1519 25.0063C17.0762 24.9439 17.06 24.83 17.0276 24.6021C16.3629 19.9259 12.6443 16.2265 7.94388 15.5652C7.71483 15.5331 7.60032 15.5169 7.53763 15.4416C7.47494 15.3663 7.48008 15.2567 7.49035 15.0376C7.53339 14.1198 7.62063 13.3987 7.73278 12.8106C7.76971 12.6171 7.78812 12.5204 7.86506 12.4617C7.94191 12.4031 8.04157 12.4105 8.24079 12.4254C14.6157 12.9021 19.7046 17.9649 20.1837 24.3068C20.1988 24.505 20.2062 24.6042 20.1473 24.6807C20.0883 24.7571 19.9911 24.7756 19.7965 24.8122C19.2054 24.9237 18.4805 25.0105 17.558 25.0533ZM23.2726 23.1123C23.0217 23.3852 22.8964 23.5217 22.7437 23.4763C22.591 23.4309 22.5584 23.2291 22.4929 22.8255C21.4386 16.3168 16.2724 11.1771 9.73007 10.1281C9.32431 10.0631 9.12133 10.0306 9.07578 9.87868C9.03017 9.72681 9.16735 9.60206 9.44164 9.35264C9.84183 8.98872 10.3059 8.69283 10.8164 8.48255C11.7827 8.08431 13.124 7.67955 16.2075 7.67955C19.2911 7.67955 20.6326 8.08431 21.5988 8.48255C22.7526 8.95799 23.6693 9.86993 24.1473 11.0178C24.5474 11.979 24.9542 13.3134 24.9542 16.3812C24.9542 19.4489 24.5474 20.7834 24.1473 21.7444C23.9358 22.2524 23.6384 22.7141 23.2726 23.1123ZM4.99121 16.3812C4.99121 13.0537 5.43999 11.3899 5.98642 10.0775C6.71498 8.32769 8.11243 6.93746 9.8714 6.2126C11.1906 5.66908 12.8628 5.22266 16.2075 5.22266C19.5522 5.22266 21.2248 5.66908 22.5439 6.2126C24.3029 6.93746 25.7003 8.32769 26.4289 10.0775C26.9753 11.3899 27.4238 13.0537 27.4238 16.3812C27.4238 19.7086 26.9753 21.3724 26.4289 22.6847C25.7003 24.4345 24.3029 25.8248 22.5439 26.5496C21.2248 27.0932 19.5522 27.5396 16.2075 27.5396C12.8628 27.5396 11.1906 27.0932 9.8714 26.5496C8.11243 25.8248 6.71498 24.4345 5.98642 22.6847C5.43999 21.3724 4.99121 19.7086 4.99121 16.3812Z" fill="#162936"/>
</g>
<defs>
<clipPath id="clip0_19457_7537">
<rect width="32" height="32" rx="16" fill="white"/>
</clipPath>
</defs>
</svg>
