<svg width="48" height="48" viewBox="0 0 48 48" fill="none" xmlns="http://www.w3.org/2000/svg">
<g clip-path="url(#clip0_19693_17950)">
<mask id="mask0_19693_17950" style="mask-type:luminance" maskUnits="userSpaceOnUse" x="0" y="0" width="48" height="48">
<path d="M38.3993 47.9966H9.60068C4.29745 47.9966 0 43.6992 0 38.3993V9.60068C0 4.29745 4.29745 0 9.60068 0H38.3993C43.7026 0 48 4.29745 48 9.60068V38.3993C47.9966 43.6992 43.6992 47.9966 38.3993 47.9966Z" fill="white"/>
</mask>
<g mask="url(#mask0_19693_17950)">
<path d="M47.9966 0H0V47.9966H47.9966V0Z" fill="#005BFF"/>
</g>
<mask id="mask1_19693_17950" style="mask-type:luminance" maskUnits="userSpaceOnUse" x="0" y="0" width="48" height="48">
<path d="M38.3993 0H9.60068C4.29745 0 0 4.29745 0 9.60068V38.3993C0 43.6992 4.29745 47.9966 9.60068 47.9966H38.3993C43.6992 47.9966 47.9966 43.6992 48 38.3993V9.60068C48 4.29745 43.7026 0 38.3993 0Z" fill="white"/>
</mask>
<g mask="url(#mask1_19693_17950)">
<path d="M53.3052 41.1208C49.6582 44.4013 45.4539 49.243 40.1727 49.0523C38.7511 48.0943 40.9994 46.2266 41.72 45.4183C44.0218 42.8361 46.2931 40.0798 48.5306 37.2704C56.5799 27.1641 53.9449 32.7975 53.3055 41.1208H53.3052Z" fill="#F1117E"/>
<path d="M43.9461 -8.58474C40.3533 -0.370832 35.9486 7.7889 29.7333 14.3522C25.4325 18.8935 22.4382 22.2851 17.1319 26.3665C10.9936 31.0879 4.98798 34.768 -0.826274 39.7746C-3.89883 42.6033 -7.52135 44.9427 -11.4297 46.6044C-11.4056 46.9231 -11.0772 51.5321 -11.067 51.593C-11.0128 51.5626 -9.92575 50.6889 -9.70902 50.5297C-0.536052 44.1502 10.0111 39.8629 18.9907 33.0311C30.0398 23.7365 39.2944 12.2445 47.1971 0.200129C54.3896 -9.84181 59.1067 -10.0111 43.9461 -8.58474Z" fill="#F1117E"/>
<path d="M8.7803 2.53873C6.63666 4.80768 4.54382 7.08001 2.44758 9.39636C1.30634 10.6629 0.276847 12.0277 -0.850851 13.3145C-2.86581 15.6139 -4.95188 17.8863 -7.33258 19.7658C-9.74714 21.669 -12.3446 23.5925 -14.8065 25.4347C-14.8133 25.2959 -15.1046 18.8413 -15.1113 18.6956C-14.0683 16.9279 -13.0185 14.9265 -12.243 13.0064C-11.7858 11.8719 -11.3828 10.6798 -10.9222 9.54537C-10.0418 7.36108 -8.88697 5.36306 -7.18696 3.77141C-6.23874 2.88077 -5.1483 2.25088 -4.02737 1.65148C-0.664595 -0.150132 2.6948 -1.98222 6.06435 -3.76689C8.07253 -4.83364 9.59306 -6.69282 11.3845 -8.09821L18.4927 -8.41992C15.2654 -4.74559 12.1431 -1.02046 8.7803 2.53873Z" fill="#F1117E"/>
<path d="M24.3672 54.1987C27.0422 51.4828 36.4147 45.1738 34.9212 44.3089C34.7868 44.231 34.6205 44.2313 34.4806 44.2987C29.3335 46.7871 24.5281 50.3226 20.9117 54.8053C20.8182 54.9211 20.678 54.9881 20.5293 54.9864C19.6824 54.9776 16.9447 54.9472 15.1885 54.9275C14.7192 54.9224 14.5312 54.3193 14.9146 54.0484C15.2119 53.8381 15.4581 53.6596 15.5969 53.5563C19.8385 50.2863 24.563 47.8322 29.1405 45.1643C34.6283 41.9658 39.3866 37.6538 43.1107 32.508C44.8236 30.1412 46.57 27.8038 48.6158 25.7327C48.6378 25.7103 48.6622 25.6903 48.6879 25.6727C54.3992 21.7911 55.979 10.1833 63.857 6.08125C64.1825 5.91192 64.5705 6.14796 64.5675 6.51505C64.5414 9.50125 60.5951 11.929 60.3361 14.9935C60.3334 15.0236 60.3286 15.0537 60.3205 15.0829C57.2578 26.219 46.4647 33.7725 41.343 39.5864C38.3006 43.04 34.6926 49.9104 30.5459 54.4978C30.5002 54.5482 30.4663 54.6075 30.445 54.6722C30.2377 55.3041 26.5254 55.0857 24.6964 55.021C24.2761 55.0061 24.0723 54.4985 24.3672 54.1987Z" fill="#F1117E"/>
<path d="M-13.443 56.318C-3.17419 49.2321 9.10079 45.5442 19.159 38.2399C24.9851 33.2273 29.4417 26.6805 35.3504 21.8067C36.9834 20.8229 36.5252 22.3157 35.9949 23.2832C30.0601 35.1863 18.2104 42.0162 7.1688 48.5453C-0.794169 53.6372 -2.38006 57.8819 -13.4434 56.318H-13.443Z" fill="#F1117E"/>
<path d="M57.2921 7.50474C66.2064 3.07861 63.8931 -1.59643 62.7386 -10.5293C58.0798 -7.22037 55.1499 -3.47864 51.5917 0.887212C41.0672 13.067 37.3383 30.8914 23.0768 40.0072C15.7535 44.2674 9.83465 50.3261 3.57812 55.9409C4.99232 55.4434 12.9241 56.2735 13.3248 54.0919C15.1951 50.9299 17.2361 48.4202 20.6738 46.9302C27.1223 43.5447 32.6863 38.7376 38.3441 34.2C46.1076 26.5205 46.1137 12.0379 57.2925 7.50508L57.2921 7.50474Z" fill="#F1117E"/>
<path d="M42.9017 -8.55446C37.2358 1.70895 26.8522 12.1986 16.3517 20.0528C12.2629 23.1112 7.51572 25.1624 2.49323 26.0838C-1.33858 26.7865 -3.00879 27.9041 -8.48507 32.5043C-10.3785 34.4779 -11.3978 36.31 -13.0335 39.4628C-13.0368 39.3544 -13.4805 29.6285 -13.4805 29.6285C-9.1241 23.6936 -2.46323 21.1196 2.58195 16.0626C6.74259 11.718 9.64616 6.2702 13.4834 1.64562C15.3995 -0.789598 21.4728 -6.28281 22.6164 -7.63707C22.6299 -7.63707 28.9017 -7.92119 28.9017 -7.92119C26.0347 -4.28987 23.1145 -0.824479 17.0568 6.34437C16.328 7.2069 10.3079 13.4052 8.10734 16.8154C7.39076 17.9258 6.90548 19.0548 7.4463 19.4761C8.01895 19.9225 8.82561 19.1801 10.1297 18.3654C17.6135 13.6896 22.8453 9.2757 28.9054 1.7269C38.7157 -10.4925 31.196 -9.40616 42.9014 -8.5548L42.9017 -8.55446Z" fill="#F1117E"/>
<path d="M20.1181 27.6528L15.883 28.7876L19.3727 20.1799C19.4493 19.9879 19.3558 19.7701 19.1635 19.6932C19.0893 19.6638 19.0077 19.6587 18.9305 19.6787L11.106 21.7752C10.4155 21.9601 10.0054 22.6703 10.1906 23.3608C10.3755 24.0513 11.0857 24.4614 11.7762 24.2762L15.2947 23.3334L11.7857 31.9499C11.7061 32.1389 11.7948 32.3563 11.9834 32.4356C12.0607 32.4681 12.147 32.4735 12.2276 32.4508L20.789 30.1568C21.469 29.936 21.8415 29.2059 21.6207 28.5259C21.4162 27.8953 20.768 27.5211 20.1198 27.6593L20.1181 27.6525V27.6528ZM45.3884 12.5894C44.6975 12.7747 44.2878 13.4845 44.473 14.175L45.597 18.3695L37.4 14.817C37.2131 14.7331 36.9936 14.8164 36.9096 15.0033C36.8741 15.0822 36.8673 15.1709 36.8903 15.2542L39.2006 23.8762C39.3855 24.5667 40.0956 24.9765 40.7862 24.7916C41.4767 24.6067 41.8868 23.8965 41.7015 23.206L40.5775 19.0115L48.7755 22.5673C48.9659 22.6486 49.1856 22.5599 49.2666 22.3699C49.2994 22.293 49.3055 22.2077 49.2839 22.1268L46.9736 13.5048C46.7887 12.8143 46.0785 12.4042 45.388 12.5894M29.6419 25.3544C26.7824 26.1204 24.2391 25.1865 23.8778 23.838C23.5164 22.4895 25.252 20.4088 28.1116 19.6424C30.9711 18.8764 33.5144 19.8104 33.8757 21.1589C34.237 22.5074 32.5082 24.5864 29.6423 25.3544M27.4421 17.1446C23.3017 18.254 20.5875 21.5497 21.3799 24.5071C22.1724 27.4645 26.1708 28.9617 30.3111 27.8523C34.4514 26.7429 37.1657 23.4472 36.3732 20.4897C35.5808 17.5323 31.5824 16.0352 27.4421 17.1446ZM5.02693 31.9537C3.44815 32.3787 1.824 31.4433 1.39899 29.8649C0.973989 28.2861 1.90934 26.6619 3.48811 26.2369C5.06689 25.8119 6.69105 26.7473 7.11605 28.3257L7.11707 28.3291C7.5397 29.9069 6.60469 31.5293 5.02727 31.9537M2.82639 23.7404C-0.132714 24.5312 -1.89064 27.5712 -1.09955 30.5303C-0.308811 33.4894 2.73123 35.2474 5.69034 34.4563C8.64945 33.6652 10.4074 30.6255 9.61629 27.666L9.6146 27.6593C8.8225 24.7025 5.78313 22.9476 2.82639 23.7401" fill="white"/>
</g>
</g>
<defs>
<clipPath id="clip0_19693_17950">
<rect width="48" height="47.9966" fill="white"/>
</clipPath>
</defs>
</svg>
