<svg width="48" height="48" viewBox="0 0 48 48" fill="none" xmlns="http://www.w3.org/2000/svg">
<g clip-path="url(#clip0_19693_17973)">
<path d="M0 22.536C0 14.6448 0 10.704 1.536 7.6896C2.8848 5.04 5.04 2.8848 7.6896 1.536C10.704 0 14.6448 0 22.536 0H25.4688C33.3552 0 37.296 0 40.3104 1.536C42.96 2.8848 45.1152 5.04 46.464 7.6896C48 10.704 48 14.6448 48 22.536V25.4688C48 33.3552 48 37.3008 46.464 40.3152C45.1152 42.96 42.96 45.1152 40.3104 46.464C37.296 48 33.3552 48 25.464 48H22.5312C14.6448 48 10.6992 48 7.6848 46.464C5.04 45.1152 2.8848 42.96 1.536 40.3104C0 37.296 0 33.3552 0 25.464V22.536Z" fill="url(#paint0_linear_19693_17973)"/>
<path d="M36.5277 16.9398C34.8093 16.9398 33.2541 17.4582 31.9293 18.351V10.2246H28.2621V25.2006C28.2621 29.7558 31.9677 33.423 36.5037 33.423C41.0397 33.423 44.7885 29.7798 44.7885 25.1574C44.7933 20.5398 41.1261 16.9398 36.5277 16.9398ZM19.8861 26.2614L16.5309 17.5206H13.9629L10.5885 26.2614L7.20934 17.5206H3.21094L9.11494 32.8902H11.6829L15.2253 23.7366L18.7869 32.8902H21.3549L27.2397 17.5206H23.2605L19.8861 26.2614ZM36.5085 29.7606C34.0221 29.7606 31.9293 27.7734 31.9293 25.1814C31.9293 22.5894 33.8973 20.6262 36.5277 20.6262C39.1581 20.6262 41.1261 22.6758 41.1261 25.1814C41.1261 27.6918 39.0333 29.7606 36.5085 29.7606Z" fill="white"/>
</g>
<defs>
<linearGradient id="paint0_linear_19693_17973" x1="9.50368" y1="48.1605" x2="38.9583" y2="-0.930525" gradientUnits="userSpaceOnUse">
<stop stop-color="#6F01FB"/>
<stop offset="1" stop-color="#FF49D7"/>
</linearGradient>
<clipPath id="clip0_19693_17973">
<rect width="48" height="48" fill="white"/>
</clipPath>
</defs>
</svg>
