<svg width="60" height="60" viewBox="0 0 60 60" fill="none" xmlns="http://www.w3.org/2000/svg">
<rect y="-0.0078125" width="60" height="60" rx="10" fill="white"/>
<path d="M29.9141 41.9062C36.5441 41.9062 41.9141 36.5362 41.9141 29.9062C41.9141 23.2762 36.5441 17.9062 29.9141 17.9062C23.2841 17.9062 17.9141 23.2762 17.9141 29.9062C17.9141 36.5362 23.2841 41.9062 29.9141 41.9062Z" stroke="#3A64F8" stroke-width="3" stroke-miterlimit="2" stroke-linejoin="round"/>
<path d="M29.9141 35.9062C33.2291 35.9062 35.9141 33.2213 35.9141 29.9062C35.9141 26.5912 33.2291 23.9062 29.9141 23.9062C26.5991 23.9062 23.9141 26.5912 23.9141 29.9062C23.9141 33.2213 26.5991 35.9062 29.9141 35.9062Z" stroke="#3A64F8" stroke-width="3" stroke-miterlimit="2" stroke-linejoin="round"/>
<mask id="path-4-inside-1_17163_6274" fill="white">
<path d="M29.9141 31.4062C30.7391 31.4062 31.4141 30.7313 31.4141 29.9062C31.4141 29.0812 30.7391 28.4062 29.9141 28.4062C29.0891 28.4062 28.4141 29.0812 28.4141 29.9062C28.4141 30.7313 29.0891 31.4062 29.9141 31.4062Z"/>
</mask>
<path d="M29.9141 31.4062C30.7391 31.4062 31.4141 30.7313 31.4141 29.9062C31.4141 29.0812 30.7391 28.4062 29.9141 28.4062C29.0891 28.4062 28.4141 29.0812 28.4141 29.9062C28.4141 30.7313 29.0891 31.4062 29.9141 31.4062Z" fill="#3A64F8"/>
<path d="M29.9141 31.4062V34.4062C32.3959 34.4062 34.4141 32.3881 34.4141 29.9062H31.4141H28.4141C28.4141 29.0744 29.0822 28.4062 29.9141 28.4062V31.4062ZM31.4141 29.9062H34.4141C34.4141 27.4244 32.3959 25.4062 29.9141 25.4062V28.4062V31.4062C29.0822 31.4062 28.4141 30.7381 28.4141 29.9062H31.4141ZM29.9141 28.4062V25.4062C27.4322 25.4062 25.4141 27.4244 25.4141 29.9062H28.4141H31.4141C31.4141 30.7381 30.7459 31.4062 29.9141 31.4062V28.4062ZM28.4141 29.9062H25.4141C25.4141 32.3881 27.4322 34.4062 29.9141 34.4062V31.4062V28.4062C30.7459 28.4062 31.4141 29.0744 31.4141 29.9062H28.4141Z" fill="#3A64F8" mask="url(#path-4-inside-1_17163_6274)"/>
<path d="M29.9141 17.9062V14.9062" stroke="#3A64F8" stroke-width="3" stroke-miterlimit="2" stroke-linecap="round" stroke-linejoin="round"/>
<path d="M40.4141 44.9063L37.4141 39.6562" stroke="#3A64F8" stroke-width="3" stroke-miterlimit="2" stroke-linecap="round" stroke-linejoin="round"/>
<path d="M22.4141 39.6562L19.4141 44.9063" stroke="#3A64F8" stroke-width="3" stroke-miterlimit="2" stroke-linecap="round" stroke-linejoin="round"/>
</svg>
