<svg width="60" height="60" viewBox="0 0 60 60" fill="none" xmlns="http://www.w3.org/2000/svg">
<rect y="-0.0078125" width="60" height="60" rx="10" fill="white"/>
<g clip-path="url(#clip0_17163_50889)">
<path d="M16.5 31.4922C16.5 31.0944 16.658 30.7128 16.9393 30.4315C17.2206 30.1502 17.6022 29.9922 18 29.9922H24C24.3978 29.9922 24.7794 30.1502 25.0607 30.4315C25.342 30.7128 25.5 31.0944 25.5 31.4922V40.4922C25.5 40.89 25.342 41.2715 25.0607 41.5528C24.7794 41.8342 24.3978 41.9922 24 41.9922H18C17.6022 41.9922 17.2206 41.8342 16.9393 41.5528C16.658 41.2715 16.5 40.89 16.5 40.4922V31.4922Z" stroke="#3A64F8" stroke-width="3" stroke-linecap="round" stroke-linejoin="round"/>
<path d="M25.5 25.4922C25.5 25.0944 25.658 24.7128 25.9393 24.4315C26.2206 24.1502 26.6022 23.9922 27 23.9922H33C33.3978 23.9922 33.7794 24.1502 34.0607 24.4315C34.342 24.7128 34.5 25.0944 34.5 25.4922V40.4922C34.5 40.89 34.342 41.2715 34.0607 41.5528C33.7794 41.8342 33.3978 41.9922 33 41.9922H27C26.6022 41.9922 26.2206 41.8342 25.9393 41.5528C25.658 41.2715 25.5 40.89 25.5 40.4922V25.4922Z" stroke="#3A64F8" stroke-width="3" stroke-linecap="round" stroke-linejoin="round"/>
<path d="M34.5 19.4922C34.5 19.0944 34.658 18.7128 34.9393 18.4315C35.2206 18.1502 35.6022 17.9922 36 17.9922H42C42.3978 17.9922 42.7794 18.1502 43.0607 18.4315C43.342 18.7128 43.5 19.0944 43.5 19.4922V40.4922C43.5 40.89 43.342 41.2715 43.0607 41.5528C42.7794 41.8342 42.3978 41.9922 42 41.9922H36C35.6022 41.9922 35.2206 41.8342 34.9393 41.5528C34.658 41.2715 34.5 40.89 34.5 40.4922V19.4922Z" stroke="#3A64F8" stroke-width="3" stroke-linecap="round" stroke-linejoin="round"/>
<path d="M18 41.9922H39" stroke="#3A64F8" stroke-width="3" stroke-linecap="round" stroke-linejoin="round"/>
</g>
<defs>
<clipPath id="clip0_17163_50889">
<rect width="36" height="36" fill="white" transform="translate(12 11.9922)"/>
</clipPath>
</defs>
</svg>
