<svg width="50" height="50" viewBox="0 0 50 50" fill="none" xmlns="http://www.w3.org/2000/svg">
<rect width="50" height="50" rx="10" fill="white"/>
<g clip-path="url(#clip0_19694_395)">
<path d="M14.584 27.6042V23.6979C14.584 20.9352 15.6815 18.2857 17.635 16.3322C19.5885 14.3787 22.238 13.2813 25.0007 13.2812C27.7633 13.2813 30.4128 14.3787 32.3663 16.3322C34.3199 18.2857 35.4173 20.9352 35.4173 23.6979V27.6042" stroke="#3A64F8" stroke-width="2" stroke-linecap="round" stroke-linejoin="round"/>
<path d="M32.8125 34.1152C32.8125 36.2728 29.3151 38.0215 25 38.0215" stroke="#3A64F8" stroke-width="2" stroke-linecap="round" stroke-linejoin="round"/>
<path d="M14.584 27.6042C14.584 26.9135 14.8584 26.2511 15.3467 25.7627C15.8351 25.2744 16.4975 25 17.1882 25H18.4902C19.1809 25 19.8433 25.2744 20.3317 25.7627C20.82 26.2511 21.0944 26.9135 21.0944 27.6042V31.5104C21.0944 32.2011 20.82 32.8635 20.3317 33.3518C19.8433 33.8402 19.1809 34.1146 18.4902 34.1146H17.1882C16.4975 34.1146 15.8351 33.8402 15.3467 33.3518C14.8584 32.8635 14.584 32.2011 14.584 31.5104V27.6042Z" stroke="#3A64F8" stroke-width="2" stroke-linecap="round" stroke-linejoin="round"/>
<path d="M28.9062 27.6042C28.9062 26.9135 29.1806 26.2511 29.669 25.7627C30.1574 25.2744 30.8197 25 31.5104 25H32.8125C33.5032 25 34.1655 25.2744 34.6539 25.7627C35.1423 26.2511 35.4167 26.9135 35.4167 27.6042V31.5104C35.4167 32.2011 35.1423 32.8635 34.6539 33.3518C34.1655 33.8402 33.5032 34.1146 32.8125 34.1146H31.5104C30.8197 34.1146 30.1574 33.8402 29.669 33.3518C29.1806 32.8635 28.9062 32.2011 28.9062 31.5104V27.6042Z" stroke="#3A64F8" stroke-width="2" stroke-linecap="round" stroke-linejoin="round"/>
</g>
<defs>
<clipPath id="clip0_19694_395">
<rect width="31.25" height="31.25" fill="white" transform="translate(9.375 9.375)"/>
</clipPath>
</defs>
</svg>
