<svg width="50" height="50" viewBox="0 0 50 50" fill="none" xmlns="http://www.w3.org/2000/svg">
<rect width="50" height="50" rx="10" fill="white"/>
<path d="M34.1152 15.8861L15.8861 34.1152M35.4173 32.1621C35.4173 33.9599 33.9599 35.4173 32.1621 35.4173C30.3643 35.4173 28.9069 33.9599 28.9069 32.1621C28.9069 30.3643 30.3643 28.9069 32.1621 28.9069C33.9599 28.9069 35.4173 30.3643 35.4173 32.1621ZM21.0944 17.8392C21.0944 19.637 19.637 21.0944 17.8392 21.0944C16.0414 21.0944 14.584 19.637 14.584 17.8392C14.584 16.0414 16.0414 14.584 17.8392 14.584C19.637 14.584 21.0944 16.0414 21.0944 17.8392Z" stroke="#3A64F8" stroke-width="2" stroke-linecap="round" stroke-linejoin="round"/>
</svg>
