<svg width="60" height="60" viewBox="0 0 60 60" fill="none" xmlns="http://www.w3.org/2000/svg">
<rect width="60" height="60" fill="white"/>
<path d="M40.5 19.5L19.5 40.5M42 38.25C42 40.3211 40.3211 42 38.25 42C36.1789 42 34.5 40.3211 34.5 38.25C34.5 36.1789 36.1789 34.5 38.25 34.5C40.3211 34.5 42 36.1789 42 38.25ZM25.5 21.75C25.5 23.8211 23.8211 25.5 21.75 25.5C19.6789 25.5 18 23.8211 18 21.75C18 19.6789 19.6789 18 21.75 18C23.8211 18 25.5 19.6789 25.5 21.75Z" stroke="#3A64F8" stroke-width="3" stroke-linecap="round" stroke-linejoin="round"/>
</svg>
