<svg width="76" height="28" viewBox="0 0 76 28" fill="none" xmlns="http://www.w3.org/2000/svg">
<rect x="2" y="2" width="24" height="24" rx="12" fill="#419FD9"/>
<rect x="2" y="2" width="24" height="24" rx="12" fill="url(#paint0_linear_18606_52393)"/>
<rect x="2" y="2" width="24" height="24" rx="12" stroke="white" stroke-width="4"/>
<path d="M8.49473 13.7743C11.4028 12.4807 13.3419 11.6279 14.3122 11.2159C17.0825 10.0394 17.6581 9.83501 18.0333 9.82819C18.1158 9.82678 18.3003 9.84766 18.4199 9.94668C18.5208 10.0303 18.5485 10.1432 18.5618 10.2225C18.5751 10.3018 18.5917 10.4824 18.5785 10.6235C18.4284 12.234 17.7788 16.1422 17.4483 17.946C17.3085 18.7093 17.0332 18.9652 16.7666 18.9902C16.1873 19.0447 15.7474 18.5994 15.1864 18.2238C14.3084 17.6362 13.8124 17.2704 12.9602 16.697C11.9753 16.0344 12.6137 15.6701 13.175 15.0749C13.3219 14.9191 15.8743 12.5488 15.9237 12.3337C15.9299 12.3068 15.9356 12.2066 15.8773 12.1537C15.819 12.1007 15.7329 12.1188 15.6707 12.1332C15.5827 12.1536 14.1801 13.1002 11.463 14.9728C11.0649 15.2519 10.7043 15.3879 10.3813 15.3808C10.0251 15.3729 9.33994 15.1752 8.83061 15.0061C8.2059 14.7988 7.70939 14.6892 7.75262 14.3371C7.77514 14.1537 8.02251 13.9661 8.49473 13.7743Z" fill="white"/>
<rect x="18" y="2" width="24" height="24" rx="12" fill="#FF0000"/>
<rect x="18" y="2" width="24" height="24" rx="12" stroke="white" stroke-width="4"/>
<path d="M30 9.625C30.0282 9.625 33.9159 9.62586 34.8906 9.89258C35.4259 10.0367 35.848 10.4589 35.9922 10.9941C36.2599 11.9723 36.25 14.0117 36.25 14.0117C36.25 14.0448 36.2474 16.0474 35.9922 17.0176C35.848 17.553 35.426 17.975 34.8906 18.1191C33.916 18.3756 30.0282 18.3769 30 18.377C30 18.377 26.0984 18.377 25.1094 18.1094C24.574 17.9652 24.151 17.5432 24.0068 17.0078C23.7494 16.0399 23.75 14.001 23.75 14.001C23.75 13.9918 23.75 11.9701 24.0068 10.9941C24.151 10.4588 24.5843 10.0269 25.1094 9.88281C26.0879 9.62546 30 9.625 30 9.625ZM28.7539 15.8779L32.0078 14.0039L28.7539 12.1299V15.8779Z" fill="white"/>
<rect x="34" y="2" width="24" height="24" rx="12" fill="#0077FF"/>
<rect x="34" y="2" width="24" height="24" rx="12" stroke="white" stroke-width="4"/>
<path d="M46.5582 18.5807C42.2874 18.5807 39.8515 15.609 39.75 10.6641H41.8893C41.9595 14.2935 43.5367 15.8309 44.7859 16.1479V10.6641H46.8003V13.7943C48.0339 13.6595 49.3298 12.2331 49.767 10.6641H51.7815C51.4457 12.5977 50.0403 14.0241 49.041 14.6105C50.0403 15.086 51.641 16.3301 52.25 18.5807H50.0326C49.5563 17.075 48.3696 15.9101 46.8003 15.7516V18.5807H46.5582Z" fill="white"/>
<rect x="50" y="2" width="24" height="24" rx="12" fill="#EFEFEF"/>
<rect x="50" y="2" width="24" height="24" rx="12" stroke="white" stroke-width="4"/>
<path d="M57.7137 17.392V15.244H55.5657V14.11H57.7137V11.968H58.8477V14.11H60.9837V15.244H58.8477V17.392H57.7137ZM65.3312 10.192C65.8952 10.192 66.4032 10.326 66.8552 10.594C67.3072 10.858 67.6632 11.226 67.9232 11.698C68.1872 12.166 68.3192 12.706 68.3192 13.318V15.952C68.3192 16.604 68.1872 17.174 67.9232 17.662C67.6632 18.146 67.2972 18.52 66.8252 18.784C66.3532 19.048 65.8012 19.18 65.1692 19.18C64.7332 19.18 64.3212 19.106 63.9332 18.958C63.5452 18.806 63.1972 18.574 62.8892 18.262L63.9272 17.248C64.0832 17.428 64.2692 17.57 64.4852 17.674C64.7052 17.774 64.9332 17.824 65.1692 17.824C65.5052 17.824 65.7992 17.746 66.0512 17.59C66.3032 17.43 66.4992 17.224 66.6392 16.972C66.7792 16.716 66.8492 16.442 66.8492 16.15V14.716L67.1072 15.004C66.8632 15.292 66.5672 15.518 66.2192 15.682C65.8712 15.842 65.5052 15.922 65.1212 15.922C64.5812 15.922 64.1012 15.798 63.6812 15.55C63.2652 15.302 62.9372 14.966 62.6972 14.542C62.4612 14.114 62.3432 13.63 62.3432 13.09C62.3432 12.55 62.4792 12.062 62.7512 11.626C63.0232 11.186 63.3852 10.838 63.8372 10.582C64.2932 10.322 64.7912 10.192 65.3312 10.192ZM65.3312 11.572C65.0512 11.572 64.7952 11.64 64.5632 11.776C64.3312 11.912 64.1472 12.096 64.0112 12.328C63.8752 12.556 63.8072 12.81 63.8072 13.09C63.8072 13.37 63.8732 13.626 64.0052 13.858C64.1412 14.09 64.3232 14.274 64.5512 14.41C64.7832 14.546 65.0392 14.614 65.3192 14.614C65.5992 14.614 65.8552 14.546 66.0872 14.41C66.3192 14.274 66.5032 14.09 66.6392 13.858C66.7792 13.626 66.8492 13.37 66.8492 13.09C66.8492 12.818 66.7812 12.568 66.6452 12.34C66.5092 12.108 66.3252 11.922 66.0932 11.782C65.8652 11.642 65.6112 11.572 65.3312 11.572Z" fill="#111827"/>
<defs>
<linearGradient id="paint0_linear_18606_52393" x1="14" y1="4" x2="14" y2="23.8516" gradientUnits="userSpaceOnUse">
<stop stop-color="#2AABEE"/>
<stop offset="1" stop-color="#229ED9"/>
</linearGradient>
</defs>
</svg>
