<svg width="24" height="24" viewBox="0 0 24 24" fill="none" xmlns="http://www.w3.org/2000/svg">
<path d="M17.4437 2.5H6.55901C6.5327 2.5 6.50837 2.51402 6.49522 2.53682L1.05283 11.9633C1.03968 11.9861 1.03968 12.0142 1.05283 12.0369L6.49517 21.4633C6.50832 21.4861 6.53266 21.5001 6.55896 21.5001H17.4437C17.47 21.5001 17.4943 21.4861 17.5075 21.4633L22.9498 12.0369C22.963 12.0141 22.963 11.986 22.9498 11.9633L17.5075 2.53682C17.4943 2.51402 17.47 2.5 17.4437 2.5Z" fill="url(#paint0_linear_18277_59719)"/>
<path d="M17.2536 2.83398H6.75174C6.72634 2.83398 6.70292 2.84752 6.6902 2.8695L1.43919 11.9644C1.42652 11.9864 1.42652 12.0135 1.43919 12.0354L6.6902 21.1303C6.70287 21.1523 6.72634 21.1659 6.75174 21.1659H17.2536C17.2789 21.1659 17.3024 21.1523 17.3151 21.1303L22.566 12.0354C22.5787 12.0135 22.5787 11.9864 22.566 11.9644L17.3151 2.8695C17.3024 2.84752 17.2789 2.83398 17.2536 2.83398Z" fill="url(#paint1_linear_18277_59719)"/>
<path opacity="0.4" d="M22.2686 11.4527L17.6085 3.38123C17.4129 3.04254 17.0516 2.83398 16.6606 2.83398H7.34051C6.9495 2.83398 6.58816 3.04254 6.3927 3.38123L6.30078 3.54026C6.48688 3.40149 6.71017 3.31557 6.94998 3.31557H16.2701C16.6611 3.31557 17.0224 3.52422 17.218 3.86282L21.878 11.9343C22.0735 12.2728 22.0735 12.6902 21.878 13.0288L17.3098 20.9412C17.4271 20.8536 17.5329 20.7496 17.6085 20.6186L22.2686 12.5472C22.464 12.2085 22.464 11.7913 22.2686 11.4527Z" fill="#FFB88C"/>
<path opacity="0.3" d="M16.2306 4.61426H7.76868C7.74823 4.61426 7.72932 4.62515 7.7191 4.64287L3.48814 11.9711C3.47791 11.9888 3.47791 12.0107 3.48814 12.0284L7.71914 19.3565C7.72937 19.3743 7.74828 19.3852 7.76873 19.3852H16.2306C16.2511 19.3852 16.27 19.3743 16.2802 19.3565L20.5111 12.0284C20.5214 12.0107 20.5214 11.9888 20.5111 11.9711L16.2802 4.64291C16.27 4.6252 16.251 4.61426 16.2306 4.61426Z" fill="black"/>
<path opacity="0.3" d="M20.2728 11.5588L16.518 5.05519C16.3605 4.78235 16.0693 4.61426 15.7543 4.61426H8.24458C7.92946 4.61426 7.63839 4.7824 7.48085 5.05519L7.44922 5.11005C7.60901 4.84773 7.89235 4.6853 8.20047 4.6853H15.7102C16.0253 4.6853 16.3164 4.85344 16.4739 5.12623L20.2287 11.6298C20.3862 11.9027 20.3862 12.2388 20.2287 12.5117L16.5057 18.9603C16.5092 18.9544 16.5145 18.9501 16.518 18.9442L20.2728 12.4407C20.4304 12.1678 20.4304 11.8316 20.2728 11.5588Z" fill="url(#paint2_linear_18277_59719)"/>
<path d="M16.1195 4.8125H7.88431C7.86439 4.8125 7.84601 4.82311 7.83607 4.84034L3.71839 11.9723C3.70845 11.9895 3.70845 12.0108 3.71839 12.028L7.83597 19.1599C7.84591 19.1771 7.86434 19.1877 7.88421 19.1877H16.1195C16.1394 19.1877 16.1578 19.1771 16.1677 19.1599L20.2852 12.028C20.2951 12.0108 20.2951 11.9895 20.2852 11.9723L16.1677 4.84034C16.1578 4.82311 16.1394 4.8125 16.1195 4.8125Z" fill="url(#paint3_linear_18277_59719)"/>
<path opacity="0.1" d="M16.0168 18.593H8.70824C8.40161 18.593 8.11832 18.4295 7.96501 18.1639L4.31072 11.8345C4.15745 11.5689 4.15745 11.2418 4.31072 10.9762L7.67196 5.1543C7.64979 5.18334 7.62377 5.20892 7.6052 5.24118L3.95096 11.5706C3.7976 11.836 3.7976 12.1632 3.95096 12.4287L7.60524 18.7581C7.75861 19.0237 8.0419 19.1872 8.34848 19.1872H15.657C15.9636 19.1872 16.247 19.0237 16.4003 18.7581L16.6932 18.2509C16.532 18.4616 16.2861 18.593 16.0168 18.593Z" fill="#797EC2"/>
<path opacity="0.2" d="M20.0521 11.571L16.3978 5.24162C16.2446 4.97613 15.9612 4.8125 15.6546 4.8125H8.34608C8.03951 4.8125 7.75616 4.97613 7.60285 5.24162L7.23047 5.88669C7.35964 5.81138 7.5081 5.76928 7.66276 5.76928H14.9713C15.2779 5.76928 15.5612 5.93292 15.7145 6.1984L19.3688 12.5278C19.5221 12.7934 19.5221 13.1205 19.3688 13.3861L16.0869 19.0705C16.2138 18.9965 16.322 18.8903 16.3979 18.7587L20.0522 12.4293C20.2054 12.1637 20.2054 11.8365 20.0521 11.571Z" fill="#00051C"/>
<path opacity="0.3" d="M12.227 7.61117L13.942 9.70435C14.0026 9.77827 14.0812 9.83544 14.1702 9.87019L16.691 10.8544C17.0185 10.9824 17.147 11.3779 16.9573 11.6738L15.4964 13.9518C15.4448 14.0322 15.4148 14.1246 15.4093 14.2201L15.2522 16.9216C15.2318 17.2726 14.8952 17.517 14.5551 17.428L11.9372 16.7427C11.8448 16.7184 11.7477 16.7184 11.6552 16.7427L9.03731 17.428C8.69723 17.517 8.36075 17.2726 8.34025 16.9216L8.18315 14.2201C8.17758 14.1247 8.14758 14.0322 8.09598 13.9518L6.63515 11.6738C6.44546 11.3779 6.57395 10.9824 6.90136 10.8544L9.42217 9.87019C9.51117 9.83544 9.58979 9.77827 9.65032 9.70435L11.3654 7.61117C11.5883 7.33925 12.0041 7.33925 12.227 7.61117Z" fill="black"/>
<path opacity="0.3" d="M12.3676 7.36996L14.0826 9.46319C14.1432 9.53711 14.2218 9.59418 14.3109 9.62893L16.8316 10.6132C17.1591 10.7411 17.2876 11.1367 17.0978 11.4326L15.6371 13.7106C15.5855 13.7911 15.5554 13.8834 15.5499 13.9789L15.3927 16.6804C15.3723 17.0314 15.0358 17.2758 14.6957 17.1868L12.0779 16.5015C11.9854 16.4773 11.8882 16.4773 11.7958 16.5015L9.17793 17.1868C8.83785 17.2758 8.50132 17.0314 8.48087 16.6804L8.32377 13.9789C8.31815 13.8835 8.28815 13.7911 8.2366 13.7106L6.77582 11.4326C6.58603 11.1367 6.71462 10.7411 7.04203 10.6132L9.56275 9.62893C9.65183 9.59418 9.73041 9.53711 9.79099 9.46319L11.5061 7.36996C11.7288 7.09804 12.1448 7.09804 12.3676 7.36996Z" fill="black"/>
<path d="M12.4068 7.17953L14.1218 9.27271C14.1824 9.34663 14.261 9.4038 14.35 9.43855L16.8707 10.4228C17.1982 10.5508 17.3267 10.9463 17.1369 11.2422L15.6762 13.5202C15.6246 13.6006 15.5946 13.693 15.589 13.7885L15.4318 16.49C15.4114 16.841 15.075 17.0854 14.7349 16.9964L12.117 16.3111C12.0245 16.2869 11.9274 16.2869 11.8349 16.3111L9.21704 16.9964C8.87687 17.0855 8.54043 16.841 8.51999 16.49L8.36279 13.7885C8.35722 13.6931 8.32722 13.6006 8.27562 13.5202L6.81488 11.2422C6.62509 10.9463 6.75368 10.5508 7.08109 10.4228L9.60181 9.43855C9.6909 9.4038 9.76947 9.34663 9.83005 9.27271L11.5451 7.17953C11.768 6.90761 12.184 6.90761 12.4068 7.17953Z" fill="url(#paint4_linear_18277_59719)"/>
<g opacity="0.3">
<path d="M15.5804 13.7158C15.5288 13.7962 15.4988 13.8886 15.4933 13.9841L15.3361 16.6856C15.3338 16.7253 15.3145 16.7572 15.3047 16.7937C15.3723 16.708 15.4244 16.6092 15.4315 16.49L15.5886 13.7885C15.5922 13.7269 15.6217 13.672 15.6449 13.6152L15.5804 13.7158Z" fill="#FFC496"/>
<path d="M16.8705 10.4228L14.3498 9.43855C14.2607 9.4038 14.1821 9.34663 14.1216 9.27271L12.4066 7.17953C12.1837 6.90761 11.7678 6.90761 11.545 7.17953L9.82997 9.27271C9.76939 9.34663 9.69082 9.4038 9.60173 9.43855L7.08101 10.4228C6.9037 10.4921 6.79181 10.641 6.75 10.8089C6.80976 10.7285 6.88397 10.6582 6.98568 10.6185L9.5064 9.6342C9.59549 9.5994 9.67406 9.54233 9.73464 9.46836L11.4497 7.37517C11.6725 7.10316 12.0885 7.10316 12.3113 7.37517L14.0263 9.46836C14.0868 9.54228 14.1654 9.59935 14.2545 9.6342L16.7752 10.6185C17.0653 10.7318 17.1852 11.0526 17.0801 11.3307L17.1368 11.2421C17.3265 10.9463 17.198 10.5507 16.8705 10.4228Z" fill="#FFC496"/>
</g>
<g opacity="0.3">
<path opacity="0.3" d="M14.8458 16.6648L12.2279 15.9793C12.1354 15.9551 12.0383 15.9551 11.9458 15.9793L9.32789 16.6648C8.98781 16.7537 8.65133 16.5093 8.63093 16.1583L8.47373 13.4567C8.46821 13.3614 8.43816 13.269 8.38656 13.1885L6.92578 10.9106C6.86506 10.8159 6.84735 10.7123 6.84788 10.6094C6.71324 10.7879 6.68381 11.0364 6.81543 11.2416L8.27626 13.5196C8.32781 13.6001 8.35781 13.6925 8.36338 13.7879L8.52058 16.4894C8.54098 16.8404 8.87751 17.0849 9.21764 16.9959L11.8355 16.3104C11.9279 16.2862 12.0251 16.2862 12.1176 16.3104L14.7354 16.9959C15.0755 17.0849 15.412 16.8404 15.4325 16.4894L15.4353 16.4405C15.3067 16.6222 15.0806 16.7262 14.8458 16.6648Z" fill="black"/>
<path d="M15.7882 13.1882C15.7366 13.2686 15.7065 13.361 15.7009 13.4564L15.6992 13.4858L17.1385 11.2413C17.1957 11.1523 17.2155 11.0551 17.2182 10.958L15.7882 13.1882Z" fill="black"/>
</g>
<path opacity="0.3" d="M12.2181 8.08535L13.658 9.84273C13.7088 9.90484 13.7748 9.95274 13.8495 9.98193L15.9659 10.8082C16.2409 10.9156 16.3487 11.2477 16.1894 11.4962L14.963 13.4086C14.9197 13.4762 14.8945 13.5538 14.8898 13.6339L14.7579 15.902C14.7407 16.1967 14.4582 16.4019 14.1727 16.3272L11.9748 15.7518C11.8972 15.7314 11.8156 15.7314 11.738 15.7518L9.54009 16.3272C9.25454 16.4019 8.97206 16.1967 8.95492 15.902L8.82297 13.6339C8.81831 13.5538 8.79311 13.4762 8.74977 13.4086L7.52337 11.4962C7.36406 11.2477 7.47191 10.9156 7.74686 10.8082L9.86318 9.98193C9.93801 9.95274 10.004 9.90479 10.0548 9.84273L11.4947 8.08535C11.6818 7.85697 12.031 7.85697 12.2181 8.08535Z" fill="#4F0B0B"/>
<path d="M12.3353 7.95153L13.7752 9.709C13.8261 9.77101 13.892 9.81901 13.9668 9.8482L16.0831 10.6746C16.3581 10.7819 16.4659 11.114 16.3066 11.3625L15.0802 13.275C15.0369 13.3426 15.0117 13.4201 15.007 13.5003L14.8751 15.7684C14.8579 16.063 14.5754 16.2683 14.2899 16.1936L12.092 15.6181C12.0144 15.5978 11.9329 15.5978 11.8551 15.6181L9.65728 16.1936C9.37173 16.2683 9.08925 16.063 9.07211 15.7684L8.94016 13.5003C8.9355 13.4201 8.9103 13.3426 8.86696 13.275L7.64056 11.3625C7.48125 11.114 7.5891 10.7819 7.86405 10.6746L9.98046 9.8482C10.0552 9.81901 10.1211 9.77101 10.172 9.709L11.6119 7.95153C11.799 7.72319 12.1482 7.72319 12.3353 7.95153Z" fill="url(#paint5_linear_18277_59719)"/>
<g opacity="0.3">
<path d="M15.0056 13.4512C14.9622 13.5186 14.937 13.5963 14.9324 13.6764L14.8004 15.9446C14.799 15.9687 14.7861 15.9878 14.7812 16.0106C14.8317 15.9412 14.8702 15.8625 14.8757 15.7689L15.0076 13.5008C15.0098 13.4626 15.0312 13.4298 15.0424 13.3936L15.0056 13.4512Z" fill="black"/>
<path d="M16.0852 10.6754L13.9689 9.84914C13.8942 9.81995 13.8281 9.77195 13.7773 9.70984L12.3374 7.95247C12.1504 7.72418 11.8011 7.72418 11.614 7.95247L10.1741 9.70984C10.1233 9.77195 10.0573 9.81991 9.98258 9.84914L7.86616 10.6754C7.7093 10.7367 7.61536 10.8726 7.58594 11.023C7.63667 10.9503 7.70071 10.8863 7.7909 10.8511L9.90731 10.0247C9.98205 9.99549 10.0481 9.94754 10.0989 9.88547L11.5388 8.1281C11.7258 7.89981 12.0751 7.89981 12.2622 8.1281L13.7021 9.88547C13.753 9.94759 13.819 9.99549 13.8937 10.0247L16.0101 10.8511C16.2388 10.9404 16.3414 11.1836 16.2812 11.4064L16.3089 11.3634C16.4681 11.1149 16.3602 10.7828 16.0852 10.6754Z" fill="black"/>
</g>
<path opacity="0.2" d="M17.0511 20.532H7.73097C7.33996 20.532 6.97862 20.3233 6.78316 19.9847L2.12313 11.9132C1.92758 11.5746 1.92758 11.1574 2.12313 10.8187L6.48945 3.25586C6.45657 3.29743 6.41956 3.33511 6.39268 3.38186L1.7326 11.4533C1.53705 11.7919 1.53705 12.2092 1.7326 12.5478L6.39263 20.6193C6.58809 20.9579 6.94943 21.1665 7.34044 21.1665H16.6606C17.0516 21.1665 17.4129 20.9579 17.6085 20.6193L17.9021 20.1106C17.6964 20.3704 17.3882 20.532 17.0511 20.532Z" fill="#797EC2"/>
<path opacity="0.2" d="M22.6549 11.4329L17.825 3.06722C17.6223 2.71624 17.2479 2.5 16.8425 2.5H7.18268C6.77737 2.5 6.40292 2.71624 6.20027 3.06722L5.91016 3.56973L17.3417 21.3765C17.5395 21.2788 17.711 21.1305 17.825 20.9331L22.655 12.5673C22.8575 12.2164 22.8575 11.7839 22.6549 11.4329Z" fill="#FFC180"/>
<defs>
<linearGradient id="paint0_linear_18277_59719" x1="6.74093" y1="20.3398" x2="15.6141" y2="6.27256" gradientUnits="userSpaceOnUse">
<stop stop-color="#B95B39"/>
<stop offset="0.3187" stop-color="#99412F"/>
<stop offset="1" stop-color="#FFA14F"/>
</linearGradient>
<linearGradient id="paint1_linear_18277_59719" x1="7.51618" y1="17.7175" x2="19.138" y2="2.90651" gradientUnits="userSpaceOnUse">
<stop stop-color="#B95B39"/>
<stop offset="0.3187" stop-color="#99412F"/>
<stop offset="1" stop-color="#FFA14F"/>
</linearGradient>
<linearGradient id="paint2_linear_18277_59719" x1="16.8653" y1="6.50282" x2="5.17042" y2="19.6843" gradientUnits="userSpaceOnUse">
<stop stop-color="#941010"/>
<stop offset="1" stop-color="#FFA02B"/>
</linearGradient>
<linearGradient id="paint3_linear_18277_59719" x1="7.50717" y1="19.206" x2="17.7331" y2="2.81205" gradientUnits="userSpaceOnUse">
<stop stop-color="#B95B39"/>
<stop offset="0.3187" stop-color="#A14634"/>
<stop offset="1" stop-color="#FFA14F"/>
</linearGradient>
<linearGradient id="paint4_linear_18277_59719" x1="15.9231" y1="9.2622" x2="7.02224" y2="17.4169" gradientUnits="userSpaceOnUse">
<stop stop-color="#B95B39"/>
<stop offset="0.3187" stop-color="#99412F"/>
<stop offset="1" stop-color="#FFA14F"/>
</linearGradient>
<linearGradient id="paint5_linear_18277_59719" x1="9.45601" y1="16.0585" x2="15.7453" y2="6.67794" gradientUnits="userSpaceOnUse">
<stop stop-color="#B95B39"/>
<stop offset="0.3187" stop-color="#99412F"/>
<stop offset="1" stop-color="#FFA14F"/>
</linearGradient>
</defs>
</svg>
