<svg width="60" height="60" viewBox="0 0 60 60" fill="none" xmlns="http://www.w3.org/2000/svg">
<path d="M23.1336 41.7305C23.7666 41.7305 24.2811 42.245 24.2811 42.878C24.2811 43.511 23.7666 44.024 23.1336 44.024C22.5006 44.024 21.9876 43.511 21.9876 42.878C21.9876 42.245 22.5006 41.7305 23.1336 41.7305Z" fill="#585F6A"/>
<path d="M40.0122 41.7305C40.6452 41.7305 41.1597 42.245 41.1597 42.878C41.1597 43.511 40.6452 44.024 40.0122 44.024C39.3792 44.024 38.8647 43.511 38.8647 42.878C38.8647 42.245 39.3792 41.7305 40.0122 41.7305Z" fill="#585F6A"/>
<path d="M16.125 16.875L19.245 17.415L20.6895 34.6245C20.8065 36.027 21.978 37.104 23.385 37.104H39.753C41.097 37.104 42.237 36.117 42.4305 34.785L43.854 24.948C44.0295 23.7345 43.089 22.6485 41.8635 22.6485H19.746M23.1336 41.7305C23.7666 41.7305 24.2811 42.245 24.2811 42.878C24.2811 43.511 23.7666 44.0239 23.1336 44.0239C22.5006 44.0239 21.9876 43.511 21.9876 42.878C21.9876 42.245 22.5006 41.7305 23.1336 41.7305ZM40.0122 41.7305C40.6452 41.7305 41.1597 42.245 41.1597 42.878C41.1597 43.511 40.6452 44.0239 40.0122 44.0239C39.3792 44.0239 38.8647 43.511 38.8647 42.878C38.8647 42.245 39.3792 41.7305 40.0122 41.7305Z" stroke="#585F6A" stroke-width="2" stroke-linecap="round" stroke-linejoin="round"/>
<rect x="33" y="13" width="18" height="18" rx="9" fill="#3A64F8"/>
<path d="M38.5 22.5L40.5 24.5L45.5 19.5" stroke="white" stroke-width="1.5" stroke-linecap="round" stroke-linejoin="round"/>
</svg>
