<svg width="24" height="25" viewBox="0 0 24 25" fill="none" xmlns="http://www.w3.org/2000/svg">
<path d="M7.4224 19.832C7.8444 19.832 8.1874 20.175 8.1874 20.597C8.1874 21.019 7.8444 21.361 7.4224 21.361C7.0004 21.361 6.6584 21.019 6.6584 20.597C6.6584 20.175 7.0004 19.832 7.4224 19.832Z" fill="#3A64F8"/>
<path d="M18.6748 19.832C19.0968 19.832 19.4398 20.175 19.4398 20.597C19.4398 21.019 19.0968 21.361 18.6748 21.361C18.2528 21.361 17.9098 21.019 17.9098 20.597C17.9098 20.175 18.2528 19.832 18.6748 19.832Z" fill="#3A64F8"/>
<path d="M2.75 3.26172L4.83 3.62172L5.793 15.0947C5.871 16.0297 6.652 16.7477 7.59 16.7477H18.502C19.398 16.7477 20.158 16.0897 20.287 15.2017L21.236 8.64372C21.353 7.83472 20.726 7.11072 19.909 7.11072H5.164M14.1255 10.8067H16.8985M7.4224 19.832C7.8444 19.832 8.1874 20.175 8.1874 20.597C8.1874 21.019 7.8444 21.361 7.4224 21.361C7.0004 21.361 6.6584 21.019 6.6584 20.597C6.6584 20.175 7.0004 19.832 7.4224 19.832ZM18.6748 19.832C19.0968 19.832 19.4398 20.175 19.4398 20.597C19.4398 21.019 19.0968 21.361 18.6748 21.361C18.2528 21.361 17.9098 21.019 17.9098 20.597C17.9098 20.175 18.2528 19.832 18.6748 19.832Z" stroke="#3A64F8" stroke-width="2" stroke-linecap="round" stroke-linejoin="round"/>
</svg>
