<svg width="24" height="24" viewBox="0 0 24 24" fill="none" xmlns="http://www.w3.org/2000/svg">
<mask id="mask0_18277_59727" style="mask-type:luminance" maskUnits="userSpaceOnUse" x="0" y="3" width="24" height="19">
<path d="M20.1782 4.87424L15.1536 3H8.84635L3.82182 4.87424L0 9.63579L12 21.8764L24 9.63579L20.1782 4.87424Z" fill="white"/>
</mask>
<g mask="url(#mask0_18277_59727)">
<path d="M20.1782 4.87424L15.1536 3H8.84635L3.82182 4.87424L0 9.63579L12 21.8763L24 9.63579L20.1782 4.87424Z" fill="url(#paint0_linear_18277_59727)"/>
<path opacity="0.6" d="M20.1782 4.87424L15.1536 3H8.84635L3.82182 4.87424L0 9.63579L12 21.8763L24 9.63579L20.1782 4.87424Z" fill="url(#paint1_radial_18277_59727)"/>
<path opacity="0.6" d="M20.1782 4.87424L15.1536 3H8.84635L3.82182 4.87424L0 9.63579L12 21.8763L24 9.63579L20.1782 4.87424Z" fill="url(#paint2_radial_18277_59727)"/>
<path opacity="0.4" d="M24 9.63672H0L12 21.8772L24 9.63672Z" fill="url(#paint3_linear_18277_59727)"/>
<path opacity="0.3" d="M12 21.8772L7.34965 9.63672H0L12 21.8772Z" fill="url(#paint4_linear_18277_59727)"/>
<path opacity="0.4" d="M12 21.8772L16.6503 9.63672H24L12 21.8772Z" fill="url(#paint5_linear_18277_59727)"/>
<path opacity="0.4" d="M12 21.8772L16.6503 9.63672H24L12 21.8772Z" fill="url(#paint6_linear_18277_59727)"/>
<path opacity="0.3" d="M16.6523 9.63655L20.1802 4.875L24.002 9.63655H16.6523Z" fill="url(#paint7_linear_18277_59727)"/>
<path opacity="0.4" d="M16.6569 9.63579L15.1602 3L20.1847 4.87424L16.6569 9.63579Z" fill="url(#paint8_linear_18277_59727)"/>
<path opacity="0.3" d="M8.84485 3L7.34815 9.63579L3.82031 4.87424L8.84485 3Z" fill="url(#paint9_linear_18277_59727)"/>
<path opacity="0.4" d="M7.34965 9.63655H0L3.82182 4.875L7.34965 9.63655Z" fill="url(#paint10_linear_18277_59727)"/>
<path opacity="0.2" d="M12.0019 21.8772L7.35156 9.63672H9.94404L12.0019 21.8772Z" fill="url(#paint11_linear_18277_59727)"/>
<path opacity="0.3" d="M12 21.8771L1.5412 9.63656L3.82182 4.875L0 9.63656L12 21.8771Z" fill="url(#paint12_linear_18277_59727)"/>
<path opacity="0.4" d="M3.82182 4.875L0.85521 9.63656L12 21.8771L0 9.63656L3.82182 4.875Z" fill="url(#paint13_linear_18277_59727)"/>
<path opacity="0.5" d="M15.1589 3L12.0052 9.63579L8.85156 3H15.1589Z" fill="url(#paint14_linear_18277_59727)"/>
</g>
<defs>
<linearGradient id="paint0_linear_18277_59727" x1="6.05895" y1="16.02" x2="17.9594" y2="2.73578" gradientUnits="userSpaceOnUse">
<stop stop-color="#B8D2FF"/>
<stop offset="0.2703" stop-color="#17D2FF"/>
<stop offset="0.4711" stop-color="#62D9FF"/>
<stop offset="0.6554" stop-color="#A0DFFF"/>
<stop offset="0.8103" stop-color="#CCE3FF"/>
<stop offset="0.9301" stop-color="#E8E6FF"/>
<stop offset="1" stop-color="#F2E7FF"/>
</linearGradient>
<radialGradient id="paint1_radial_18277_59727" cx="0" cy="0" r="1" gradientUnits="userSpaceOnUse" gradientTransform="translate(20 7.56901) scale(7.26983 7.26982)">
<stop stop-color="white"/>
<stop offset="1" stop-color="#B8D2FF"/>
</radialGradient>
<radialGradient id="paint2_radial_18277_59727" cx="0" cy="0" r="1" gradientUnits="userSpaceOnUse" gradientTransform="translate(8.8107 18.5445) scale(12.9948)">
<stop stop-color="white"/>
<stop offset="1" stop-color="#B8D2FF"/>
</radialGradient>
<linearGradient id="paint3_linear_18277_59727" x1="12" y1="8.6211" x2="12" y2="23.6382" gradientUnits="userSpaceOnUse">
<stop stop-color="#0C718A"/>
<stop offset="0.0287" stop-color="#00617B"/>
<stop offset="0.3019" stop-color="#629DB6"/>
<stop offset="0.5452" stop-color="#A0BDD5"/>
<stop offset="0.7498" stop-color="#CCD4EC"/>
<stop offset="0.9077" stop-color="#E8E2FA"/>
<stop offset="1" stop-color="#F2E7FF"/>
</linearGradient>
<linearGradient id="paint4_linear_18277_59727" x1="9.40942" y1="14.7497" x2="7.05751" y2="15.4445" gradientUnits="userSpaceOnUse">
<stop stop-color="#0C4B8A"/>
<stop offset="0.0287" stop-color="#15518E"/>
<stop offset="0.3019" stop-color="#6286B6"/>
<stop offset="0.5452" stop-color="#A0AFD5"/>
<stop offset="0.7498" stop-color="#CCCEEC"/>
<stop offset="0.9077" stop-color="#E8E0FA"/>
<stop offset="1" stop-color="#F2E7FF"/>
</linearGradient>
<linearGradient id="paint5_linear_18277_59727" x1="14.5833" y1="14.1208" x2="17.1134" y2="15.3324" gradientUnits="userSpaceOnUse">
<stop offset="0.0108" stop-color="#F2FCFF"/>
<stop offset="0.4337" stop-color="#F2F1FF"/>
<stop offset="1" stop-color="#F2E7FF"/>
</linearGradient>
<linearGradient id="paint6_linear_18277_59727" x1="18.1284" y1="15.856" x2="16.8811" y2="14.8939" gradientUnits="userSpaceOnUse">
<stop offset="0.0108" stop-color="#F2FCFF"/>
<stop offset="0.4337" stop-color="#F2F1FF"/>
<stop offset="1" stop-color="#F2E7FF"/>
</linearGradient>
<linearGradient id="paint7_linear_18277_59727" x1="18.4976" y1="7.30274" x2="20.3506" y2="8.37178" gradientUnits="userSpaceOnUse">
<stop stop-color="#0C718A"/>
<stop offset="0.0287" stop-color="#15758E"/>
<stop offset="0.3019" stop-color="#629DB6"/>
<stop offset="0.5452" stop-color="#A0BDD5"/>
<stop offset="0.7498" stop-color="#CCD4EC"/>
<stop offset="0.9077" stop-color="#E8E2FA"/>
<stop offset="1" stop-color="#F2E7FF"/>
</linearGradient>
<linearGradient id="paint8_linear_18277_59727" x1="17.8026" y1="7.00556" x2="15.7714" y2="6.18595" gradientUnits="userSpaceOnUse">
<stop offset="0.0108" stop-color="#F2FCFF"/>
<stop offset="0.4337" stop-color="#F2F1FF"/>
<stop offset="1" stop-color="#F2E7FF"/>
</linearGradient>
<linearGradient id="paint9_linear_18277_59727" x1="8.29653" y1="6.28155" x2="5.94462" y2="6.70915" gradientUnits="userSpaceOnUse">
<stop offset="0.0108" stop-color="#F2FCFF"/>
<stop offset="0.4337" stop-color="#F2F1FF"/>
<stop offset="1" stop-color="#F2E7FF"/>
</linearGradient>
<linearGradient id="paint10_linear_18277_59727" x1="6.43622" y1="6.69652" x2="3.83489" y2="8.40699" gradientUnits="userSpaceOnUse">
<stop offset="0.0108" stop-color="#F2FCFF"/>
<stop offset="0.4337" stop-color="#F2F1FF"/>
<stop offset="1" stop-color="#F2E7FF"/>
</linearGradient>
<linearGradient id="paint11_linear_18277_59727" x1="9.93329" y1="15.6715" x2="11.136" y2="15.2706" gradientUnits="userSpaceOnUse">
<stop offset="0.0108" stop-color="#F2FCFF"/>
<stop offset="0.4337" stop-color="#F2F1FF"/>
<stop offset="1" stop-color="#F2E7FF"/>
</linearGradient>
<linearGradient id="paint12_linear_18277_59727" x1="5.75212" y1="15.0209" x2="10.9904" y2="11.0298" gradientUnits="userSpaceOnUse">
<stop offset="0.0108" stop-color="#F2FCFF"/>
<stop offset="0.4337" stop-color="#F2F1FF"/>
<stop offset="1" stop-color="#F2E7FF"/>
</linearGradient>
<linearGradient id="paint13_linear_18277_59727" x1="5.75212" y1="15.0209" x2="10.9904" y2="11.0298" gradientUnits="userSpaceOnUse">
<stop offset="0.0108" stop-color="#F2FCFF"/>
<stop offset="0.4337" stop-color="#F2F1FF"/>
<stop offset="1" stop-color="#F2E7FF"/>
</linearGradient>
<linearGradient id="paint14_linear_18277_59727" x1="14.8289" y1="3.80935" x2="7.45257" y2="8.01422" gradientUnits="userSpaceOnUse">
<stop offset="0.0108" stop-color="#F2FCFF"/>
<stop offset="0.4337" stop-color="#F2F1FF"/>
<stop offset="1" stop-color="#F2E7FF"/>
</linearGradient>
</defs>
</svg>
