<svg width="24" height="24" viewBox="0 0 24 24" fill="none" xmlns="http://www.w3.org/2000/svg">
<g clip-path="url(#clip0_19639_5694)">
<g clip-path="url(#paint0_diamond_19639_5694_clip_path)" data-figma-skip-parse="true"><g transform="matrix(0 0.0155 -0.0218301 0 12 9.5)"><rect x="0" y="0" width="1096.77" height="618.412" fill="url(#paint0_diamond_19639_5694)" opacity="1" shape-rendering="crispEdges"/><rect x="0" y="0" width="1096.77" height="618.412" transform="scale(1 -1)" fill="url(#paint0_diamond_19639_5694)" opacity="1" shape-rendering="crispEdges"/><rect x="0" y="0" width="1096.77" height="618.412" transform="scale(-1 1)" fill="url(#paint0_diamond_19639_5694)" opacity="1" shape-rendering="crispEdges"/><rect x="0" y="0" width="1096.77" height="618.412" transform="scale(-1)" fill="url(#paint0_diamond_19639_5694)" opacity="1" shape-rendering="crispEdges"/></g></g><path d="M1.93841 12.7147L8.28648 20.4657L8.28649 20.4657C9.55928 22.0198 10.1957 22.7969 10.9605 23.0794C11.6314 23.3272 12.3686 23.3272 13.0395 23.0794C13.8043 22.7969 14.4407 22.0198 15.7135 20.4657L22.0616 12.7147C22.764 11.857 23.1152 11.4281 23.29 10.943C23.4445 10.514 23.4992 10.0555 23.45 9.60231C23.3943 9.08964 23.1539 8.59019 22.673 7.5913L21.2446 4.62398C20.6119 3.30969 20.2955 2.65254 19.8149 2.17186C19.39 1.74685 18.8748 1.42305 18.3075 1.22452C17.6659 1 16.9366 1 15.478 1H8.52204C7.06338 1 6.33406 1 5.69249 1.22452C5.12523 1.42305 4.60999 1.74685 4.18506 2.17186C3.70447 2.65254 3.38813 3.30969 2.75543 4.62398L1.32698 7.5913C0.846115 8.5902 0.605684 9.08964 0.549999 9.60231C0.50077 10.0555 0.555488 10.514 0.709997 10.943C0.884764 11.4281 1.23598 11.857 1.93841 12.7147Z" data-figma-gradient-fill="{&#34;type&#34;:&#34;GRADIENT_DIAMOND&#34;,&#34;stops&#34;:[{&#34;color&#34;:{&#34;r&#34;:1.0,&#34;g&#34;:1.0,&#34;b&#34;:1.0,&#34;a&#34;:1.0},&#34;position&#34;:0.0},{&#34;color&#34;:{&#34;r&#34;:0.75975406169891357,&#34;g&#34;:0.79274356365203857,&#34;b&#34;:0.83173078298568726,&#34;a&#34;:1.0},&#34;position&#34;:0.64999997615814209},{&#34;color&#34;:{&#34;r&#34;:0.51867604255676270,&#34;g&#34;:0.54548817873001099,&#34;b&#34;:0.57692307233810425,&#34;a&#34;:1.0},&#34;position&#34;:1.0}],&#34;stopsVar&#34;:[{&#34;color&#34;:{&#34;r&#34;:1.0,&#34;g&#34;:1.0,&#34;b&#34;:1.0,&#34;a&#34;:1.0},&#34;position&#34;:0.0},{&#34;color&#34;:{&#34;r&#34;:0.75975406169891357,&#34;g&#34;:0.79274356365203857,&#34;b&#34;:0.83173078298568726,&#34;a&#34;:1.0},&#34;position&#34;:0.64999997615814209},{&#34;color&#34;:{&#34;r&#34;:0.51867604255676270,&#34;g&#34;:0.54548817873001099,&#34;b&#34;:0.57692307233810425,&#34;a&#34;:1.0},&#34;position&#34;:1.0}],&#34;transform&#34;:{&#34;m00&#34;:3.9918736718935754e-12,&#34;m01&#34;:-43.660243988037109,&#34;m02&#34;:33.830120086669922,&#34;m10&#34;:31.0,&#34;m11&#34;:3.0298770437031664e-11,&#34;m12&#34;:-6.0},&#34;opacity&#34;:1.0,&#34;blendMode&#34;:&#34;NORMAL&#34;,&#34;visible&#34;:true}"/>
<g clip-path="url(#paint1_diamond_19639_5694_clip_path)" data-figma-skip-parse="true"><g transform="matrix(-0.007 0.0134186 -0.0134186 -0.007 14.5 8.5)"><rect x="0" y="0" width="1543.43" height="1212.34" fill="url(#paint1_diamond_19639_5694)" opacity="1" shape-rendering="crispEdges"/><rect x="0" y="0" width="1543.43" height="1212.34" transform="scale(1 -1)" fill="url(#paint1_diamond_19639_5694)" opacity="1" shape-rendering="crispEdges"/><rect x="0" y="0" width="1543.43" height="1212.34" transform="scale(-1 1)" fill="url(#paint1_diamond_19639_5694)" opacity="1" shape-rendering="crispEdges"/><rect x="0" y="0" width="1543.43" height="1212.34" transform="scale(-1)" fill="url(#paint1_diamond_19639_5694)" opacity="1" shape-rendering="crispEdges"/></g></g><path d="M1.93841 12.7147L8.28648 20.4657L8.28649 20.4657C9.55928 22.0198 10.1957 22.7969 10.9605 23.0794C11.6314 23.3272 12.3686 23.3272 13.0395 23.0794C13.8043 22.7969 14.4407 22.0198 15.7135 20.4657L22.0616 12.7147C22.764 11.857 23.1152 11.4281 23.29 10.943C23.4445 10.514 23.4992 10.0555 23.45 9.60231C23.3943 9.08964 23.1539 8.59019 22.673 7.5913L21.2446 4.62398C20.6119 3.30969 20.2955 2.65254 19.8149 2.17186C19.39 1.74685 18.8748 1.42305 18.3075 1.22452C17.6659 1 16.9366 1 15.478 1H8.52204C7.06338 1 6.33406 1 5.69249 1.22452C5.12523 1.42305 4.60999 1.74685 4.18506 2.17186C3.70447 2.65254 3.38813 3.30969 2.75543 4.62398L1.32698 7.5913C0.846115 8.5902 0.605684 9.08964 0.549999 9.60231C0.50077 10.0555 0.555488 10.514 0.709997 10.943C0.884764 11.4281 1.23598 11.857 1.93841 12.7147Z" data-figma-gradient-fill="{&#34;type&#34;:&#34;GRADIENT_DIAMOND&#34;,&#34;stops&#34;:[{&#34;color&#34;:{&#34;r&#34;:1.0,&#34;g&#34;:1.0,&#34;b&#34;:1.0,&#34;a&#34;:1.0},&#34;position&#34;:0.0},{&#34;color&#34;:{&#34;r&#34;:1.0,&#34;g&#34;:1.0,&#34;b&#34;:1.0,&#34;a&#34;:0.0},&#34;position&#34;:0.40000000596046448}],&#34;stopsVar&#34;:[{&#34;color&#34;:{&#34;r&#34;:1.0,&#34;g&#34;:1.0,&#34;b&#34;:1.0,&#34;a&#34;:1.0},&#34;position&#34;:0.0},{&#34;color&#34;:{&#34;r&#34;:1.0,&#34;g&#34;:1.0,&#34;b&#34;:1.0,&#34;a&#34;:0.0},&#34;position&#34;:0.40000000596046448}],&#34;transform&#34;:{&#34;m00&#34;:-14.000002861022949,&#34;m01&#34;:-26.837169647216797,&#34;m02&#34;:34.918586730957031,&#34;m10&#34;:26.837169647216797,&#34;m11&#34;:-14.000002861022949,&#34;m12&#34;:2.0814173221588135},&#34;opacity&#34;:1.0,&#34;blendMode&#34;:&#34;NORMAL&#34;,&#34;visible&#34;:true}"/>
</g>
<defs>
<clipPath id="paint0_diamond_19639_5694_clip_path"><path d="M1.93841 12.7147L8.28648 20.4657L8.28649 20.4657C9.55928 22.0198 10.1957 22.7969 10.9605 23.0794C11.6314 23.3272 12.3686 23.3272 13.0395 23.0794C13.8043 22.7969 14.4407 22.0198 15.7135 20.4657L22.0616 12.7147C22.764 11.857 23.1152 11.4281 23.29 10.943C23.4445 10.514 23.4992 10.0555 23.45 9.60231C23.3943 9.08964 23.1539 8.59019 22.673 7.5913L21.2446 4.62398C20.6119 3.30969 20.2955 2.65254 19.8149 2.17186C19.39 1.74685 18.8748 1.42305 18.3075 1.22452C17.6659 1 16.9366 1 15.478 1H8.52204C7.06338 1 6.33406 1 5.69249 1.22452C5.12523 1.42305 4.60999 1.74685 4.18506 2.17186C3.70447 2.65254 3.38813 3.30969 2.75543 4.62398L1.32698 7.5913C0.846115 8.5902 0.605684 9.08964 0.549999 9.60231C0.50077 10.0555 0.555488 10.514 0.709997 10.943C0.884764 11.4281 1.23598 11.857 1.93841 12.7147Z"/></clipPath><clipPath id="paint1_diamond_19639_5694_clip_path"><path d="M1.93841 12.7147L8.28648 20.4657L8.28649 20.4657C9.55928 22.0198 10.1957 22.7969 10.9605 23.0794C11.6314 23.3272 12.3686 23.3272 13.0395 23.0794C13.8043 22.7969 14.4407 22.0198 15.7135 20.4657L22.0616 12.7147C22.764 11.857 23.1152 11.4281 23.29 10.943C23.4445 10.514 23.4992 10.0555 23.45 9.60231C23.3943 9.08964 23.1539 8.59019 22.673 7.5913L21.2446 4.62398C20.6119 3.30969 20.2955 2.65254 19.8149 2.17186C19.39 1.74685 18.8748 1.42305 18.3075 1.22452C17.6659 1 16.9366 1 15.478 1H8.52204C7.06338 1 6.33406 1 5.69249 1.22452C5.12523 1.42305 4.60999 1.74685 4.18506 2.17186C3.70447 2.65254 3.38813 3.30969 2.75543 4.62398L1.32698 7.5913C0.846115 8.5902 0.605684 9.08964 0.549999 9.60231C0.50077 10.0555 0.555488 10.514 0.709997 10.943C0.884764 11.4281 1.23598 11.857 1.93841 12.7147Z"/></clipPath><linearGradient id="paint0_diamond_19639_5694" x1="0" y1="0" x2="500" y2="500" gradientUnits="userSpaceOnUse">
<stop stop-color="white"/>
<stop offset="0.65" stop-color="#C2CAD4"/>
<stop offset="1" stop-color="#848B93"/>
</linearGradient>
<linearGradient id="paint1_diamond_19639_5694" x1="0" y1="0" x2="500" y2="500" gradientUnits="userSpaceOnUse">
<stop stop-color="white"/>
<stop offset="0.4" stop-color="white" stop-opacity="0"/>
</linearGradient>
<clipPath id="clip0_19639_5694">
<rect width="24" height="24" fill="white"/>
</clipPath>
</defs>
</svg>
