<svg width="23" height="22" viewBox="0 0 23 22" fill="none" xmlns="http://www.w3.org/2000/svg">
<path d="M3.07203 10.7293C3.07203 10.7293 3.9412 12.0062 5.7629 13.087C5.7629 13.087 4.44355 1.93656 13.04 0C10.8376 8.08332 15.8416 10.3629 17.6656 6.09237C20.7118 10.1594 18.3989 13.7077 18.3989 13.7077C19.648 13.8876 20.6972 12.523 20.6972 12.523C20.7066 12.6911 20.7118 12.8604 20.7118 13.0308C20.7119 17.9844 16.6962 22 11.7426 22C6.78908 22 2.77344 17.9844 2.77344 13.0308C2.77344 12.2351 2.87759 11.4638 3.07203 10.7293Z" fill="#FF6536"/>
<path d="M20.6968 12.523C20.6968 12.523 19.6476 13.8876 18.3985 13.7077C18.3985 13.7077 20.7114 10.1594 17.6652 6.09237C15.8411 10.3629 10.8371 8.08332 13.0396 0C12.5792 0.103727 12.1474 0.234051 11.7422 0.387492V22C16.6958 22 20.7114 17.9844 20.7114 13.0308C20.7114 12.8603 20.7062 12.6911 20.6968 12.523Z" fill="#FF421D"/>
<path d="M7.8125 18.0659C7.8125 20.2383 9.57362 21.9994 11.746 21.9994C13.9184 21.9994 15.6796 20.2383 15.6796 18.0659C15.6796 16.9031 15.1751 15.8582 14.373 15.1381C12.8521 17.2042 10.6849 14.07 12.3739 11.7812C12.3739 11.7812 7.8125 12.3529 7.8125 18.0659Z" fill="#FBBF00"/>
<path d="M15.6757 18.0659C15.6757 16.9031 15.1712 15.8582 14.3691 15.1381C12.8483 17.2042 10.681 14.07 12.37 11.7812C12.37 11.7812 12.1222 11.8124 11.7422 11.9323V21.9994C13.9146 21.9994 15.6757 20.2383 15.6757 18.0659Z" fill="#FFA900"/>
</svg>
