<svg width="54" height="37" viewBox="0 0 54 37" fill="none" xmlns="http://www.w3.org/2000/svg">
<g clip-path="url(#clip0_18606_52410)">
<mask id="mask0_18606_52410" style="mask-type:alpha" maskUnits="userSpaceOnUse" x="0" y="6" width="30" height="22">
<path d="M26.6785 6.03125H2.80826C1.2573 6.03125 0 7.31649 0 8.90192V24.6906C0 26.276 1.2573 27.5613 2.80826 27.5613H26.6785C28.2295 27.5613 29.4868 26.276 29.4868 24.6906V8.90192C29.4868 7.31649 28.2295 6.03125 26.6785 6.03125Z" fill="white"/>
</mask>
<g mask="url(#mask0_18606_52410)">
<path d="M26.6785 6.03125H2.80826C1.2573 6.03125 0 7.31649 0 8.90192V24.6906C0 26.276 1.2573 27.5613 2.80826 27.5613H26.6785C28.2295 27.5613 29.4868 26.276 29.4868 24.6906V8.90192C29.4868 7.31649 28.2295 6.03125 26.6785 6.03125Z" fill="#00AFCC"/>
<path fill-rule="evenodd" clip-rule="evenodd" d="M2.80859 9.60893C2.80859 9.21708 3.13435 8.89844 3.51066 8.89844C3.8982 8.89844 4.21273 9.20847 4.21273 9.60893V12.494C4.21273 12.8858 3.88697 13.2044 3.51066 13.2044C3.12312 13.2044 2.80859 12.8944 2.80859 12.494V9.60893ZM4.21273 12.4796C4.21273 12.0878 4.53848 11.7691 4.91479 11.7691C5.30233 11.7691 5.61686 12.0791 5.61686 12.4796V15.3646C5.61686 15.7565 5.2911 16.0751 4.91479 16.0751C4.52725 16.0751 4.21273 15.7651 4.21273 15.3646V12.4796ZM4.21273 18.2209C4.21273 17.8291 4.53848 17.5104 4.91479 17.5104C5.30233 17.5104 5.61686 17.8205 5.61686 18.2209V21.106C5.61686 21.4978 5.2911 21.8165 4.91479 21.8165C4.52725 21.8165 4.21273 21.5064 4.21273 21.106V18.2209ZM2.80859 21.0916C2.80859 20.6998 3.13435 20.3811 3.51066 20.3811C3.8982 20.3811 4.21273 20.6911 4.21273 21.0916V23.9766C4.21273 24.3685 3.88697 24.6871 3.51066 24.6871C3.12312 24.6871 2.80859 24.3771 2.80859 23.9766V21.0916ZM2.80859 15.3574C2.80859 14.9613 3.13435 14.6398 3.51066 14.6398C3.8982 14.6398 4.21273 14.9728 4.21273 15.3574C4.21273 15.7536 3.88697 16.0751 3.51066 16.0751C3.12312 16.0751 2.80859 15.7421 2.80859 15.3574ZM4.21273 9.6161C4.21273 9.21995 4.53848 8.89844 4.91479 8.89844C5.30233 8.89844 5.61686 9.23144 5.61686 9.6161C5.61686 10.0123 5.2911 10.3338 4.91479 10.3338C4.52725 10.3338 4.21273 10.0008 4.21273 9.6161ZM2.80859 16.7928C2.80859 16.3966 3.13435 16.0751 3.51066 16.0751C3.8982 16.0751 4.21273 16.4081 4.21273 16.7928C4.21273 17.1889 3.88697 17.5104 3.51066 17.5104C3.12312 17.5104 2.80859 17.1774 2.80859 16.7928ZM4.21273 23.9695C4.21273 23.5733 4.53848 23.2518 4.91479 23.2518C5.30233 23.2518 5.61686 23.5848 5.61686 23.9695C5.61686 24.3656 5.2911 24.6871 4.91479 24.6871C4.52725 24.6871 4.21273 24.3541 4.21273 23.9695ZM2.80859 18.2281C2.80859 17.832 3.13435 17.5104 3.51066 17.5104C3.8982 17.5104 4.21273 17.8434 4.21273 18.2281C4.21273 18.6243 3.88697 18.9458 3.51066 18.9458C3.12312 18.9458 2.80859 18.6128 2.80859 18.2281Z" fill="#DAC21D"/>
<path d="M16.147 18.9501C18.0858 18.9501 19.6574 17.3436 19.6574 15.3618C19.6574 13.38 18.0858 11.7734 16.147 11.7734C14.2083 11.7734 12.6367 13.38 12.6367 15.3618C12.6367 17.3436 14.2083 18.9501 16.147 18.9501Z" fill="#FFC600"/>
<path fill-rule="evenodd" clip-rule="evenodd" d="M11.2334 16.0781L12.6375 18.9488L16.1479 20.3841L19.6582 18.9488L21.0623 16.0781V20.3841L16.1479 21.8195L11.2334 20.3841V16.0781Z" fill="#FFC600"/>
<path d="M26.6786 6.75H2.80835C1.64513 6.75 0.702148 7.71393 0.702148 8.903V24.6917C0.702148 25.8808 1.64513 26.8447 2.80835 26.8447H26.6786C27.8418 26.8447 28.7848 25.8808 28.7848 24.6917V8.903C28.7848 7.71393 27.8418 6.75 26.6786 6.75Z" stroke="black" stroke-opacity="0.1"/>
</g>
</g>
<g clip-path="url(#clip1_18606_52410)">
<mask id="mask1_18606_52410" style="mask-type:alpha" maskUnits="userSpaceOnUse" x="13" y="12" width="32" height="24">
<path d="M40.0227 12.663L15.8445 14.5163C14.2735 14.6368 13.0982 16.0159 13.2194 17.5966L14.4261 33.3391C14.5473 34.9199 15.9191 36.1038 17.49 35.9834L41.6682 34.13C43.2392 34.0096 44.4145 32.6305 44.2933 31.0497L43.0866 15.3072C42.9654 13.7264 41.5937 12.5425 40.0227 12.663Z" fill="white"/>
</mask>
<g mask="url(#mask1_18606_52410)">
<path d="M40.0227 12.663L15.8445 14.5163C14.2735 14.6368 13.0982 16.0159 13.2194 17.5966L14.4261 33.3391C14.5473 34.9199 15.9191 36.1038 17.49 35.9834L41.6682 34.13C43.2392 34.0096 44.4145 32.6305 44.2933 31.0497L43.0866 15.3072C42.9654 13.7264 41.5937 12.5425 40.0227 12.663Z" fill="#EB0624"/>
<path fill-rule="evenodd" clip-rule="evenodd" d="M28.5563 27.1938C28.6953 27.1975 28.8352 27.194 28.976 27.1832C29.1183 27.1723 29.2557 27.1545 29.3925 27.1297L28.8938 26.1098L28.5563 27.1938ZM26.5679 26.5616C25.7786 26.0262 25.2473 25.1974 25.1736 24.2357C25.0866 23.1008 25.6587 22.0536 26.5933 21.4061L28.0455 24.3754L26.5679 26.5616ZM30.4504 21.1104C31.4728 21.6079 32.1978 22.5557 32.2848 23.6906C32.3587 24.6537 31.9584 25.5539 31.2613 26.2019L29.4678 24.2664L30.4504 21.1104ZM30.3021 21.0412C29.7546 20.8039 29.1338 20.6931 28.4824 20.7431C27.831 20.793 27.2329 20.9972 26.7294 21.3151L28.688 23.425L30.3021 21.0412Z" fill="#FFF100"/>
<path fill-rule="evenodd" clip-rule="evenodd" d="M29.2497 30.7646C32.784 30.4937 35.4288 27.3903 35.1562 23.8339C34.8836 20.2775 31.7967 17.6135 28.2624 17.8844C24.7281 18.1553 22.0834 21.2587 22.356 24.8151C22.6286 28.3715 25.7155 31.0355 29.2497 30.7646ZM29.14 29.3335C31.8892 29.1228 33.946 26.7093 33.7339 23.9429C33.5219 21.1766 31.1213 19.1048 28.3721 19.3155C25.6229 19.5263 23.5662 21.9397 23.7782 24.7061C23.9903 27.4725 26.3908 29.5442 29.14 29.3335Z" fill="#FFF100"/>
<path d="M40.0772 13.3815L15.899 15.2349C14.7208 15.3252 13.8393 16.3595 13.9302 17.5451L15.1369 33.2876C15.2278 34.4732 16.2566 35.3611 17.4348 35.2708L41.613 33.4174C42.7913 33.3271 43.6727 32.2928 43.5819 31.1072L42.3751 15.3647C42.2842 14.1791 41.2554 13.2912 40.0772 13.3815Z" stroke="black" stroke-opacity="0.1"/>
</g>
</g>
<mask id="mask2_18606_52410" style="mask-type:alpha" maskUnits="userSpaceOnUse" x="22" y="0" width="31" height="24">
<path d="M48.6005 0.218764L24.8 2.04318C23.2536 2.16172 22.0982 3.5393 22.2194 5.12009L23.4261 20.8626C23.5473 22.4434 24.8992 23.6288 26.4456 23.5102L50.246 21.6858C51.7924 21.5673 52.9478 20.1897 52.8267 18.6089L51.6199 2.8664C51.4988 1.28561 50.1469 0.100223 48.6005 0.218764Z" fill="white"/>
</mask>
<g mask="url(#mask2_18606_52410)">
<path d="M48.6005 0.218764L24.8 2.04318C23.2536 2.16172 22.0982 3.5393 22.2194 5.12009L23.4261 20.8626C23.5473 22.4434 24.8992 23.6288 26.4456 23.5102L50.246 21.6858C51.7924 21.5673 52.9478 20.1897 52.8267 18.6089L51.6199 2.8664C51.4988 1.28561 50.1469 0.100223 48.6005 0.218764Z" fill="#D4112A"/>
<path fill-rule="evenodd" clip-rule="evenodd" d="M23.207 18L52.6076 15.7463L53.0464 21.4709L23.6458 23.7245L23.207 18Z" fill="#20BD42"/>
<path fill-rule="evenodd" clip-rule="evenodd" d="M22 2.25781L51.4005 0.00412697L51.8393 5.72867L22.4388 7.98236L22 2.25781Z" fill="#02A3BD"/>
<path fill-rule="evenodd" clip-rule="evenodd" d="M22.5482 9.41204L51.9487 7.15836L52.4972 14.314L23.0967 16.5677L22.5482 9.41204ZM29.4293 7.32267C29.2169 7.41812 28.9836 7.4792 28.7386 7.49798C27.5794 7.58684 26.5648 6.69723 26.474 5.51225C26.3832 4.32727 27.2503 3.29343 28.4095 3.20457C28.6545 3.18579 28.8944 3.21058 29.1188 3.27255C28.3252 3.62994 27.8024 4.4704 27.874 5.40493C27.9457 6.33946 28.5906 7.09185 29.4293 7.32267Z" fill="white"/>
<path fill-rule="evenodd" clip-rule="evenodd" d="M30.6195 4.47801L32.0195 4.37069L32.1292 5.80183L30.7292 5.90915L30.6195 4.47801ZM31.9098 2.93956L33.3098 2.83224L33.4195 4.26337L32.0195 4.37069L31.9098 2.93956ZM33.4195 4.26337L34.8195 4.15606L34.9292 5.58719L33.5292 5.69451L33.4195 4.26337ZM34.7098 2.72492L36.1099 2.6176L36.2196 4.04874L34.8195 4.15606L34.7098 2.72492ZM36.2196 4.04874L37.6196 3.94142L37.7293 5.37256L36.3293 5.47987L36.2196 4.04874ZM34.9292 5.58719L36.3293 5.47987L36.439 6.91101L35.039 7.01833L34.9292 5.58719ZM32.1292 5.80183L33.5292 5.69451L33.6389 7.12565L32.2389 7.23297L32.1292 5.80183Z" fill="#78CDDB"/>
<path d="M48.6553 0.936485L24.8549 2.7609C23.6951 2.8498 22.8286 3.88299 22.9194 5.06858L24.1262 20.8111C24.2171 21.9967 25.2309 22.8857 26.3908 22.7968L50.1912 20.9724C51.351 20.8835 52.2175 19.8503 52.1267 18.6647L50.9199 2.92221C50.829 1.73662 49.8152 0.84758 48.6553 0.936485Z" stroke="black" stroke-opacity="0.1"/>
</g>
<defs>
<clipPath id="clip0_18606_52410">
<rect width="29.4868" height="21.53" fill="white" transform="translate(0 6.03125)"/>
</clipPath>
<clipPath id="clip1_18606_52410">
<rect width="29.9548" height="21.53" fill="white" transform="translate(13 14.7344) rotate(-4.38341)"/>
</clipPath>
</defs>
</svg>
