<svg width="24" height="24" viewBox="0 0 24 24" fill="none" xmlns="http://www.w3.org/2000/svg">
<path d="M12.9286 2.53434L16.2263 6.55919C16.385 6.75287 16.591 6.90244 16.8242 6.99354L21.6712 8.88609C22.5291 9.22108 22.8659 10.2575 22.3687 11.0328L19.5598 15.4128C19.4247 15.6237 19.346 15.8657 19.3315 16.1157L19.0293 21.3103C18.9758 22.2297 18.0942 22.8702 17.2032 22.6369L12.1695 21.3191C11.9272 21.2557 11.6728 21.2557 11.4305 21.3191L6.39681 22.6369C5.50588 22.8702 4.62422 22.2297 4.5708 21.3103L4.26859 16.1157C4.254 15.8657 4.17542 15.6237 4.0402 15.4128L1.23139 11.0328C0.734204 10.2575 1.07092 9.22113 1.92888 8.88613L6.77577 6.99359C7.00905 6.90249 7.21492 6.75292 7.37366 6.55924L10.6714 2.53439C11.2552 1.82188 12.3448 1.82188 12.9286 2.53434Z" fill="url(#paint0_linear_18277_59723)"/>
<path d="M15.7382 6.13146C15.8496 6.2673 15.99 6.3716 16.1409 6.45906L12.9248 2.53391C12.8073 2.39053 12.6659 2.28392 12.5156 2.19824L15.7382 6.13146Z" fill="url(#paint1_linear_18277_59723)"/>
<path d="M21.8343 8.97266C22.1663 9.4384 22.2196 10.0794 21.8826 10.605L19.0737 14.985C18.9386 15.1959 18.8599 15.4379 18.8454 15.6879L18.5432 20.8825C18.4897 21.802 17.6081 22.4424 16.7171 22.2091L11.6834 20.8914C11.4412 20.8279 11.1867 20.8279 10.9444 20.8914L5.91071 22.2091C5.53242 22.3082 5.1599 22.2428 4.84766 22.0723C5.1861 22.5409 5.78505 22.7961 6.39498 22.6365L11.4286 21.3186C11.671 21.2553 11.9255 21.2553 12.1677 21.3186L17.2014 22.6365C18.0924 22.8697 18.974 22.2292 19.0274 21.3097L19.3296 16.1152C19.3441 15.8653 19.4228 15.6232 19.558 15.4124L22.3668 11.0323C22.8294 10.3109 22.5637 9.37086 21.8343 8.97266Z" fill="url(#paint2_linear_18277_59723)"/>
<g opacity="0.4">
<path d="M21.6697 8.88613L16.8228 6.99358C16.5895 6.90248 16.3836 6.75291 16.2248 6.55923L12.9271 2.53438C12.3433 1.82187 11.2536 1.82187 10.6699 2.53438L7.37218 6.55923C7.21345 6.75291 7.00757 6.90248 6.77429 6.99358L1.9274 8.88613C1.54081 9.03714 1.2674 9.33358 1.12109 9.6813C1.27925 9.45531 1.49722 9.26634 1.77788 9.1567L6.62477 7.26416C6.8581 7.17306 7.06397 7.02349 7.22266 6.82981L10.5204 2.80496C11.1041 2.09254 12.1939 2.09254 12.7776 2.80496L16.0753 6.82981C16.234 7.02349 16.4399 7.17306 16.6732 7.26416L21.5201 9.1567C22.3211 9.46947 22.6582 10.3911 22.2962 11.1433L22.3672 11.0328C22.8643 10.2575 22.5276 9.22112 21.6697 8.88613Z" fill="#FFFAB9"/>
<path d="M19.4082 15.6833C19.273 15.8942 19.1943 16.1362 19.1798 16.3862L18.8776 21.5808C18.8675 21.7529 18.8205 21.9108 18.7578 22.0596C18.9082 21.8463 19.0106 21.5942 19.0271 21.3101L19.3293 16.1156C19.3408 15.9186 19.4027 15.7314 19.4901 15.5557L19.4082 15.6833Z" fill="#FFFAB9"/>
</g>
<g opacity="0.3">
<path d="M17.24 22.5623L12.2063 21.2446C11.9641 21.1811 11.7096 21.1811 11.4673 21.2446L6.4336 22.5623C5.54267 22.7956 4.6611 22.1551 4.60758 21.2357L4.30538 16.0411C4.29078 15.791 4.21216 15.5491 4.07694 15.3383L1.26818 10.9582C0.970816 10.4945 0.97696 9.93965 1.20928 9.49512C0.936736 9.95064 0.916624 10.5436 1.23064 11.0333L4.03941 15.4133C4.17462 15.6242 4.2532 15.8662 4.26779 16.1162L4.5699 21.3107C4.62338 22.2301 5.50504 22.8707 6.39597 22.6374L11.4296 21.3196C11.6719 21.2562 11.9265 21.2562 12.1687 21.3196L17.2024 22.6374C17.8911 22.8177 18.5695 22.4731 18.8689 21.8839C18.5518 22.4274 17.8995 22.735 17.24 22.5623Z" fill="url(#paint3_linear_18277_59723)"/>
<path d="M19.5963 15.3378C19.5836 15.3576 19.5781 15.3807 19.5664 15.401L22.3676 11.0328C22.3822 11.01 22.3892 10.9851 22.4024 10.9619L19.5963 15.3378Z" fill="url(#paint4_linear_18277_59723)"/>
</g>
<g opacity="0.4">
<path d="M17.4721 22.1673L12.4384 20.8494C12.1961 20.7859 11.9416 20.7859 11.6993 20.8494L6.66572 22.1672C5.7747 22.4005 4.89313 21.76 4.83966 20.8405L4.53745 15.6459C4.52295 15.3959 4.44423 15.1539 4.30902 14.9432L1.50025 10.563C1.24671 10.1677 1.2123 9.70525 1.35102 9.30176C0.951754 9.77158 0.868378 10.4697 1.22963 11.033L4.03839 15.4131C4.17361 15.6239 4.25219 15.8659 4.26678 16.1159L4.56889 21.3104C4.62236 22.2299 5.50403 22.8704 6.39495 22.6372L11.4286 21.3193C11.6709 21.256 11.9255 21.256 12.1677 21.3193L17.2013 22.6372C17.9527 22.8339 18.6914 22.4058 18.9384 21.7164C18.5893 22.1139 18.033 22.3141 17.4721 22.1673Z" fill="url(#paint5_linear_18277_59723)"/>
<path d="M19.829 14.9427C19.7922 15.0001 19.7704 15.0645 19.7422 15.1261L22.3672 11.0326C22.4095 10.9664 22.4377 10.8965 22.4682 10.8271L19.829 14.9427Z" fill="url(#paint6_linear_18277_59723)"/>
</g>
<path opacity="0.4" d="M12.9436 3.53671L15.8405 7.07239C15.9799 7.2426 16.1608 7.37393 16.3657 7.45399L20.6235 9.11657C21.3773 9.41081 21.673 10.3213 21.2362 11.0023L18.7688 14.85C18.6501 15.0352 18.581 15.2479 18.5682 15.4675L18.3027 20.0306C18.2557 20.8383 17.4813 21.401 16.6987 21.1961L12.2767 20.0385C12.064 19.9828 11.8404 19.9828 11.6276 20.0385L7.20569 21.1961C6.42301 21.401 5.64862 20.8383 5.60163 20.0306L5.33614 15.4675C5.32337 15.2479 5.25425 15.0352 5.13555 14.85L2.66811 11.0023C2.23136 10.3212 2.52713 9.41081 3.28083 9.11657L7.53867 7.45399C7.74358 7.37398 7.92445 7.2426 8.06384 7.07239L10.9607 3.53671C11.4735 2.91094 12.4308 2.91094 12.9436 3.53671Z" fill="url(#paint7_linear_18277_59723)"/>
<path opacity="0.3" d="M12.5218 4.09639L15.4187 7.63202C15.5582 7.80223 15.739 7.93356 15.9439 8.01363L20.2017 9.67615C20.9554 9.97039 21.2512 10.8809 20.8145 11.5619L18.347 15.4096C18.2282 15.5947 18.1592 15.8074 18.1463 16.027L17.8809 20.5902C17.8339 21.398 17.0595 21.9606 16.2768 21.7557L11.8549 20.5981C11.6421 20.5423 11.4186 20.5423 11.2057 20.5981L6.78387 21.7557C6.00113 21.9606 5.2267 21.398 5.17971 20.5902L4.91431 16.027C4.9015 15.8074 4.83243 15.5947 4.71363 15.4096L2.24623 11.5619C1.80948 10.8808 2.10526 9.97039 2.85895 9.67615L7.11675 8.01363C7.32166 7.93356 7.50257 7.80223 7.64196 7.63202L10.5389 4.09639C11.0518 3.47047 12.009 3.47047 12.5218 4.09639Z" fill="url(#paint8_linear_18277_59723)"/>
<path d="M12.7912 3.7262L15.6881 7.26188C15.8276 7.432 16.0084 7.56342 16.2133 7.64348L20.4711 9.30601C21.2248 9.60025 21.5206 10.5107 21.0838 11.1917L18.6164 15.0394C18.4977 15.2246 18.4286 15.4372 18.4158 15.6569L18.1504 20.2201C18.1034 21.0278 17.3289 21.5905 16.5462 21.3855L12.1244 20.2279C11.9116 20.1722 11.688 20.1722 11.4752 20.2279L7.0533 21.3855C6.27061 21.5905 5.49613 21.0278 5.44924 20.2201L5.1838 15.6569C5.17103 15.4372 5.10191 15.2246 4.98316 15.0394L2.51576 11.1917C2.07901 10.5107 2.37479 9.60025 3.12853 9.30601L7.38628 7.64348C7.59119 7.56347 7.7721 7.432 7.91149 7.26188L10.8084 3.7262C11.3212 3.10038 12.2784 3.10038 12.7912 3.7262Z" fill="url(#paint9_linear_18277_59723)"/>
<path d="M12.7275 4.29952L15.4319 7.60014C15.562 7.75893 15.7309 7.88166 15.9221 7.9563L19.8969 9.50834C20.6005 9.78309 20.8767 10.633 20.4689 11.2687L18.1655 14.8607C18.0546 15.0336 17.9902 15.232 17.9782 15.4371L17.7304 19.6969C17.6865 20.4509 16.9636 20.9762 16.2329 20.7849L12.105 19.7043C11.9063 19.6522 11.6977 19.6522 11.4989 19.7043L7.37099 20.7849C6.64029 20.9762 5.91736 20.4509 5.87349 19.6969L5.62566 15.4371C5.61381 15.232 5.5493 15.0335 5.43842 14.8607L3.13509 11.2687C2.72733 10.633 3.00347 9.78309 3.70706 9.50834L7.68179 7.9563C7.87317 7.88166 8.04198 7.75893 8.17211 7.60014L10.8765 4.29952C11.3552 3.71526 12.2488 3.71526 12.7275 4.29952Z" fill="url(#paint10_linear_18277_59723)"/>
<path d="M12.6951 4.55418L15.3139 7.75031C15.44 7.90415 15.6035 8.0229 15.7887 8.09524L19.6377 9.59821C20.319 9.86423 20.5863 10.6872 20.1916 11.3029L17.9611 14.7812C17.8537 14.9485 17.7913 15.1408 17.7798 15.3393L17.5398 19.4643C17.4973 20.1945 16.7973 20.7031 16.0897 20.5179L12.0925 19.4714C11.9001 19.4211 11.698 19.4211 11.5056 19.4714L7.50836 20.5179C6.80074 20.7032 6.10071 20.1945 6.05828 19.4643L5.81832 15.3393C5.80676 15.1408 5.74431 14.9485 5.63688 14.7812L3.40642 11.3029C3.01157 10.6873 3.27898 9.86427 3.96029 9.59821L7.80927 8.09524C7.99455 8.0229 8.15808 7.9041 8.28404 7.75031L10.9028 4.55418C11.3663 3.98845 12.2317 3.98845 12.6951 4.55418Z" fill="url(#paint11_linear_18277_59723)"/>
<g opacity="0.5">
<path d="M9.4129 17.1195C8.95849 17.1195 8.59004 16.751 8.59004 16.2966V15.655C8.59004 15.2307 8.91269 14.8759 9.33495 14.8357L9.73556 14.7975V12.6263C9.5953 12.6491 9.47996 12.6644 9.38919 12.6724C9.36394 12.6748 9.33817 12.676 9.31325 12.676C8.90703 12.676 8.55591 12.3763 8.49922 11.9665L8.39079 11.1862C8.33045 10.7539 8.61855 10.3497 9.04729 10.2653C9.3446 10.2071 9.66922 10.0933 10.0128 9.9274C10.3579 9.76027 10.63 9.59433 10.8204 9.43483C10.9682 9.31108 11.155 9.24316 11.3483 9.24316C11.3845 9.24316 11.4303 9.24556 11.4664 9.25036L12.3552 9.36849C12.7642 9.42273 13.0695 9.7715 13.0695 10.1841V14.7999L13.4038 14.8373C13.8205 14.8835 14.1359 15.2355 14.1359 15.6549V16.2966C14.1359 16.751 13.7674 17.1194 13.313 17.1194H9.4129V17.1195Z" fill="#E75400"/>
</g>
<path d="M9.68246 16.6507C9.22804 16.6507 8.85959 16.2823 8.85959 15.8278V15.1862C8.85959 14.7619 9.18225 14.4072 9.60451 14.3669L10.0051 14.3288V12.1576C9.8649 12.1804 9.74961 12.1957 9.65879 12.2037C9.63345 12.2061 9.60777 12.2073 9.58286 12.2073C9.17663 12.2073 8.82546 11.9075 8.76882 11.4977L8.6603 10.7174C8.60006 10.2851 8.88815 9.88091 9.31679 9.79657C9.61415 9.73825 9.93883 9.62464 10.2823 9.45861C10.6275 9.29147 10.8994 9.12553 11.0899 8.96603C11.2377 8.84229 11.4246 8.77441 11.6179 8.77441C11.6541 8.77441 11.6998 8.77681 11.736 8.78161L12.6247 8.89974C13.0337 8.95398 13.3391 9.30275 13.3391 9.71536V14.3311L13.6734 14.3685C14.09 14.4147 14.4054 14.7666 14.4054 15.1862V15.8278C14.4054 16.2823 14.037 16.6507 13.5826 16.6507H9.68246V16.6507Z" fill="url(#paint12_linear_18277_59723)"/>
<path d="M10.8294 11.1478C10.7174 11.1807 10.5185 11.2253 10.232 11.2812C9.94552 11.337 9.72971 11.3715 9.58509 11.3848L9.47656 10.6046C9.84501 10.5322 10.2336 10.3971 10.6418 10.2C11.0496 10.0022 11.3755 9.80175 11.6194 9.59766H11.629L12.5178 9.71578V15.068L13.5841 15.1866V15.8282H9.68387V15.1866L10.8294 15.0777V11.1478Z" fill="url(#paint13_linear_18277_59723)"/>
<g opacity="0.2">
<path d="M9.68359 15.1867V15.425L10.5591 15.3418V15.1035L9.68359 15.1867Z" fill="#732A00"/>
<path d="M12.5178 15.068V9.71578L11.629 9.59766H11.6194C11.3755 9.80175 11.0496 10.0022 10.6418 10.2C10.2336 10.3972 9.84501 10.5322 9.47656 10.6045L9.50205 10.7875C9.78227 10.71 10.0698 10.6098 10.3718 10.4639C10.7796 10.2662 11.1055 10.0658 11.3494 9.86166H11.359L12.2478 9.97978V15.332L13.3141 15.4505V15.8282H13.5841V15.1866L12.5178 15.068Z" fill="#732A00"/>
</g>
<path opacity="0.1" d="M18.001 22.6165C18.0284 22.6074 18.055 22.5971 18.082 22.5868C18.1153 22.5743 18.1494 22.5646 18.1816 22.5497C18.1974 22.5424 18.2114 22.532 18.2269 22.5242C18.2571 22.5087 18.2858 22.4912 18.3149 22.4736C18.3422 22.4573 18.3711 22.4438 18.3972 22.4258C18.4243 22.4072 18.4493 22.3869 18.4751 22.3667C18.4859 22.3581 18.4952 22.3479 18.5058 22.339C18.5139 22.3323 18.5213 22.3247 18.5292 22.3177C18.5533 22.2965 18.5777 22.2761 18.6004 22.2534C18.6438 22.2101 18.6835 22.1644 18.7214 22.1157C18.7373 22.0951 18.7518 22.0736 18.7668 22.0521C18.7935 22.0137 18.825 21.9793 18.848 21.9383C18.8576 21.9212 18.8622 21.9011 18.871 21.8837C18.871 21.8836 18.871 21.8836 18.8711 21.8835C18.8711 21.8836 18.871 21.8835 18.871 21.8836C18.8953 21.8361 18.9146 21.7859 18.9335 21.7354C18.9384 21.723 18.9443 21.7116 18.9488 21.6991C18.9911 21.5761 19.0226 21.4477 19.0306 21.3102L19.3328 16.1158C19.3388 16.0138 19.3624 15.9147 19.389 15.8169C19.4165 15.7275 19.4516 15.6401 19.4935 15.5558H19.4934C19.517 15.5085 19.5325 15.4577 19.5611 15.4129L19.5688 15.4011L19.5999 15.3524L22.3699 11.0329C22.3716 11.0303 22.3722 11.0274 22.3739 11.0249C22.4315 10.9337 22.4775 10.8392 22.5126 10.7427C22.5271 10.7028 22.5329 10.662 22.5437 10.6216C22.5594 10.5623 22.5773 10.5034 22.5853 10.4434C22.5929 10.3871 22.5915 10.3313 22.5925 10.275C22.593 10.2323 22.5967 10.1899 22.5935 10.1475C22.5925 10.1321 22.5954 10.1165 22.5939 10.1013C22.5884 10.0469 22.5718 9.99477 22.5603 9.94154C22.5546 9.91562 22.5511 9.88956 22.5439 9.86416C22.5224 9.78477 22.4922 9.70908 22.4576 9.63429C22.4522 9.62282 22.4478 9.61101 22.4422 9.59973C22.4274 9.56968 22.4181 9.53724 22.4012 9.50824C22.3718 9.4578 22.3321 9.41354 22.2965 9.36669C22.2946 9.36415 22.2929 9.36146 22.2908 9.35892C22.2643 9.32436 22.2431 9.28624 22.2133 9.25394C22.0688 9.09756 21.8869 8.96992 21.6724 8.88621L16.8256 6.99357C16.5923 6.90247 16.3865 6.7529 16.2277 6.55922L12.93 2.53428C12.8689 2.45968 12.8008 2.39584 12.7289 2.33882C12.715 2.32725 12.7036 2.31146 12.6894 2.30056C12.1685 1.89981 11.4343 1.89981 10.9134 2.30056C10.8267 2.36738 10.7458 2.44524 10.6728 2.53428L7.37508 6.55922C7.21634 6.7529 7.01047 6.90247 6.77719 6.99357L2.78906 8.55084C10.2216 11.5719 14.9824 16.7712 18.001 22.6165Z" fill="#FFF3E3"/>
<path opacity="0.4" d="M6.31543 15.7129C6.31543 15.7129 6.15511 19.6133 6.52893 20.0618C6.9028 20.5103 11.1497 19.3823 11.1497 19.3823C11.1497 19.3823 7.77146 19.7706 7.18903 19.4405C6.60659 19.1105 6.31543 15.7129 6.31543 15.7129Z" fill="#FFD578"/>
<path opacity="0.4" d="M6.49219 18.5322C6.49219 18.5322 6.5651 19.8215 6.68956 19.9904C6.81403 20.1593 8.32315 19.8588 8.32315 19.8588C8.32315 19.8588 7.41312 19.9246 7.07332 19.804C6.73344 19.6834 6.49219 18.5322 6.49219 18.5322Z" fill="#FFEABD"/>
<path opacity="0.6" d="M12.7894 2.97728C12.7894 2.97728 15.7125 6.71317 15.866 6.88866C16.0195 7.06405 16.1436 6.6694 16.1436 6.6694C16.1436 6.6694 11.2069 0.806485 12.7894 2.97728Z" fill="#FFEABD"/>
<defs>
<linearGradient id="paint0_linear_18277_59723" x1="20.138" y1="18.7194" x2="1.75555" y2="8.27476" gradientUnits="userSpaceOnUse">
<stop stop-color="#FFC64F"/>
<stop offset="0.2772" stop-color="#E06919"/>
<stop offset="0.7073" stop-color="#FFC640"/>
<stop offset="1" stop-color="#FFA02B"/>
</linearGradient>
<linearGradient id="paint1_linear_18277_59723" x1="22.1131" y1="6.7004" x2="6.21836" y2="1.85792" gradientUnits="userSpaceOnUse">
<stop stop-color="#FFC64F"/>
<stop offset="0.2772" stop-color="#E06919"/>
<stop offset="0.7073" stop-color="#FFC640"/>
<stop offset="1" stop-color="#FFA02B"/>
</linearGradient>
<linearGradient id="paint2_linear_18277_59723" x1="18.8662" y1="17.3641" x2="2.97143" y2="12.5216" gradientUnits="userSpaceOnUse">
<stop stop-color="#FFC64F"/>
<stop offset="0.2772" stop-color="#E06919"/>
<stop offset="0.7073" stop-color="#FFC640"/>
<stop offset="1" stop-color="#FFA02B"/>
</linearGradient>
<linearGradient id="paint3_linear_18277_59723" x1="5.20826" y1="22.0741" x2="6.91336" y2="19.8275" gradientUnits="userSpaceOnUse">
<stop stop-color="#FAFF73"/>
<stop offset="0.6865" stop-color="#FFC640"/>
<stop offset="1" stop-color="#FFA02B"/>
</linearGradient>
<linearGradient id="paint4_linear_18277_59723" x1="10.9361" y1="26.4212" x2="12.6412" y2="24.1745" gradientUnits="userSpaceOnUse">
<stop stop-color="#FAFF73"/>
<stop offset="0.6865" stop-color="#FFC640"/>
<stop offset="1" stop-color="#FFA02B"/>
</linearGradient>
<linearGradient id="paint5_linear_18277_59723" x1="17.2405" y1="23.803" x2="-1.13193" y2="13.3641" gradientUnits="userSpaceOnUse">
<stop stop-color="#FFC64F"/>
<stop offset="0.2772" stop-color="#E06919"/>
<stop offset="0.7073" stop-color="#FFC640"/>
<stop offset="1" stop-color="#FFA02B"/>
</linearGradient>
<linearGradient id="paint6_linear_18277_59723" x1="21.2198" y1="13.0418" x2="20.9829" y2="12.9072" gradientUnits="userSpaceOnUse">
<stop stop-color="#FFC64F"/>
<stop offset="0.2772" stop-color="#E06919"/>
<stop offset="0.7073" stop-color="#FFC640"/>
<stop offset="1" stop-color="#FFA02B"/>
</linearGradient>
<linearGradient id="paint7_linear_18277_59723" x1="14.8913" y1="5.17793" x2="6.45968" y2="23.8072" gradientUnits="userSpaceOnUse">
<stop offset="0.2772" stop-color="#FFD973"/>
<stop offset="0.7073" stop-color="#FFC640"/>
<stop offset="1" stop-color="#FFA02B"/>
</linearGradient>
<linearGradient id="paint8_linear_18277_59723" x1="3.70217" y1="23.5857" x2="16.2356" y2="7.78591" gradientUnits="userSpaceOnUse">
<stop stop-color="#FFC64F"/>
<stop offset="0.2772" stop-color="#E06919"/>
<stop offset="0.7073" stop-color="#FFC640"/>
<stop offset="1" stop-color="#FFA02B"/>
</linearGradient>
<linearGradient id="paint9_linear_18277_59723" x1="3.97156" y1="23.2155" x2="16.505" y2="7.41577" gradientUnits="userSpaceOnUse">
<stop stop-color="#FFC64F"/>
<stop offset="0.2772" stop-color="#E06919"/>
<stop offset="0.7073" stop-color="#FFC640"/>
<stop offset="1" stop-color="#FFA02B"/>
</linearGradient>
<linearGradient id="paint10_linear_18277_59723" x1="20.6288" y1="20.1084" x2="4.75312" y2="9.0941" gradientUnits="userSpaceOnUse">
<stop stop-color="#FFC64F"/>
<stop offset="0.2772" stop-color="#E06919"/>
<stop offset="0.7073" stop-color="#FFC640"/>
<stop offset="1" stop-color="#FFA02B"/>
</linearGradient>
<linearGradient id="paint11_linear_18277_59723" x1="6.11132" y1="22.9917" x2="15.6253" y2="5.27394" gradientUnits="userSpaceOnUse">
<stop stop-color="#FFC64F"/>
<stop offset="0.2772" stop-color="#E06919"/>
<stop offset="0.7073" stop-color="#FFC640"/>
<stop offset="1" stop-color="#FFA02B"/>
</linearGradient>
<linearGradient id="paint12_linear_18277_59723" x1="14.2219" y1="10.2319" x2="7.87895" y2="17.2606" gradientUnits="userSpaceOnUse">
<stop stop-color="#FFC64F"/>
<stop offset="0.2772" stop-color="#E06919"/>
<stop offset="0.7073" stop-color="#FFC640"/>
<stop offset="1" stop-color="#FFA02B"/>
</linearGradient>
<linearGradient id="paint13_linear_18277_59723" x1="9.51938" y1="17.3172" x2="13.0166" y2="10.1857" gradientUnits="userSpaceOnUse">
<stop stop-color="#FFC64F"/>
<stop offset="0.2772" stop-color="#E06919"/>
<stop offset="0.7073" stop-color="#FFC640"/>
<stop offset="1" stop-color="#FFA02B"/>
</linearGradient>
</defs>
</svg>
