<svg width="24" height="25" viewBox="0 0 24 25" fill="none" xmlns="http://www.w3.org/2000/svg">
<path d="M15.7393 7.06474C16.8046 7.40504 17.5616 8.36144 17.6561 9.48673M11.761 20.8655C9.5904 19.5296 7.57111 17.9574 5.73929 16.1769C4.45144 14.8947 3.47101 13.3315 2.8731 11.6071C1.79714 8.26202 3.05393 4.43255 6.57112 3.29924C8.41961 2.70415 10.4384 3.04427 11.9961 4.2132C13.5543 3.04569 15.5725 2.7057 17.4211 3.29924C20.9383 4.43255 22.2041 8.26202 21.1281 11.6071C20.5302 13.3315 19.5498 14.8947 18.2619 16.1769C16.4301 17.9574 14.4108 19.5296 12.2402 20.8655L12.0051 21.0117L11.761 20.8655Z" stroke="#585F6A" stroke-width="2" stroke-linecap="round" stroke-linejoin="round"/>
</svg>
