<svg width="35" height="18" viewBox="0 0 35 18" fill="none" xmlns="http://www.w3.org/2000/svg">
<path d="M32.4583 8.54167C32.4583 4.98008 29.6989 2.08333 26.2843 2.08333C24.5223 2.08345 23.0797 2.86438 21.7407 4.15365C20.3759 5.46786 19.1864 7.24225 17.9308 9.13737C16.7053 10.9871 15.4103 12.962 13.892 14.458C12.3487 15.9787 10.4983 17.0832 8.15324 17.0833C3.65555 17.0833 5.12575e-08 13.2644 0 8.54167C0 3.81898 3.65555 0 8.15324 0C10.9611 0.000151833 13.1679 1.67355 15.01 3.71663C15.3861 4.13385 15.3699 4.79356 14.9736 5.18962C14.5772 5.58561 13.9505 5.56855 13.5743 5.15137C11.8653 3.2559 10.1471 2.08348 8.15324 2.08333C4.7386 2.08333 1.97917 4.98008 1.97917 8.54167C1.97917 12.1033 4.7386 15 8.15324 15C9.83829 14.9999 11.229 14.2294 12.5399 12.9378C13.8759 11.6215 15.0484 9.84605 16.3073 7.94596C17.5362 6.09111 18.8488 4.11545 20.4047 2.61719C21.9862 1.09435 23.8835 0.000115993 26.2843 0C30.782 0 34.4375 3.81898 34.4375 8.54167C34.4375 13.2644 30.782 17.0833 26.2843 17.0833C23.4277 17.0832 21.2259 15.084 19.3796 12.8288C19.0228 12.393 19.0693 11.7354 19.4832 11.3599C19.8972 10.9843 20.5219 11.0331 20.8787 11.4689C22.6741 13.6619 24.3628 14.9998 26.2843 15C29.6989 15 32.4583 12.1033 32.4583 8.54167Z" fill="black"/>
</svg>
