<svg width="24" height="24" viewBox="0 0 24 24" fill="none" xmlns="http://www.w3.org/2000/svg">
<path d="M11.9992 22.8002C17.9639 22.8002 22.7992 17.9649 22.7992 12.0002C22.7992 6.03552 17.9639 1.2002 11.9992 1.2002C6.03454 1.2002 1.19922 6.03552 1.19922 12.0002C1.19922 17.9649 6.03454 22.8002 11.9992 22.8002Z" fill="url(#paint0_linear_18277_59725)"/>
<path opacity="0.3" d="M11.4778 1.84901C17.4425 1.84901 22.2778 6.68434 22.2778 12.649C22.2778 15.072 21.4702 17.3008 20.1229 19.1026C21.7854 17.203 22.8005 14.7227 22.8005 12.0001C22.8005 6.03547 17.9652 1.2002 12.0005 1.2002C8.45873 1.2002 5.32496 2.91274 3.35547 5.54655C5.33508 3.2846 8.23582 1.84901 11.4778 1.84901Z" fill="white"/>
<path opacity="0.3" d="M20.1211 19.1025C20.2373 18.9698 20.3425 18.8277 20.4522 18.6895C20.6516 18.378 20.8314 18.0536 20.9989 17.7217C20.7399 18.2043 20.4471 18.6665 20.1211 19.1025Z" fill="white"/>
<path opacity="0.3" d="M4.00558 4.86965C5.97435 2.765 8.76886 1.44442 11.8783 1.44442C17.843 1.44442 22.6784 6.27975 22.6784 12.2444C22.6784 13.9049 22.2967 15.4731 21.6249 16.8766C22.3723 15.4118 22.8005 13.7581 22.8005 12.0001C22.8005 6.03548 17.9652 1.2002 12.0005 1.2002C8.45873 1.2002 5.32496 2.91274 3.35547 5.54655C3.56168 5.31096 3.78008 5.08666 4.00558 4.86965Z" fill="white"/>
<path opacity="0.4" d="M12.0002 3.60938C7.36605 3.60938 3.60938 7.36605 3.60938 12.0002C3.60938 16.6342 7.36605 20.3909 12.0002 20.3909C16.6343 20.3909 20.391 16.6342 20.391 12.0002C20.391 7.36605 16.6343 3.60938 12.0002 3.60938ZM12.0002 19.8402C7.67022 19.8402 4.16008 16.3301 4.16008 12.0002C4.16008 7.67022 7.67017 4.16003 12.0002 4.16003C16.3302 4.16003 19.8403 7.67017 19.8403 12.0002C19.8403 16.33 16.3302 19.8402 12.0002 19.8402Z" fill="url(#paint1_linear_18277_59725)"/>
<path opacity="0.4" d="M11.8762 3.75861C16.5103 3.75861 20.267 7.51528 20.267 12.1494C20.267 14.1392 19.571 15.9645 18.4136 17.4029C19.6446 15.9428 20.3892 14.0594 20.3892 12.0002C20.3892 7.36605 16.6325 3.60938 11.9983 3.60938C9.35407 3.60938 6.99891 4.8352 5.46094 6.74665C7.00011 4.92088 9.30127 3.75861 11.8762 3.75861Z" fill="url(#paint2_linear_18277_59725)"/>
<path opacity="0.4" d="M4.03516 12.1492C4.03516 16.479 7.54525 19.9892 11.8752 19.9892C14.3484 19.9892 16.5508 18.8414 17.9877 17.0524C16.5496 18.7557 14.4012 19.84 11.9974 19.84C7.66746 19.84 4.15732 16.3299 4.15732 11.9999C4.15732 10.1431 4.80608 8.43982 5.88488 7.09668C4.7325 8.46151 4.03516 10.223 4.03516 12.1492Z" fill="url(#paint3_linear_18277_59725)"/>
<path opacity="0.3" d="M12.666 21.2505C6.70136 21.2505 1.86608 16.4152 1.86608 10.4505C1.86608 9.21854 2.08242 8.03952 2.46229 6.93652C1.65839 8.44742 1.19922 10.1697 1.19922 12.0005C1.19922 17.9652 6.03455 22.8004 11.9992 22.8004C16.7318 22.8004 20.7435 19.7515 22.203 15.5145C20.3877 18.9259 16.7999 21.2505 12.666 21.2505Z" fill="url(#paint4_linear_18277_59725)"/>
<path opacity="0.3" d="M12.1689 22.3317C6.20418 22.3317 1.3689 17.4964 1.3689 11.5317C1.3689 10.419 1.53786 9.34595 1.85039 8.33594C1.43653 9.48151 1.19922 10.7115 1.19922 11.9999C1.19922 17.9645 6.03455 22.7999 11.9992 22.7999C16.8512 22.7999 20.9551 19.6 22.3177 15.1957C20.8156 19.354 16.8452 22.3317 12.1689 22.3317Z" fill="url(#paint5_linear_18277_59725)"/>
<g opacity="0.4">
<path opacity="0.4" d="M19.8391 12.0003C19.8391 7.67035 16.329 4.16016 11.999 4.16016C8.9584 4.16016 6.32776 5.89444 5.02734 8.42467C6.3569 5.98728 8.94213 4.3332 11.9141 4.3332C16.2441 4.3332 19.7543 7.84329 19.7543 12.1733C19.7543 13.4626 19.4373 14.6759 18.8858 15.7488C19.4933 14.6351 19.8391 13.3582 19.8391 12.0003Z" fill="white"/>
<path opacity="0.4" d="M11.999 20.391C7.36492 20.391 3.60825 16.6343 3.60825 12.0002C3.60825 10.6158 3.94944 9.3131 4.54325 8.16211C3.89333 9.35385 3.52344 10.7203 3.52344 12.1732C3.52344 16.8073 7.28011 20.5641 11.9142 20.5641C15.164 20.5641 17.9763 18.7132 19.3701 16.0113C17.9473 18.6205 15.1802 20.391 11.999 20.391Z" fill="white"/>
</g>
<g opacity="0.1">
<path d="M11.9987 1.2002C11.0718 1.2002 10.1772 1.32941 9.31874 1.54906C6.96286 6.51437 4.35655 12.0333 2.23438 16.5919C2.95265 18.1162 4.01162 19.4446 5.32073 20.4773L18.7443 3.57341C16.8954 2.09146 14.5526 1.2002 11.9987 1.2002Z" fill="white"/>
<path d="M22.7058 10.6596C22.462 8.69433 21.6905 6.89673 20.5369 5.40527L6.50781 21.2891C7.67983 21.9834 8.9921 22.4592 10.3948 22.6685L22.7058 10.6596Z" fill="white"/>
</g>
<defs>
<linearGradient id="paint0_linear_18277_59725" x1="7.07533" y1="23.2252" x2="17.3846" y2="-0.277052" gradientUnits="userSpaceOnUse">
<stop stop-color="#A7A7B8"/>
<stop offset="0.2202" stop-color="#525E66"/>
<stop offset="0.6813" stop-color="#E0E0F7"/>
<stop offset="1" stop-color="#A7A7B8"/>
</linearGradient>
<linearGradient id="paint1_linear_18277_59725" x1="15.618" y1="6.84117" x2="4.90024" y2="22.1248" gradientUnits="userSpaceOnUse">
<stop stop-color="#525E66"/>
<stop offset="0.6813" stop-color="#E0E0F7"/>
</linearGradient>
<linearGradient id="paint2_linear_18277_59725" x1="16.1711" y1="6.06635" x2="10.3396" y2="14.3822" gradientUnits="userSpaceOnUse">
<stop stop-color="#525E66"/>
<stop offset="0.6813" stop-color="#E0E0F7"/>
</linearGradient>
<linearGradient id="paint3_linear_18277_59725" x1="11.6578" y1="12.4439" x2="6.20538" y2="20.2192" gradientUnits="userSpaceOnUse">
<stop stop-color="#5A5A63"/>
<stop offset="0.6813" stop-color="#E0E0F7"/>
</linearGradient>
<linearGradient id="paint4_linear_18277_59725" x1="7.34048" y1="22.6123" x2="12.9154" y2="9.90292" gradientUnits="userSpaceOnUse">
<stop stop-color="#A7A7B8"/>
<stop offset="0.2202" stop-color="#525E66"/>
<stop offset="0.6813" stop-color="#E0E0F7"/>
<stop offset="1" stop-color="#A7A7B8"/>
</linearGradient>
<linearGradient id="paint5_linear_18277_59725" x1="12.7872" y1="9.91235" x2="9.92759" y2="17.5542" gradientUnits="userSpaceOnUse">
<stop stop-color="#525E66"/>
<stop offset="0.6813" stop-color="#E0E0F7"/>
</linearGradient>
</defs>
</svg>
