<svg width="23" height="22" viewBox="0 0 23 22" fill="none" xmlns="http://www.w3.org/2000/svg">
<g clip-path="url(#clip0_17151_15478)">
<path d="M21.7306 11.0008L22.6958 8.48332C22.8017 8.20559 22.7192 7.89074 22.4868 7.70237L20.3942 6.00574L19.9708 3.34255C19.924 3.04832 19.693 2.81871 19.3988 2.77196L16.7356 2.34849L15.0403 0.254506C14.8534 0.0221468 14.5316 -0.0603476 14.2608 0.0455202L11.7419 1.01208L9.22449 0.0468951C8.94538 -0.0603476 8.63328 0.0248966 8.44492 0.255881L6.74828 2.34986L4.08509 2.77333C3.79224 2.82008 3.56125 3.05107 3.5145 3.34392L3.09103 6.00711L0.997051 7.70375C0.766067 7.89074 0.682197 8.20559 0.788065 8.48332L1.75325 11.0008L0.788065 13.5182C0.680823 13.796 0.766067 14.1108 0.997051 14.2978L3.09103 15.9931L3.5145 18.6562C3.56125 18.9505 3.79086 19.1815 4.08509 19.2282L6.74828 19.6517L8.44492 21.7443C8.63328 21.978 8.94813 22.0605 9.22586 21.9533L11.7419 20.9895L14.2594 21.9547C14.3391 21.9849 14.4216 22 14.5055 22C14.7076 22 14.907 21.9107 15.0403 21.7443L16.7356 19.6517L19.3988 19.2282C19.693 19.1815 19.924 18.9505 19.9708 18.6562L20.3942 15.9931L22.4868 14.2978C22.7192 14.1094 22.8017 13.796 22.6958 13.5182L21.7306 11.0008Z" fill="#3A64F8"/>
<path d="M8.34769 15.2558C8.03749 15.5655 7.535 15.5653 7.22504 15.2553C6.91481 14.9451 6.91491 14.4421 7.22525 14.132L15.0885 6.27494C15.4002 5.96348 15.9056 5.96437 16.2162 6.27692C16.5257 6.58835 16.5247 7.09154 16.214 7.40177L8.34769 15.2558ZM14.6708 16.027C14.2076 16.027 13.7842 15.9147 13.4005 15.6901C13.0216 15.4609 12.7175 15.1568 12.4882 14.7778C12.2589 14.3941 12.1443 13.9684 12.1443 13.5005C12.1443 13.042 12.2613 12.6209 12.4952 12.2373C12.7292 11.8536 13.0379 11.5472 13.4216 11.3179C13.8052 11.0887 14.2216 10.974 14.6708 10.974C15.134 10.974 15.5574 11.0887 15.9411 11.3179C16.3247 11.5425 16.6288 11.8466 16.8534 12.2303C17.0826 12.6092 17.1973 13.0326 17.1973 13.5005C17.1973 13.9684 17.0826 14.3941 16.8534 14.7778C16.6288 15.1568 16.3247 15.4609 15.9411 15.6901C15.5574 15.9147 15.134 16.027 14.6708 16.027ZM14.6708 14.5813C14.8626 14.5813 15.0404 14.5322 15.2042 14.4339C15.3726 14.3357 15.5059 14.2046 15.6042 14.0409C15.7024 13.8771 15.7516 13.697 15.7516 13.5005C15.7516 13.304 15.7024 13.1239 15.6042 12.9601C15.5059 12.7964 15.3726 12.6654 15.2042 12.5671C15.0404 12.4689 14.8626 12.4197 14.6708 12.4197C14.4743 12.4197 14.2942 12.4689 14.1304 12.5671C13.9667 12.6654 13.8333 12.7964 13.7304 12.9601C13.6321 13.1239 13.583 13.304 13.583 13.5005C13.583 13.697 13.6321 13.8771 13.7304 14.0409C13.8333 14.2046 13.9667 14.3357 14.1304 14.4339C14.2942 14.5322 14.4743 14.5813 14.6708 14.5813ZM8.76866 10.553C8.30548 10.553 7.88206 10.4407 7.49841 10.2161C7.11476 9.98684 6.80831 9.68272 6.57905 9.30375C6.35448 8.9201 6.24219 8.49434 6.24219 8.02648C6.24219 7.56797 6.35915 7.14689 6.59309 6.76324C6.82702 6.37959 7.13581 6.07314 7.51946 5.84388C7.90311 5.61463 8.31951 5.5 8.76866 5.5C9.23185 5.5 9.65293 5.61463 10.0319 5.84388C10.4156 6.06846 10.722 6.37257 10.9513 6.75622C11.1805 7.13519 11.2951 7.55861 11.2951 8.02648C11.2951 8.49434 11.1805 8.9201 10.9513 9.30375C10.722 9.68272 10.4156 9.98684 10.0319 10.2161C9.65293 10.4407 9.23185 10.553 8.76866 10.553ZM8.76866 9.10725C8.96517 9.10725 9.1453 9.05812 9.30905 8.95987C9.4728 8.86162 9.60381 8.73062 9.70206 8.56686C9.80031 8.40311 9.84943 8.22298 9.84943 8.02648C9.84943 7.82997 9.80031 7.64984 9.70206 7.48609C9.60381 7.32234 9.4728 7.19134 9.30905 7.09308C9.1453 6.99483 8.96517 6.94571 8.76866 6.94571C8.57216 6.94571 8.39203 6.99483 8.22828 7.09308C8.06453 7.19134 7.93352 7.32234 7.83527 7.48609C7.73702 7.64984 7.68789 7.82997 7.68789 8.02648C7.68789 8.22298 7.73702 8.40311 7.83527 8.56686C7.93352 8.73062 8.06453 8.86162 8.22828 8.95987C8.39203 9.05812 8.57216 9.10725 8.76866 9.10725Z" fill="#FAFAFA"/>
</g>
<defs>
<clipPath id="clip0_17151_15478">
<rect width="22" height="22" fill="white" transform="translate(0.742188)"/>
</clipPath>
</defs>
</svg>
