<svg width="24" height="24" viewBox="0 0 24 24" fill="none" xmlns="http://www.w3.org/2000/svg">
<g clip-path="url(#clip0_18277_59721)">
<path d="M12.0003 23.8219C18.5308 23.8219 23.8248 18.5279 23.8248 11.9974C23.8248 5.46687 18.5308 0.172852 12.0003 0.172852C5.4698 0.172852 0.175781 5.46687 0.175781 11.9974C0.175781 18.5279 5.4698 23.8219 12.0003 23.8219Z" fill="url(#paint0_linear_18277_59721)"/>
<path d="M11.9976 23.9952C18.6237 23.9952 23.9952 18.6237 23.9952 11.9976C23.9952 5.37151 18.6237 0 11.9976 0C5.37151 0 0 5.37151 0 11.9976C0 18.6237 5.37151 23.9952 11.9976 23.9952Z" fill="url(#paint1_linear_18277_59721)"/>
<path opacity="0.5" d="M11.7886 0.434155C18.4148 0.434155 23.7862 5.8057 23.7862 12.4318C23.7862 14.3559 23.322 16.1678 22.5169 17.7795C23.4625 16.0643 24.0034 14.0947 24.0034 11.9977C24.0034 5.37154 18.6318 0 12.0057 0C7.30369 0 3.24475 2.71142 1.27734 6.64996C3.31945 2.94556 7.25954 0.434155 11.7886 0.434155Z" fill="white"/>
<path opacity="0.4" d="M12.2739 23.5754C5.64775 23.5754 0.276213 18.2039 0.276213 11.5778C0.276213 9.20806 0.972557 7.00508 2.15835 5.14453C0.80155 7.08842 0 9.44839 0 11.9988C0 18.6249 5.37154 23.9964 11.9976 23.9964C16.254 23.9964 19.9834 21.7737 22.1132 18.432C19.9449 21.5386 16.3497 23.5754 12.2739 23.5754Z" fill="white"/>
<path opacity="0.2" d="M12.5778 22.6544C5.95159 22.6544 0.580154 17.2828 0.580154 10.6567C0.580154 9.21548 0.847355 7.8398 1.31329 6.55957C0.479693 8.1936 0 10.0385 0 11.9986C0 18.6247 5.37154 23.9962 11.9976 23.9962C17.1825 23.9962 21.586 20.7011 23.2621 16.0957C21.278 19.9853 17.2437 22.6544 12.5778 22.6544Z" fill="white"/>
<path opacity="0.4" d="M11.43 1.12479C18.0561 1.12479 23.4277 6.49633 23.4277 13.1224C23.4277 14.8444 23.0583 16.478 22.4049 17.9582C23.4142 16.201 23.9999 14.1696 23.9999 11.9977C23.9999 5.37154 18.6284 0 12.0022 0C7.09816 0 2.88794 2.94615 1.02734 7.16181C3.09713 3.55787 6.97579 1.12479 11.43 1.12479Z" fill="white"/>
<path d="M11.998 3.66797C7.39748 3.66797 3.66797 7.39748 3.66797 11.998C3.66797 16.5986 7.39748 20.328 11.998 20.328C16.5986 20.328 20.328 16.5985 20.328 11.998C20.3281 7.39748 16.5986 3.66797 11.998 3.66797ZM11.998 19.4071C7.90613 19.4071 4.58896 16.0899 4.58896 11.998C4.58896 7.90608 7.90613 4.58891 11.998 4.58891C16.09 4.58891 19.4071 7.90608 19.4071 11.998C19.4072 16.0899 16.09 19.4071 11.998 19.4071Z" fill="url(#paint2_linear_18277_59721)"/>
<g opacity="0.4">
<path d="M19.408 11.998C19.408 7.90603 16.0909 4.58887 11.9989 4.58887C9.36903 4.58887 7.06489 5.96311 5.75 8.02862C7.08185 6.06037 9.33496 4.76649 11.8904 4.76649C15.9823 4.76649 19.2995 8.08365 19.2995 12.1756C19.2995 13.6376 18.8703 14.9968 18.1393 16.1449C18.9401 14.9615 19.408 13.5344 19.408 11.998Z" fill="white"/>
<path d="M12.001 20.328C7.40047 20.328 3.67107 16.5985 3.67107 11.998C3.67107 10.3452 4.15838 8.8091 4.98852 7.51367C4.08842 8.84403 3.5625 10.4484 3.5625 12.1756C3.5625 16.7761 7.29201 20.5055 11.8926 20.5055C14.8404 20.5055 17.4245 18.9703 18.9051 16.6598C17.4076 18.873 14.8743 20.328 12.001 20.328Z" fill="white"/>
</g>
<g opacity="0.2">
<path d="M11.7749 4.08239C16.3754 4.08239 20.1048 7.81191 20.1048 12.4124C20.1048 13.7721 19.7723 15.0519 19.1945 16.1856C19.9131 14.9542 20.3317 13.5265 20.3317 11.998C20.3317 7.39748 16.6023 3.66797 12.0017 3.66797C8.76095 3.66797 5.95915 5.52259 4.58203 8.22468C6.02623 5.74996 8.70288 4.08239 11.7749 4.08239Z" fill="url(#paint3_linear_18277_59721)"/>
<path d="M4.37109 12.4127C4.37109 16.5046 7.68831 19.8218 11.7802 19.8218C14.6713 19.8218 17.1693 18.1621 18.3902 15.7469C17.1024 17.9347 14.7295 19.4074 12.0072 19.4074C7.91526 19.4074 4.59809 16.0902 4.59809 11.9983C4.59809 10.7975 4.89014 9.66717 5.39724 8.66406C4.74931 9.7647 4.37109 11.0431 4.37109 12.4127Z" fill="url(#paint4_linear_18277_59721)"/>
</g>
<path opacity="0.2" d="M13.0204 21.4445C6.39427 21.4445 1.02279 16.073 1.02279 9.44691C1.02279 8.33774 1.18532 7.26856 1.46702 6.24902C0.53259 7.95658 0 9.9153 0 11.999C0 18.6251 5.37154 23.9967 11.9976 23.9967C17.5146 23.9967 22.1498 20.268 23.551 15.1968C21.5142 18.9192 17.5628 21.4445 13.0204 21.4445Z" fill="url(#paint5_linear_18277_59721)"/>
<path opacity="0.7" d="M4.94049 9.55728C5.0602 9.28448 5.19218 9.01797 5.34212 8.76308C4.83513 9.76619 4.54297 10.8966 4.54297 12.0974C4.54297 16.1893 7.86019 19.5065 11.9521 19.5065C14.6415 19.5065 16.9855 18.0662 18.2836 15.9221C18.3152 15.8634 18.3496 15.8065 18.3797 15.7469C17.0919 17.9347 14.719 19.4074 11.9967 19.4074C7.90477 19.4074 4.5876 16.0902 4.5876 11.9983C4.5876 10.7975 4.87965 9.66717 5.38675 8.66406C5.21841 8.94993 5.07044 9.24891 4.94049 9.55728Z" fill="white"/>
<path opacity="0.4" d="M11.8541 6.6499L13.9189 9.02584C13.9822 9.09862 14.0611 9.15605 14.1499 9.19364L17.0476 10.4232C17.4025 10.5737 17.5422 11.0034 17.3435 11.3338L15.722 14.0317C15.6723 14.1144 15.6421 14.2073 15.6337 14.3033L15.3598 17.4391C15.3263 17.8232 14.9607 18.0888 14.5851 18.002L11.5182 17.2934C11.4242 17.2717 11.3266 17.2717 11.2326 17.2934L8.16566 18.002C7.79003 18.0888 7.42453 17.8232 7.39099 17.4391L7.11714 14.3033C7.10877 14.2073 7.0786 14.1144 7.02885 14.0317L5.40726 11.3338C5.20865 11.0034 5.34829 10.5737 5.70318 10.4232L8.6009 9.19364C8.68968 9.15599 8.76864 9.09857 8.83193 9.02584L10.8967 6.6499C11.1494 6.35889 11.6013 6.35889 11.8541 6.6499Z" fill="url(#paint6_linear_18277_59721)"/>
<path opacity="0.4" d="M12.108 6.17525L14.1727 8.55125C14.236 8.62403 14.315 8.6814 14.4038 8.71904L17.3015 9.94852C17.6564 10.0991 17.796 10.5288 17.5974 10.8592L15.9758 13.5571C15.9261 13.6398 15.8959 13.7326 15.8876 13.8287L15.6137 16.9645C15.5801 17.3485 15.2146 17.6141 14.839 17.5273L11.772 16.8188C11.678 16.797 11.5804 16.797 11.4865 16.8188L8.41946 17.5273C8.04388 17.6141 7.67838 17.3485 7.64484 16.9645L7.37095 13.8287C7.36257 13.7326 7.3324 13.6397 7.28276 13.5571L5.66117 10.8592C5.46256 10.5288 5.6022 10.0991 5.95704 9.94852L8.85476 8.71904C8.94353 8.68134 9.02255 8.62397 9.08579 8.55125L11.1506 6.17525C11.4032 5.88429 11.8551 5.88429 12.108 6.17525Z" fill="url(#paint7_linear_18277_59721)"/>
<path d="M12.4753 5.8315L14.54 8.20744C14.6033 8.28027 14.6823 8.33764 14.7711 8.37528L17.6688 9.60476C18.0237 9.75539 18.1633 10.185 17.9647 10.5154L16.3431 13.2134C16.2934 13.296 16.2633 13.3889 16.2549 13.4849L15.981 16.6207C15.9475 17.0047 15.5819 17.2703 15.2064 17.1836L12.1394 16.475C12.0454 16.4533 11.9478 16.4533 11.8538 16.475L8.78673 17.1836C8.41115 17.2704 8.04565 17.0048 8.01206 16.6208L7.73816 13.4849C7.72979 13.3889 7.69961 13.296 7.64997 13.2134L6.02833 10.5155C5.82977 10.1851 5.96936 9.75544 6.32425 9.60482L9.22197 8.37534C9.31075 8.33764 9.38977 8.28027 9.453 8.20749L11.5178 5.83155C11.7706 5.54053 12.2224 5.54053 12.4753 5.8315Z" fill="url(#paint8_linear_18277_59721)"/>
<g opacity="0.2">
<path d="M17.6689 9.60481L14.7711 8.37533C14.6823 8.33763 14.6033 8.28021 14.5401 8.20748L12.4753 5.83154C12.2224 5.54053 11.7706 5.54053 11.5178 5.83154L9.453 8.20748C9.38977 8.28026 9.3108 8.33769 9.22197 8.37533L6.32425 9.60481C5.96936 9.75543 5.82977 10.1851 6.02833 10.5155L6.2117 10.8206L8.59553 9.80918C8.68431 9.77148 8.76327 9.71411 8.82656 9.64133L10.8913 7.26539C11.1442 6.97443 11.5959 6.97443 11.8488 7.26539L13.9136 9.64133C13.9769 9.71417 14.0559 9.77154 14.1446 9.80918L17.0424 11.0387C17.229 11.1179 17.3511 11.2752 17.4008 11.4538L17.9647 10.5155C18.1634 10.1851 18.0237 9.75543 17.6689 9.60481Z" fill="white"/>
<path d="M15.7237 14.6459C15.674 14.7286 15.6438 14.8214 15.6355 14.9175L15.4375 17.1846C15.7226 17.1469 15.9614 16.9252 15.9881 16.6196L16.2347 13.7959L15.7237 14.6459Z" fill="white"/>
</g>
<path opacity="0.4" d="M15.3066 17.0631L12.2396 16.3545C12.1457 16.3328 12.048 16.3328 11.9541 16.3545L8.8871 17.0631C8.51147 17.1498 8.14602 16.8843 8.11243 16.5002L7.83853 13.3644C7.83021 13.2684 7.80003 13.1755 7.75034 13.0928L6.12875 10.3949C5.99759 10.1768 6.02516 9.92137 6.1536 9.72559C5.93739 9.9226 5.86931 10.2468 6.02969 10.5138L7.65133 13.2117C7.70097 13.2943 7.73115 13.3872 7.73952 13.4833L8.01342 16.6191C8.04695 17.0031 8.41251 17.2687 8.78808 17.182L11.855 16.4734C11.949 16.4517 12.0466 16.4517 12.1406 16.4734L15.2075 17.182C15.4943 17.2482 15.7724 17.1077 15.9042 16.8673C15.7557 17.0266 15.538 17.1165 15.3066 17.0631Z" fill="white"/>
<g opacity="0.1">
<path d="M2.73755 19.6216L18.9902 2.25913C17.0207 0.843089 14.612 0 12.0012 0C10.9767 0 9.98771 0.142212 9.0384 0.383819L0.65625 15.8748C1.12698 17.2522 1.83101 18.5214 2.73755 19.6216Z" fill="white"/>
<path d="M23.9712 12.4403C23.9766 12.2921 23.9936 12.147 23.9936 11.9975C23.9936 9.30803 23.0978 6.83384 21.6032 4.83301L5.38672 22.0062C6.21813 22.5563 7.12451 22.9984 8.08347 23.3296C12.6285 20.2298 18.8728 15.9442 23.9712 12.4403Z" fill="white"/>
</g>
</g>
<defs>
<linearGradient id="paint0_linear_18277_59721" x1="3.41787" y1="23.2182" x2="18.3097" y2="3.74842" gradientUnits="userSpaceOnUse">
<stop stop-color="#DDE9F5"/>
<stop offset="0.2459" stop-color="#A1AAB3"/>
<stop offset="1" stop-color="#EBF5FF"/>
</linearGradient>
<linearGradient id="paint1_linear_18277_59721" x1="3.28949" y1="23.3828" x2="18.3993" y2="3.62788" gradientUnits="userSpaceOnUse">
<stop stop-color="#DDE9F5"/>
<stop offset="0.2459" stop-color="#A1AAB3"/>
<stop offset="1" stop-color="#EBF5FF"/>
</linearGradient>
<linearGradient id="paint2_linear_18277_59721" x1="17.4234" y1="5.60866" x2="5.87309" y2="19.2112" gradientUnits="userSpaceOnUse">
<stop offset="0.2459" stop-color="#A1AAB3"/>
<stop offset="1" stop-color="#F0F7FF"/>
</linearGradient>
<linearGradient id="paint3_linear_18277_59721" x1="17.3647" y1="5.58178" x2="10.2541" y2="13.9558" gradientUnits="userSpaceOnUse">
<stop offset="0.2459" stop-color="#A1AAB3"/>
<stop offset="1" stop-color="#F0F7FF"/>
</linearGradient>
<linearGradient id="paint4_linear_18277_59721" x1="12.9651" y1="11.103" x2="6.62425" y2="18.5704" gradientUnits="userSpaceOnUse">
<stop offset="0.2459" stop-color="#A1AAB3"/>
<stop offset="1" stop-color="#F0F7FF"/>
</linearGradient>
<linearGradient id="paint5_linear_18277_59721" x1="8.23573" y1="17.2465" x2="15.4712" y2="7.30103" gradientUnits="userSpaceOnUse">
<stop offset="0.2459" stop-color="#A1AAB3"/>
<stop offset="1" stop-color="#F0F7FF"/>
</linearGradient>
<linearGradient id="paint6_linear_18277_59721" x1="9.5399" y1="15.8129" x2="6.06714" y2="22.8373" gradientUnits="userSpaceOnUse">
<stop offset="0.2459" stop-color="#A1AAB3"/>
<stop offset="1" stop-color="#F0F7FF"/>
</linearGradient>
<linearGradient id="paint7_linear_18277_59721" x1="9.7937" y1="15.3383" x2="6.32094" y2="22.3627" gradientUnits="userSpaceOnUse">
<stop offset="0.2459" stop-color="#A1AAB3"/>
<stop offset="1" stop-color="#F0F7FF"/>
</linearGradient>
<linearGradient id="paint8_linear_18277_59721" x1="4.99699" y1="20.5855" x2="16.0056" y2="7.27878" gradientUnits="userSpaceOnUse">
<stop stop-color="#DDE9F5"/>
<stop offset="0.2459" stop-color="#A1AAB3"/>
<stop offset="1" stop-color="#EBF5FF"/>
</linearGradient>
<clipPath id="clip0_18277_59721">
<rect width="24" height="24" fill="white"/>
</clipPath>
</defs>
</svg>
