<svg width="60" height="60" viewBox="0 0 60 60" fill="none" xmlns="http://www.w3.org/2000/svg">
<rect width="60" height="60" rx="12" fill="#E6F1FF"/>
<path d="M42.8798 22.2314L35.6663 15.0179C35.1742 14.5261 34.5071 14.2498 33.8113 14.2497H24.3981C23.685 14.1479 22.9579 14.2136 22.2746 14.4414C21.5912 14.6693 20.9702 15.0531 20.4609 15.5624C19.9515 16.0718 19.5677 16.6928 19.3399 17.3761C19.112 18.0595 19.0463 18.7865 19.1481 19.4997V40.4997C19.0463 41.2128 19.112 41.9398 19.3399 42.6232C19.5677 43.3066 19.9515 43.9275 20.4609 44.4369C20.9702 44.9462 21.5912 45.33 22.2746 45.5579C22.9579 45.7858 23.685 45.8514 24.3981 45.7497H38.3981C39.1112 45.8514 39.8383 45.7858 40.5216 45.5579C41.205 45.33 41.8259 44.9462 42.3353 44.4369C42.8447 43.9275 43.2285 43.3066 43.4563 42.6232C43.6842 41.9398 43.7498 41.2128 43.6481 40.4997V24.0864C43.6479 23.3907 43.3716 22.7235 42.8798 22.2314ZM30.0856 39.9747C30.0856 40.1139 30.0303 40.2474 29.9318 40.3459C29.8334 40.4443 29.6998 40.4997 29.5606 40.4997H27.0231C26.6665 40.5505 26.303 40.5177 25.9613 40.4038C25.6196 40.2898 25.3092 40.0979 25.0545 39.8433C24.7998 39.5886 24.6079 39.2781 24.494 38.9364C24.38 38.5947 24.3472 38.2312 24.3981 37.8747V29.1247C24.3472 28.7681 24.38 28.4046 24.494 28.0629C24.6079 27.7212 24.7998 27.4107 25.0545 27.156C25.3092 26.9014 25.6196 26.7095 25.9613 26.5955C26.303 26.4816 26.6665 26.4488 27.0231 26.4997H29.5606C29.6998 26.4997 29.8334 26.555 29.9318 26.6534C30.0303 26.7519 30.0856 26.8854 30.0856 27.0247V39.9747ZM38.3981 37.8747C38.449 38.2312 38.4161 38.5947 38.3022 38.9364C38.1883 39.2781 37.9964 39.5886 37.7417 39.8433C37.487 40.0979 37.1765 40.2898 36.8349 40.4038C36.4932 40.5177 36.1297 40.5505 35.7731 40.4997H33.2356C33.1666 40.4997 33.0984 40.4861 33.0347 40.4597C32.971 40.4333 32.9131 40.3946 32.8644 40.3459C32.8156 40.2971 32.7769 40.2393 32.7506 40.1756C32.7242 40.1119 32.7106 40.0436 32.7106 39.9747V35.3372C32.7106 35.2682 32.7242 35.1999 32.7506 35.1362C32.7769 35.0726 32.8156 35.0147 32.8644 34.9659C32.9131 34.9172 32.971 34.8785 33.0347 34.8521C33.0984 34.8257 33.1666 34.8122 33.2356 34.8122H37.8731C38.0123 34.8122 38.1459 34.8675 38.2443 34.9659C38.3428 35.0644 38.3981 35.1979 38.3981 35.3372V37.8747ZM38.3981 31.6622C38.3981 31.7311 38.3845 31.7994 38.3581 31.8631C38.3317 31.9268 38.2931 31.9846 38.2443 32.0334C38.1956 32.0821 38.1377 32.1208 38.074 32.1472C38.0103 32.1736 37.942 32.1872 37.8731 32.1872H33.2356C33.1666 32.1872 33.0984 32.1736 33.0347 32.1472C32.971 32.1208 32.9131 32.0821 32.8644 32.0334C32.8156 31.9846 32.7769 31.9268 32.7506 31.8631C32.7242 31.7994 32.7106 31.7311 32.7106 31.6622V27.0247C32.7106 26.8854 32.7659 26.7519 32.8644 26.6534C32.9628 26.555 33.0964 26.4997 33.2356 26.4997H35.7731C36.1297 26.4488 36.4932 26.4816 36.8349 26.5955C37.1765 26.7095 37.487 26.9014 37.7417 27.156C37.9964 27.4107 38.1883 27.7212 38.3022 28.0629C38.4161 28.4046 38.449 28.7681 38.3981 29.1247V31.6622Z" fill="#3A64F8"/>
</svg>
