<svg width="64" height="64" viewBox="0 0 64 64" fill="none" xmlns="http://www.w3.org/2000/svg">
<rect width="64" height="64" rx="10" fill="white"/>
<path d="M28.2493 28.6673C27.0338 28.6673 25.868 29.1502 25.0084 30.0097C24.1489 30.8693 23.666 32.0351 23.666 33.2507V39.084C23.666 40.2996 24.1489 41.4653 25.0084 42.3249C25.868 43.1844 27.0338 43.6673 28.2493 43.6673H35.7493C36.9649 43.6673 38.1307 43.1844 38.9903 42.3249C39.8498 41.4653 40.3327 40.2996 40.3327 39.084V33.2507C40.3327 32.0351 39.8498 30.8693 38.9903 30.0097C38.1307 29.1502 36.9649 28.6673 35.7493 28.6673H28.2493ZM26.166 33.2507C26.166 32.1007 27.0993 31.1673 28.2493 31.1673H31.9993V35.334H26.166V33.2507ZM26.166 37.834H31.9993V41.1673H28.2493C27.0993 41.1673 26.166 40.234 26.166 39.084V37.834ZM34.4993 41.1673V31.1673H35.7493C36.8993 31.1673 37.8327 32.1007 37.8327 33.2507V39.084C37.8327 40.234 36.8993 41.1673 35.7493 41.1673H34.4993ZM24.0827 15.334C22.6461 15.334 21.2683 15.9047 20.2525 16.9205C19.2367 17.9363 18.666 19.3141 18.666 20.7507V43.2507C18.666 43.962 18.8061 44.6663 19.0783 45.3235C19.3505 45.9807 19.7495 46.5778 20.2525 47.0808C20.7555 47.5838 21.3526 47.9828 22.0098 48.255C22.667 48.5272 23.3714 48.6673 24.0827 48.6673H39.916C40.6273 48.6673 41.3317 48.5272 41.9889 48.255C42.6461 47.9828 43.2432 47.5838 43.7462 47.0808C44.2492 46.5778 44.6482 45.9807 44.9204 45.3235C45.1926 44.6663 45.3327 43.962 45.3327 43.2507V27.4773C45.3329 26.7657 45.1928 26.0611 44.9206 25.4036C44.6483 24.7462 44.2492 24.1488 43.746 23.6457L37.021 16.9207C36.5179 16.4175 35.9205 16.0183 35.263 15.7461C34.6056 15.4738 33.9009 15.3338 33.1893 15.334H24.0827ZM21.166 20.7507C21.166 19.1407 22.4727 17.834 24.0827 17.834H33.1893C33.9643 17.834 34.706 18.1407 35.2527 18.689L41.9777 25.414C42.526 25.9607 42.8327 26.7023 42.8327 27.4773V43.2507C42.8327 44.0242 42.5254 44.7661 41.9784 45.313C41.4314 45.86 40.6896 46.1673 39.916 46.1673H24.0827C23.3091 46.1673 22.5673 45.86 22.0203 45.313C21.4733 44.7661 21.166 44.0242 21.166 43.2507V20.7507Z" fill="#3A64F8"/>
<path d="M26.372 26.84C25.708 26.84 25.122 26.698 24.614 26.414C24.11 26.126 23.714 25.732 23.426 25.232C23.142 24.728 23 24.152 23 23.504C23 22.796 23.14 22.18 23.42 21.656C23.7 21.132 24.086 20.726 24.578 20.438C25.07 20.146 25.636 20 26.276 20C26.956 20 27.534 20.16 28.01 20.48C28.486 20.8 28.838 21.25 29.066 21.83C29.294 22.41 29.374 23.092 29.306 23.876H27.692V23.276C27.692 22.616 27.586 22.142 27.374 21.854C27.166 21.562 26.824 21.416 26.348 21.416C25.792 21.416 25.382 21.586 25.118 21.926C24.858 22.262 24.728 22.76 24.728 23.42C24.728 24.024 24.858 24.492 25.118 24.824C25.382 25.152 25.768 25.316 26.276 25.316C26.596 25.316 26.87 25.246 27.098 25.106C27.326 24.966 27.5 24.764 27.62 24.5L29.252 24.968C29.008 25.56 28.622 26.02 28.094 26.348C27.57 26.676 26.996 26.84 26.372 26.84ZM24.224 23.876V22.664H28.52V23.876H24.224Z" fill="#3A64F8" stroke="#3A64F8" stroke-width="0.2"/>
</svg>
