<svg width="28" height="28" viewBox="0 0 28 28" fill="none" xmlns="http://www.w3.org/2000/svg">
<path d="M22.5866 8.82094L17.7776 4.01194C17.4495 3.68408 17.0047 3.49987 16.5409 3.49977H10.2654C9.78997 3.43194 9.30529 3.47571 8.84971 3.62761C8.39413 3.77951 7.98017 4.03538 7.64059 4.37496C7.30101 4.71454 7.04514 5.1285 6.89324 5.58408C6.74133 6.03966 6.69756 6.52435 6.76539 6.99977V20.9998C6.69756 21.4752 6.74133 21.9599 6.89324 22.4155C7.04514 22.871 7.30101 23.285 7.64059 23.6246C7.98017 23.9642 8.39413 24.22 8.84971 24.3719C9.30529 24.5238 9.78997 24.5676 10.2654 24.4998H19.5987C20.0742 24.5676 20.5588 24.5238 21.0144 24.3719C21.47 24.22 21.884 23.9642 22.2235 23.6246C22.5631 23.285 22.819 22.871 22.9709 22.4155C23.1228 21.9599 23.1666 21.4752 23.0987 20.9998V10.0576C23.0986 9.5938 22.9144 9.149 22.5866 8.82094ZM14.0571 20.6498C14.0571 20.7426 14.0202 20.8316 13.9545 20.8973C13.8889 20.9629 13.7999 20.9998 13.7071 20.9998H12.0154C11.7777 21.0337 11.5353 21.0118 11.3076 20.9359C11.0798 20.8599 10.8728 20.732 10.703 20.5622C10.5332 20.3924 10.4053 20.1854 10.3293 19.9576C10.2534 19.7298 10.2315 19.4875 10.2654 19.2498V13.4164C10.2315 13.1787 10.2534 12.9364 10.3293 12.7086C10.4053 12.4808 10.5332 12.2738 10.703 12.104C10.8728 11.9342 11.0798 11.8063 11.3076 11.7304C11.5353 11.6544 11.7777 11.6325 12.0154 11.6664H13.7071C13.7999 11.6664 13.8889 11.7033 13.9545 11.7689C14.0202 11.8346 14.0571 11.9236 14.0571 12.0164V20.6498ZM19.5987 19.2498C19.6326 19.4875 19.6108 19.7298 19.5348 19.9576C19.4589 20.1854 19.3309 20.3924 19.1611 20.5622C18.9913 20.732 18.7844 20.8599 18.5566 20.9359C18.3288 21.0118 18.0864 21.0337 17.8487 20.9998H16.1571C16.1111 20.9998 16.0656 20.9907 16.0231 20.9731C15.9807 20.9555 15.9421 20.9298 15.9096 20.8973C15.8771 20.8648 15.8513 20.8262 15.8337 20.7837C15.8161 20.7412 15.8071 20.6957 15.8071 20.6498V17.5581C15.8071 17.5121 15.8161 17.4666 15.8337 17.4242C15.8513 17.3817 15.8771 17.3431 15.9096 17.3106C15.9421 17.2781 15.9807 17.2523 16.0231 17.2347C16.0656 17.2172 16.1111 17.2081 16.1571 17.2081H19.2487C19.3416 17.2081 19.4306 17.245 19.4962 17.3106C19.5619 17.3763 19.5987 17.4653 19.5987 17.5581V19.2498ZM19.5987 15.1081C19.5987 15.1541 19.5897 15.1996 19.5721 15.242C19.5545 15.2845 19.5287 15.3231 19.4962 15.3556C19.4637 15.3881 19.4251 15.4139 19.3827 15.4315C19.3402 15.449 19.2947 15.4581 19.2487 15.4581H16.1571C16.1111 15.4581 16.0656 15.449 16.0231 15.4315C15.9807 15.4139 15.9421 15.3881 15.9096 15.3556C15.8771 15.3231 15.8513 15.2845 15.8337 15.242C15.8161 15.1996 15.8071 15.1541 15.8071 15.1081V12.0164C15.8071 11.9236 15.8439 11.8346 15.9096 11.7689C15.9752 11.7033 16.0642 11.6664 16.1571 11.6664H17.8487C18.0864 11.6325 18.3288 11.6544 18.5566 11.7304C18.7844 11.8063 18.9913 11.9342 19.1611 12.104C19.3309 12.2738 19.4589 12.4808 19.5348 12.7086C19.6108 12.9364 19.6326 13.1787 19.5987 13.4164V15.1081Z" fill="#3A64F8"/>
</svg>
