<svg width="52" height="52" viewBox="0 0 52 52" fill="none" xmlns="http://www.w3.org/2000/svg">
<g clip-path="url(#clip0_19454_71339)">
<path d="M24.1861 3.90592C24.9029 2.36246 27.0971 2.36246 27.8139 3.90593L32.8974 14.8522C33.1889 15.4797 33.7839 15.912 34.4707 15.9953L46.4522 17.4474C48.1416 17.6522 48.8197 19.739 47.5732 20.8977L38.7336 29.115C38.2269 29.5861 37.9996 30.2856 38.1327 30.9645L40.4541 42.8083C40.7814 44.4783 39.0062 45.7681 37.5191 44.9407L26.9724 39.073C26.3678 38.7366 25.6322 38.7366 25.0276 39.073L14.4809 44.9407C12.9938 45.7681 11.2186 44.4783 11.5459 42.8083L13.8673 30.9645C14.0004 30.2856 13.7731 29.5861 13.2664 29.115L4.42675 20.8977C3.18033 19.739 3.8584 17.6522 5.54782 17.4474L17.5293 15.9953C18.2161 15.912 18.8111 15.4797 19.1025 14.8522L24.1861 3.90592Z" fill="#E6E8EC"/>
</g>
<defs>
<clipPath id="clip0_19454_71339">
<rect width="52" height="52" fill="white"/>
</clipPath>
</defs>
</svg>
