<svg width="128" height="25" viewBox="0 0 128 25" fill="none" xmlns="http://www.w3.org/2000/svg">
<g clip-path="url(#clip0_17182_24576)">
<path d="M11.093 2.93734C11.4514 2.16561 12.5486 2.16561 12.907 2.93734L15.1654 7.80043C15.3111 8.11418 15.6086 8.33034 15.9521 8.37196L21.275 9.01709C22.1197 9.11947 22.4588 10.1629 21.8356 10.7422L17.9084 14.3929C17.655 14.6285 17.5414 14.9782 17.6079 15.3177L18.6393 20.5795C18.8029 21.4145 17.9153 22.0594 17.1717 21.6457L12.4862 19.0389C12.1839 18.8707 11.8161 18.8707 11.5138 19.0389L6.82825 21.6457C6.08469 22.0594 5.19708 21.4145 5.36075 20.5795L6.39208 15.3177C6.45862 14.9782 6.34497 14.6285 6.0916 14.3929L2.16443 10.7422C1.54122 10.1629 1.88026 9.11947 2.72497 9.01709L8.04794 8.37196C8.39136 8.33034 8.68888 8.11418 8.83459 7.80043L11.093 2.93734Z" fill="#4C4D50"/>
</g>
<g clip-path="url(#clip1_17182_24576)">
<path d="M37.093 2.93734C37.4514 2.16561 38.5486 2.16561 38.907 2.93734L41.1654 7.80043C41.3111 8.11418 41.6086 8.33034 41.9521 8.37196L47.275 9.01709C48.1197 9.11947 48.4588 10.1629 47.8356 10.7422L43.9084 14.3929C43.655 14.6285 43.5414 14.9782 43.6079 15.3177L44.6393 20.5795C44.8029 21.4145 43.9153 22.0594 43.1717 21.6457L38.4862 19.0389C38.1839 18.8707 37.8161 18.8707 37.5138 19.0389L32.8283 21.6457C32.0847 22.0594 31.1971 21.4145 31.3607 20.5795L32.3921 15.3177C32.4586 14.9782 32.345 14.6285 32.0916 14.3929L28.1644 10.7422C27.5412 10.1629 27.8803 9.11947 28.725 9.01709L34.0479 8.37196C34.3914 8.33034 34.6889 8.11418 34.8346 7.80043L37.093 2.93734Z" fill="#4C4D50"/>
</g>
<g clip-path="url(#clip2_17182_24576)">
<path d="M63.093 2.93734C63.4514 2.16561 64.5486 2.16561 64.907 2.93734L67.1654 7.80043C67.3111 8.11418 67.6086 8.33034 67.9521 8.37196L73.275 9.01709C74.1197 9.11947 74.4588 10.1629 73.8356 10.7422L69.9084 14.3929C69.655 14.6285 69.5414 14.9782 69.6079 15.3177L70.6393 20.5795C70.8029 21.4145 69.9153 22.0594 69.1717 21.6457L64.4862 19.0389C64.1839 18.8707 63.8161 18.8707 63.5138 19.0389L58.8283 21.6457C58.0847 22.0594 57.1971 21.4145 57.3607 20.5795L58.3921 15.3177C58.4586 14.9782 58.345 14.6285 58.0916 14.3929L54.1644 10.7422C53.5412 10.1629 53.8803 9.11947 54.725 9.01709L60.0479 8.37196C60.3914 8.33034 60.6889 8.11418 60.8346 7.80043L63.093 2.93734Z" fill="#4C4D50"/>
</g>
<g clip-path="url(#clip3_17182_24576)">
<path d="M89.093 2.93734C89.4514 2.16561 90.5486 2.16561 90.907 2.93734L93.1654 7.80043C93.3111 8.11418 93.6086 8.33034 93.9521 8.37196L99.275 9.01709C100.12 9.11947 100.459 10.1629 99.8356 10.7422L95.9084 14.3929C95.655 14.6285 95.5414 14.9782 95.6079 15.3177L96.6393 20.5795C96.8029 21.4145 95.9153 22.0594 95.1717 21.6457L90.4862 19.0389C90.1839 18.8707 89.8161 18.8707 89.5138 19.0389L84.8283 21.6457C84.0847 22.0594 83.1971 21.4145 83.3607 20.5795L84.3921 15.3177C84.4586 14.9782 84.345 14.6285 84.0916 14.3929L80.1644 10.7422C79.5412 10.1629 79.8803 9.11947 80.725 9.01709L86.0479 8.37196C86.3914 8.33034 86.6889 8.11418 86.8346 7.80043L89.093 2.93734Z" fill="#4C4D50"/>
</g>
<g clip-path="url(#clip4_17182_24576)">
<path d="M115.093 2.93734C115.451 2.16561 116.549 2.16561 116.907 2.93734L119.165 7.80043C119.311 8.11418 119.609 8.33034 119.952 8.37196L125.275 9.01709C126.12 9.11947 126.459 10.1629 125.836 10.7422L121.908 14.3929C121.655 14.6285 121.541 14.9782 121.608 15.3177L122.639 20.5795C122.803 21.4145 121.915 22.0594 121.172 21.6457L116.486 19.0389C116.184 18.8707 115.816 18.8707 115.514 19.0389L110.828 21.6457C110.085 22.0594 109.197 21.4145 109.361 20.5795L110.392 15.3177C110.459 14.9782 110.345 14.6285 110.092 14.3929L106.164 10.7422C105.541 10.1629 105.88 9.11947 106.725 9.01709L112.048 8.37196C112.391 8.33034 112.689 8.11418 112.835 7.80043L115.093 2.93734Z" fill="#4C4D50"/>
</g>
<defs>
<clipPath id="clip0_17182_24576">
<rect width="24" height="24" fill="white" transform="translate(0 0.984375)"/>
</clipPath>
<clipPath id="clip1_17182_24576">
<rect width="24" height="24" fill="white" transform="translate(26 0.984375)"/>
</clipPath>
<clipPath id="clip2_17182_24576">
<rect width="24" height="24" fill="white" transform="translate(52 0.984375)"/>
</clipPath>
<clipPath id="clip3_17182_24576">
<rect width="24" height="24" fill="white" transform="translate(78 0.984375)"/>
</clipPath>
<clipPath id="clip4_17182_24576">
<rect width="24" height="24" fill="white" transform="translate(104 0.984375)"/>
</clipPath>
</defs>
</svg>
