<svg width="38" height="38" viewBox="0 0 38 38" fill="none" xmlns="http://www.w3.org/2000/svg">
<path d="M3.23691 37.7323H24.5843C26.372 37.7323 27.8212 36.2831 27.8212 34.4954V16.3713C27.8212 15.5386 27.5003 14.738 26.9252 14.1358L19.5037 6.36463C18.893 5.72509 18.0471 5.36328 17.1628 5.36328H3.23691C1.44921 5.36328 0 6.81249 0 8.60019L0 34.4954C0 36.2831 1.44921 37.7323 3.23691 37.7323Z" fill="url(#paint0_linear_17151_15463)"/>
<path d="M3.2373 5.90234H17.1631C17.808 5.90241 18.4281 6.13395 18.9141 6.54883L19.1133 6.7373L26.5352 14.5088C27.0142 15.0105 27.2812 15.6774 27.2812 16.3711V34.4951C27.2812 35.9849 26.0737 37.1924 24.584 37.1924H3.2373C1.74756 37.1924 0.539062 35.9849 0.539062 34.4951L0.539062 8.60059C0.539062 7.11084 1.74756 5.90234 3.2373 5.90234Z" stroke="url(#paint1_linear_17151_15463)" stroke-opacity="0.34" stroke-width="1.07897"/>
<path d="M10.9546 28.4293L29.5227 32.1096C30.9584 32.3942 32.3529 31.461 32.6375 30.0254L35.7523 14.3101C35.8849 13.6414 35.7546 12.9473 35.3886 12.3721L30.2893 4.35866C29.9006 3.74783 29.2789 3.32263 28.5687 3.18186L16.4355 0.776967C14.9998 0.492403 13.6053 1.42558 13.3207 2.86127L8.8703 25.3145C8.58573 26.7502 9.5189 28.1448 10.9546 28.4293Z" fill="#8BA4FF"/>
<path d="M3.23691 37.7323H24.5843C26.372 37.7323 27.8212 36.2831 27.8212 34.4954V16.3713C27.8212 15.5386 27.5003 14.738 26.9252 14.1358L19.5037 6.36463C18.893 5.72509 18.0471 5.36328 17.1628 5.36328H3.23691C1.44921 5.36328 0 6.81249 0 8.60019L0 34.4954C0 36.2831 1.44921 37.7323 3.23691 37.7323Z" fill="#3A64F8"/>
<path d="M8.09681 26.7756V23.9972H5.25781V22.5303H8.09681V19.7596H9.59562V22.5303H12.4188V23.9972H9.59562V26.7756H8.09681Z" fill="white"/>
<path d="M15.0562 28.8556L18.9895 19.4492H14.0014V17.6797H21.0355V19.4492L17.118 28.8556H15.0562Z" fill="white"/>
<defs>
<linearGradient id="paint0_linear_17151_15463" x1="21.8963" y1="9.9489" x2="-8.58308" y2="34.4607" gradientUnits="userSpaceOnUse">
<stop stop-color="#6386FF"/>
<stop offset="1" stop-color="#3A64F8"/>
</linearGradient>
<linearGradient id="paint1_linear_17151_15463" x1="30.1396" y1="4.28431" x2="-11.4051" y2="39.608" gradientUnits="userSpaceOnUse">
<stop stop-color="white"/>
<stop offset="1" stop-color="#999999"/>
</linearGradient>
</defs>
</svg>
