<svg width="28" height="29" viewBox="0 0 28 29" fill="none" xmlns="http://www.w3.org/2000/svg">
<path d="M2.76811 13.0226C9.03159 10.2237 13.2082 8.37844 15.298 7.48692C21.2648 4.94145 22.5046 4.49927 23.3127 4.48452C23.4905 4.48146 23.8879 4.52664 24.1453 4.74088C24.3627 4.92178 24.4225 5.16615 24.4511 5.33767C24.4797 5.50918 24.5154 5.89989 24.487 6.20519C24.1637 9.68974 22.7646 18.1458 22.0528 22.0486C21.7516 23.7 21.1586 24.2537 20.5845 24.3079C19.3368 24.4256 18.3893 23.4622 17.1808 22.6497C15.2898 21.3783 14.2215 20.5868 12.386 19.3462C10.2647 17.9124 11.6398 17.1244 12.8488 15.8365C13.1651 15.4995 18.6626 10.3709 18.769 9.90561C18.7823 9.84742 18.7946 9.63052 18.669 9.516C18.5434 9.40147 18.3579 9.44063 18.2241 9.47178C18.0345 9.51593 15.0136 11.5639 9.1614 15.6156C8.30393 16.2195 7.52725 16.5138 6.83138 16.4984C6.06423 16.4814 4.58855 16.0535 3.49153 15.6877C2.146 15.2391 1.07659 15.002 1.16972 14.2401C1.21822 13.8433 1.75102 13.4374 2.76811 13.0226Z" fill="#3A64F8"/>
</svg>
