<svg width="28" height="29" viewBox="0 0 28 29" fill="none" xmlns="http://www.w3.org/2000/svg">
<path d="M22.4655 6.55545C20.4119 4.4586 17.5731 3.32031 14.6739 3.32031C8.51317 3.32031 3.5604 8.29284 3.6208 14.3437C3.6208 16.2609 4.1644 18.1181 5.07039 19.7955L3.5 25.487L9.35876 23.9892C10.9896 24.8879 12.8015 25.3073 14.6135 25.3073C20.7139 25.3073 25.6667 20.3347 25.6667 14.2838C25.6667 11.3482 24.5191 8.59239 22.4655 6.55545ZM14.6739 23.45C13.0431 23.45 11.4124 23.0307 10.0232 22.1919L9.66076 22.0122L6.15758 22.9109L7.06358 19.496L6.82198 19.1365C4.1644 14.8829 5.43279 9.25139 9.78156 6.61536C14.1303 3.97932 19.7475 5.23743 22.4051 9.55094C25.0627 13.8645 23.7943 19.4361 19.4455 22.0721C18.0563 22.9708 16.3651 23.45 14.6739 23.45ZM19.9891 16.8L19.3247 16.5005C19.3247 16.5005 18.3583 16.0811 17.7543 15.7816C17.6939 15.7816 17.6335 15.7217 17.5731 15.7217C17.3919 15.7217 17.2711 15.7816 17.1503 15.8415C17.1503 15.8415 17.0899 15.9014 16.2443 16.86C16.1839 16.9798 16.0631 17.0397 15.9423 17.0397H15.8819C15.8215 17.0397 15.7007 16.9798 15.6403 16.9199L15.3383 16.8C14.6739 16.5005 14.0699 16.141 13.5867 15.6618C13.4659 15.5419 13.2847 15.4221 13.1639 15.3023C12.7411 14.8829 12.3183 14.4036 12.0163 13.8645L11.9559 13.7446C11.8955 13.6847 11.8956 13.6248 11.8352 13.505C11.8352 13.3852 11.8352 13.2654 11.8955 13.2054C11.8955 13.2054 12.1371 12.9059 12.3183 12.7262C12.4391 12.6063 12.4995 12.4266 12.6203 12.3068C12.7411 12.1271 12.8015 11.8874 12.7411 11.7077C12.6807 11.4082 11.9559 9.79058 11.7748 9.43112C11.654 9.25139 11.5332 9.19148 11.352 9.13157H11.1708C11.05 9.13157 10.8688 9.13157 10.6876 9.13157C10.5668 9.13157 10.446 9.19148 10.3252 9.19148L10.2648 9.25139C10.144 9.3113 10.0232 9.43112 9.90236 9.49103C9.78156 9.61085 9.72116 9.73067 9.60036 9.85049C9.17757 10.3897 8.93597 11.0487 8.93597 11.7077C8.93597 12.187 9.05677 12.6663 9.23797 13.0856L9.29837 13.2654C9.84196 14.4036 10.5668 15.4221 11.5332 16.3208L11.7748 16.5604C11.9559 16.7401 12.1371 16.86 12.2579 17.0397C13.5263 18.1181 14.9759 18.8969 16.6067 19.3163C16.7879 19.3762 17.0295 19.3762 17.2107 19.4361C17.3919 19.4361 17.6335 19.4361 17.8147 19.4361C18.1167 19.4361 18.4791 19.3163 18.7207 19.1964C18.9019 19.0766 19.0227 19.0766 19.1435 18.9568L19.2643 18.837C19.3851 18.7172 19.5059 18.6573 19.6267 18.5374C19.7475 18.4176 19.8683 18.2978 19.9287 18.178C20.0495 17.9383 20.1099 17.6388 20.1703 17.3392C20.1703 17.2194 20.1703 17.0397 20.1703 16.9199C20.1703 16.9199 20.1099 16.86 19.9891 16.8Z" fill="#3A64F8"/>
</svg>
