<svg width="60" height="60" viewBox="0 0 60 60" fill="none" xmlns="http://www.w3.org/2000/svg">
<rect width="60" height="60" rx="10" fill="white"/>
<path d="M16.5 30C16.5 35.6565 16.5 41.4855 18.477 43.242C20.454 45 23.637 45 30 45C36.363 45 39.546 45 41.523 43.242C43.5 41.484 43.5 35.6565 43.5 30" stroke="#3A64F8" stroke-width="2.5"/>
<path d="M33.99 33.303L43.287 30.513C43.902 30.3285 44.211 30.237 44.439 30.054C44.6382 29.8937 44.7931 29.6851 44.889 29.448C45 29.178 45 28.8555 45 28.212C45 25.68 45 24.4155 44.505 23.4495C44.0747 22.6091 43.3909 21.9253 42.5505 21.495C41.5845 21 40.32 21 37.788 21H22.212C19.68 21 18.4155 21 17.4495 21.495C16.6091 21.9253 15.9253 22.6091 15.495 23.4495C15 24.4155 15 25.68 15 28.212C15 28.8555 15 29.1765 15.1095 29.448C15.2054 29.6851 15.3603 29.8937 15.5595 30.054C15.789 30.237 16.0965 30.3285 16.7145 30.5145L26.01 33.303" stroke="#3A64F8" stroke-width="2.5"/>
<path d="M25.7559 17.9998C26.0658 17.1215 26.6405 16.3609 27.4008 15.823C28.161 15.285 29.0695 14.9961 30.0009 14.9961C30.9322 14.9961 31.8407 15.285 32.601 15.823C33.3613 16.3609 33.936 17.1215 34.2459 17.9998M33.0009 30.7498H27.0009C26.8019 30.7498 26.6112 30.8288 26.4705 30.9694C26.3299 31.1101 26.2509 31.3009 26.2509 31.4998V34.7428C26.2509 34.8926 26.2958 35.0389 26.3797 35.1629C26.4637 35.287 26.5828 35.3831 26.7219 35.4388L27.7719 35.8588C29.2027 36.4313 30.799 36.4313 32.2299 35.8588L33.2799 35.4388C33.4189 35.3831 33.5381 35.287 33.622 35.1629C33.7059 35.0389 33.7508 34.8926 33.7509 34.7428V31.4998C33.7509 31.3009 33.6718 31.1101 33.5312 30.9694C33.3905 30.8288 33.1998 30.7498 33.0009 30.7498Z" stroke="#3A64F8" stroke-width="2.5" stroke-linecap="round"/>
</svg>
